<?xml version="1.0" encoding="UTF-8"?>
<!DOCTYPE svg PUBLIC "-//W3C//DTD SVG 1.1//EN" "http://www.w3.org/Graphics/SVG/1.1/DTD/svg11.dtd">
<!-- Creator: CorelDRAW X8 -->
<svg xmlns="http://www.w3.org/2000/svg" xml:space="preserve" width="11in" height="11in" version="1.1" style="shape-rendering:geometricPrecision; text-rendering:geometricPrecision; image-rendering:optimizeQuality; fill-rule:evenodd; clip-rule:evenodd"
viewBox="0 0 11000 11000"
 xmlns:xlink="http://www.w3.org/1999/xlink">
 <defs>
  <style type="text/css">
   <![CDATA[
    .fil0 {fill:#7F8C8D}
   ]]>
  </style>
 </defs>
 <g id="Layer_x0020_1">
  <metadata id="CorelCorpID_0Corel-Layer"/>
  <g id="_2221049320352">
   <g>
    <path class="fil0" d="M5324 2452c22,0 26,-3 43,-6 -14,-20 -1,-14 -36,-15 -8,14 -2,1 -7,21z"/>
    <path class="fil0" d="M6337 3183l-12 -24c-23,-2 -15,-5 -30,4 13,10 21,6 42,20z"/>
    <path class="fil0" d="M7091 1991c25,0 19,1 36,-6l3 -4c-25,-6 -27,-13 -39,10z"/>
    <path class="fil0" d="M7504 3670l-13 -17 -29 4c7,6 -8,1 16,8 10,3 11,4 26,5z"/>
    <path class="fil0" d="M6760 3361l9 5c6,2 8,2 15,4 15,6 11,4 20,11l-13 -24 -31 4z"/>
    <path class="fil0" d="M6101 3078c-8,-14 4,-11 -15,-15 -29,-7 -20,7 -21,8 19,2 20,3 36,7z"/>
    <path class="fil0" d="M5136 2608c2,-1 10,-2 11,-3 10,-4 9,-4 15,-8 -17,-3 -17,-5 -36,-7l4 11 6 7z"/>
    <path class="fil0" d="M7766 1577c-6,-5 0,-4 -13,-7 -7,-1 -19,0 -26,0l12 14 27 -7z"/>
    <path class="fil0" d="M6993 3460c2,1 4,0 4,2l36 11 -8 -18 -32 5z"/>
    <path class="fil0" d="M7759 2031c27,-14 13,2 27,-22 -20,3 -25,1 -27,22z"/>
    <path class="fil0" d="M7027 3387c-18,-4 -20,-6 -34,-13l6 20c7,0 9,1 14,-1 11,-3 8,-2 14,-6z"/>
    <polygon class="fil0" points="7227,3559 7266,3572 7258,3554 "/>
    <path class="fil0" d="M7493 3585c-17,-4 -20,-7 -34,-13l7 19c6,0 9,0 13,-1 11,-2 9,-2 14,-5z"/>
    <path class="fil0" d="M6560 3190c-15,-4 -15,-5 -33,-7 5,9 2,11 14,13 28,4 17,-5 19,-6z"/>
    <path class="fil0" d="M7260 3486c-18,-4 -20,-6 -34,-13l8 19c5,0 8,1 12,0 11,-3 8,-3 14,-6z"/>
    <path class="fil0" d="M6098 2992l-37 -6c9,16 19,18 37,6z"/>
    <path class="fil0" d="M6798 3288l-37 -6c9,17 19,18 37,6z"/>
    <path class="fil0" d="M5627 2795c-15,-4 -15,-5 -33,-7 4,8 3,10 14,12 28,5 16,-4 19,-5z"/>
    <path class="fil0" d="M5393 2696c-15,-4 -14,-5 -32,-7 5,9 3,10 14,12 27,5 16,-3 18,-5z"/>
    <polygon class="fil0" points="4434,9142 4436,9131 4431,9124 4424,9118 4407,9114 "/>
    <path class="fil0" d="M6367 2103c20,15 23,8 33,-6 -18,1 -18,3 -33,6z"/>
    <path class="fil0" d="M5860 2893c-15,-3 -15,-5 -32,-6 4,7 4,10 14,11 27,6 15,-3 18,-5z"/>
    <path class="fil0" d="M3198 7759c22,-12 10,0 22,-23 -20,2 -17,6 -22,23z"/>
    <polygon class="fil0" points="4201,8944 4195,8923 4173,8917 "/>
    <polygon class="fil0" points="4720,9286 4692,9260 4699,9281 "/>
    <path class="fil0" d="M7533 3940l-2 -39c0,1 -6,-1 -5,19 2,33 1,11 7,20z"/>
    <polygon class="fil0" points="3287,8068 3259,8042 3266,8063 "/>
    <path class="fil0" d="M7553 3849l13 -8 2 -26c-6,8 -3,1 -8,13 -4,10 -1,8 -7,21z"/>
    <path class="fil0" d="M7529 2577c10,-22 11,-21 0,-39l0 39z"/>
    <path class="fil0" d="M2700 7831c-2,-24 -5,-22 -20,-31l20 31z"/>
    <polygon class="fil0" points="8261,2551 8261,2558 "/>
   </g>
   <g>
    <path class="fil0" d="M5880 2933c-10,22 1,20 -53,20 -6,-15 -6,-10 -7,-33 35,9 48,4 60,13zm1167 -1001l-40 26c-7,-11 -1,-2 -7,-19 -39,2 -49,10 -79,20 -26,9 -47,9 -77,17 -30,7 -40,16 -70,23 -105,22 -201,53 -299,73 -27,5 -45,18 -75,25 -10,14 -13,21 -33,6l-176 44c-64,26 -78,16 -117,29 -63,23 -150,33 -167,52 -11,22 9,13 -19,20 -23,6 -12,-3 -15,-13 -35,0 -92,22 -157,36 -32,6 -45,16 -71,22 -28,6 -53,6 -78,15 -62,22 -278,67 -287,85l-40 26c-7,-11 -1,-2 -7,-19 -45,2 -60,16 -94,25 -36,9 -57,9 -91,22 -50,19 -135,19 -174,59 -35,36 -21,143 -21,210l0 6676c-36,-10 -74,-68 -106,-86 -25,-14 -4,-6 -20,-6 -17,-1 -18,-1 -27,-7 -6,-16 -5,-10 -7,-33l-51 -41c-9,-8 -12,-12 -20,-20l-122 -97c-35,-1 -39,-10 -40,-46 -27,-11 -9,-2 -29,-18l-72 -60c-9,-7 -12,-11 -21,-19 -12,-10 -14,-9 -26,-20 -20,-17 -26,-34 -45,-34 -18,0 -24,-1 -34,-7 -7,-18 -6,-15 -6,-40 -21,-8 -7,1 -26,-14 -7,-6 -10,-11 -14,-18 -2,29 -6,41 -27,52 3,19 3,19 17,29l-17 4 7 7c34,0 46,0 46,33 11,19 25,25 41,38l146 126 24 3 7 6 5 7c15,9 11,-3 11,17 0,2 -5,6 40,40 18,13 28,25 46,39 33,25 68,53 94,86 29,0 31,-2 53,6l0 27c0,1 1,1 2,3l12 15c46,46 131,99 173,153 44,3 12,-1 40,13 1,30 -7,17 20,20 2,-24 6,-21 10,-42 9,-41 3,-6910 3,-6911 22,2 76,24 93,33l94 39c21,-12 -6,15 6,-6 28,2 27,4 47,13l0 13c12,15 111,50 139,60 25,9 24,16 54,26 24,0 20,1 34,6 6,19 60,30 89,44l104 42c31,0 37,-1 47,20 10,14 65,29 86,39 19,9 29,12 48,19 28,10 22,10 46,27 10,-4 46,-16 46,7 6,19 58,29 85,42l102 44c21,-12 30,-9 53,-1l0 20c11,14 66,29 87,40 18,9 29,12 47,19 26,9 25,15 48,20 15,-9 7,-6 30,-4l12 24 92 37c20,10 23,12 47,20l33 14c17,8 -7,-2 18,8 20,-11 22,-9 46,0 6,9 5,6 7,20 11,14 65,29 87,39 18,9 28,12 47,19 25,9 25,15 46,21l31 -4 13 24c16,6 29,13 44,18l128 53c16,7 -7,-2 17,8l0 -7c29,0 31,-2 54,7l0 19c10,14 65,29 86,40 18,9 29,12 48,19 25,9 24,14 46,21l31 -5 8 18c37,23 56,24 96,43 21,10 24,12 47,20 29,10 29,17 53,22l29 -4 13 17c22,22 56,32 89,40 0,69 -19,63 -25,105l-2 26 -13 8c-8,32 -15,20 -22,52l2 39c5,17 4,16 27,20 10,1 41,0 53,0 78,-1 238,5 296,-4 91,-13 344,12 391,-3 0,-27 3,-45 6,-65 -23,-10 -21,-5 -44,-11 -20,-5 -9,-6 -29,-9 -39,0 -39,-8 -40,-46l-258 -226c-21,-18 -26,-24 -42,-25 -33,0 -33,-12 -33,-46 -80,-39 -57,-92 -147,-92 -33,49 -7,30 -42,103 -19,39 -17,79 -51,101l-86 -34c-25,-10 -2,-11 -27,-5 -11,7 12,2 -19,6 -5,1 -16,0 -21,0 -7,-15 -6,-9 -7,-32 -36,-18 -62,-25 -93,-40 -20,-10 -75,-37 -94,-33 -10,7 12,2 -18,6 -5,1 -16,1 -22,1 -6,-16 -5,-10 -7,-33l-140 -59c-19,-7 -8,-4 -23,-10 -18,-7 -3,-8 -23,-4 -10,7 12,2 -19,7 -5,0 -16,0 -21,0 -6,-16 -5,-10 -7,-33 -35,-18 -62,-24 -93,-40 -18,-8 -29,-12 -48,-18 -25,-9 -22,-12 -39,-21 -11,9 -5,9 -26,14 0,0 -19,-1 -20,-1 -6,-15 -6,-10 -7,-33 -22,-11 -165,-77 -187,-72 -10,7 13,2 -18,6 -5,1 -16,0 -22,0 -6,-15 -5,-9 -6,-33 -36,-17 -63,-24 -94,-39 -18,-9 -28,-12 -47,-19 -25,-9 -22,-12 -39,-21 -12,10 -6,9 -27,14 0,0 -18,0 -20,0 -6,-16 -5,-10 -7,-33 -35,-18 -62,-25 -93,-40 -18,-9 -29,-12 -48,-19 -25,-9 -22,-11 -39,-20 -11,9 -5,8 -26,13 0,0 -19,0 -20,0 -6,-16 -5,-10 -7,-33 -38,-19 -66,-27 -102,-44 -20,-9 -29,-10 -49,-18 -26,-11 -19,-17 -49,-24 -3,2 9,11 -18,5 -10,-1 -10,-4 -14,-11l-8 -13c-1,41 9,32 -27,39 -8,-22 -6,-24 -6,-53 -37,-11 -52,-21 -81,-32 -16,-5 -25,-7 -39,-14 -16,-9 -18,-14 -40,-19 -3,1 9,10 -19,5 -11,-2 -10,-4 -14,-12 -20,-25 -57,-28 -90,-44 -20,-10 -23,-11 -47,-19 -29,-10 -24,-13 -44,-23 -11,10 -5,9 -26,14 0,0 -19,0 -20,0 -6,-16 -5,-10 -7,-33 -37,-19 -63,-25 -98,-42 -19,-9 -28,-11 -48,-19 -15,-5 -26,-12 -41,-18 -11,10 -2,11 -24,13 -15,1 -4,1 -13,-9l-6 -7 -3 -17c-12,-6 -19,-9 -27,-13 0,-39 -2,-30 13,-53 52,14 0,52 80,33l1 -48c0,-1 -1,-3 -1,-5 3,-27 0,0 14,-26 23,2 17,1 33,7 32,-2 49,-15 80,-20 0,-16 1,-18 7,-27 19,0 53,-5 53,14 35,-5 58,-23 103,-31 29,-4 34,-4 60,-13 26,-9 24,-12 55,-18 93,-17 67,-19 116,-30 69,-17 28,4 119,-33l7 -14c24,1 18,1 33,7 31,0 40,-8 63,-17 27,-10 46,-11 77,-17 31,-5 39,-15 70,-23 27,-7 55,-7 78,-14 29,-9 33,-16 70,-23 63,-12 180,-50 229,-57 0,-17 1,-18 7,-27 42,0 23,1 46,13l163 -43c72,-26 67,-14 117,-30 66,-21 140,-35 174,-52 21,-12 -6,15 6,-6l27 0c39,0 60,-13 93,-27l7 -13 30 3 10 4c20,-1 32,-7 46,-13 54,-22 78,-15 113,-27 20,-7 29,-14 54,-19l111 -29c23,-7 38,-7 62,-12 27,-5 28,-13 54,-19 11,17 10,12 17,36 8,26 8,24 16,43 13,33 16,156 76,142l71 -50c0,-17 0,-23 6,-33 9,0 13,0 21,2l13 5c25,-32 58,-48 93,-72 1,-31 9,-27 40,-27 15,-20 25,-22 44,-35l173 -126c19,-12 75,-62 90,-62 44,2 -12,26 60,26l0 -73c-37,-12 -26,-18 -54,-26l-199 -13c-46,-3 -87,-16 -134,-20 -50,-4 -88,-6 -147,-6l-27 7 -12 -14 -34 0 0 -20 -180 0c0,113 47,137 47,244l-325 80c-28,6 -39,13 -66,21 -23,7 -112,16 -122,37z"/>
    <path class="fil0" d="M2680 7800c15,9 18,7 20,31 8,30 108,195 124,234 57,140 104,-18 176,-62 0,-32 1,-33 34,-33 6,-11 0,-4 13,-7 38,33 124,103 147,132 36,0 52,-3 53,33 0,1 1,1 1,3l13 15c44,43 130,100 166,146 36,0 50,1 53,33 1,20 -8,-6 5,10l81 70c28,22 72,56 94,85 29,0 31,-2 53,6l0 27c1,15 14,21 46,47l174 150c30,1 44,-1 47,27 1,16 -15,-5 11,21 12,12 14,9 27,20 10,8 12,11 21,19l121 104 17 -4c-14,-10 -14,-10 -17,-29 21,-11 25,-23 27,-52l-125 -101c-3,-3 -16,-16 -17,-17 -25,-21 -3,-12 -25,-8 -23,0 -18,-11 -20,-32l-63 -50c-21,-17 -39,-31 -58,-48l-43 -37c-6,-6 -7,-7 -14,-12l-118 -101c-15,-11 -16,-13 -29,-24 -26,-23 -128,-116 -148,-117 -17,0 -18,-1 -27,-7 -6,-15 -5,-10 -7,-32l-98 -81c-16,-16 -72,-72 -95,-71l-20 0c-14,-26 -17,-1 -20,-46 -22,-16 -152,-123 -166,-145 6,-26 81,-113 106,-131 1,-25 2,-27 27,-27 10,-23 17,-31 -33,-59 -28,-15 -46,-11 -76,-24 -13,-6 -20,-11 -31,-16 -17,-6 -23,-5 -43,-10 -27,-8 -42,-19 -64,-29 -1,4 -2,15 -6,20l-34 0c-14,-27 -6,2 -13,-33l-53 -20c-27,-7 -31,-6 -55,-18l-154 -53c-64,-16 -76,-48 -165,-41l0 40c32,3 11,-4 30,29 8,15 17,25 23,37 9,17 8,22 20,40l107 198z"/>
    <path class="fil0" d="M8066 2656l6 -20c24,2 19,1 34,7 16,-7 22,-14 34,-19 16,-8 29,-9 47,-14 28,-7 64,-25 74,-52l0 -7c-11,-32 -9,-12 -41,-26 -13,25 10,13 -27,19l0 -26c-22,-11 -25,-14 -47,-20l-226 -85c-128,-64 -107,20 -107,72 1,88 -19,6 -2,114 3,14 2,29 2,44 0,40 -1,54 7,86 41,19 31,6 117,-23l129 -50z"/>
    <path class="fil0" d="M6887 2551c2,19 9,23 20,33 29,-3 33,-8 46,-26 28,18 26,19 74,19 9,-16 3,4 8,-17 4,-17 8,-5 -2,-9 -5,-13 0,-1 -6,-20 -37,-15 -46,0 -67,13 -24,-15 -10,-19 -47,-19 -4,23 2,26 -26,26z"/>
    <path class="fil0" d="M7393 2558c1,0 16,2 20,6 7,25 1,2 7,20 28,-1 20,-6 40,-20 23,15 35,27 69,13l0 -39c-39,-20 -50,4 -69,3 -21,-1 -17,-20 -60,-10 -7,11 -4,8 -7,27z"/>
    <path class="fil0" d="M7053 2558l13 19c22,24 40,-12 67,-6 5,0 41,1 41,1 27,-5 16,1 26,-21 -19,-8 -16,-9 -40,-13 -37,-13 -1,-4 -40,6 -10,-13 -11,-16 -33,-19 -5,26 0,10 -7,26 -16,6 -2,2 -27,7z"/>
    <path class="fil0" d="M7320 2577c-2,-18 -5,-15 -7,-39 -1,0 -15,3 -20,6 -28,-18 -27,-22 -66,-13 0,34 -8,-7 -5,26 1,9 6,18 11,27 37,0 39,-6 60,-20 17,12 8,6 27,13z"/>
    <path class="fil0" d="M5640 2511c-21,89 60,57 60,33 0,-17 -3,-18 -7,-33 -17,-4 -21,-12 -53,0z"/>
    <path class="fil0" d="M5800 2531c0,20 6,27 13,40l40 0c24,-45 16,-47 -20,-66 -9,5 -33,14 -33,26z"/>
    <path class="fil0" d="M5387 2538c0,44 60,37 60,0 0,-45 -60,-59 -60,0z"/>
    <path class="fil0" d="M8253 3664c0,17 3,18 7,33 10,0 53,14 53,-27 0,-50 -60,-48 -60,-6z"/>
    <path class="fil0" d="M5887 2544c0,39 60,48 60,-6 0,-40 -60,-45 -60,6z"/>
    <path class="fil0" d="M7620 2544l0 27c0,-16 -2,1 6,-7 92,60 99,-38 41,-34 -37,3 -13,12 -47,21l0 -7z"/>
    <path class="fil0" d="M5467 2525c0,20 6,26 13,39l40 0c44,-83 -53,-63 -53,-39z"/>
    <path class="fil0" d="M6133 2538c0,56 52,33 60,33 9,-36 19,-36 -26,-60 -9,5 -34,15 -34,27z"/>
    <path class="fil0" d="M5720 2538c0,11 9,24 13,33l34 0c18,-34 18,-33 0,-66l-34 0c-4,8 -13,22 -13,33z"/>
    <path class="fil0" d="M5967 2544c0,36 96,48 53,-33l-40 0c-4,9 -13,22 -13,33z"/>
    <path class="fil0" d="M6867 2551c-6,-13 -1,-1 -7,-20 -42,-16 -50,-4 -67,20 12,22 0,26 67,26 9,-15 16,-19 7,-26z"/>
    <path class="fil0" d="M6053 2544c0,15 3,8 7,27l13 0c0,17 19,0 34,0 6,-27 14,-20 -7,-60l-33 0c-5,9 -14,22 -14,33z"/>
    <path class="fil0" d="M5300 2525c0,17 3,18 7,33 24,5 60,11 60,-27 0,-39 -67,-30 -67,-6z"/>
    <path class="fil0" d="M6625 2550c27,31 16,27 55,27 29,0 29,-52 0,-52l-33 0 -22 25z"/>
    <path class="fil0" d="M8313 1925c-1,-1 -5,-7 -5,-8 -7,-13 0,1 -8,-18l-27 -8c-1,3 -3,3 -4,5 0,0 -33,33 -9,56 28,13 52,10 53,-27z"/>
    <path class="fil0" d="M6307 2525l-7 39c90,47 90,-71 7,-39z"/>
    <path class="fil0" d="M5553 2518c0,99 92,38 45,-11l-11 -9c-15,8 -20,11 -34,20z"/>
    <path class="fil0" d="M8313 3183c-3,-5 -4,-2 -8,-15 -4,-12 -4,-11 -5,-31 -19,-6 -34,-5 -43,17 -9,22 2,35 9,49 36,0 29,4 47,-20z"/>
    <path class="fil0" d="M6467 2551c0,26 66,55 66,-20 -2,-1 -26,-13 -26,-13 -17,0 -40,14 -40,33z"/>
    <path class="fil0" d="M8300 2953l0 -14 13 -6c0,-35 -4,-34 -27,-46l-26 7c-9,35 -10,28 6,59l34 0z"/>
    <path class="fil0" d="M8300 2452l0 -13 13 -7c0,-76 -99,-33 -44,24 1,0 3,2 4,3l27 -7z"/>
    <path class="fil0" d="M6387 2551c0,41 51,22 60,20 0,-53 -4,-53 -47,-53 -5,8 -13,22 -13,33z"/>
    <path class="fil0" d="M6720 2551c0,18 -5,6 27,33 17,-8 40,-8 40,-33 0,-36 -67,-36 -67,0z"/>
    <path class="fil0" d="M6553 2551c0,27 25,26 40,26 39,0 29,-59 -13,-59 -7,0 -27,19 -27,33z"/>
    <path class="fil0" d="M6220 2544c0,12 9,25 13,33 85,0 33,-66 20,-66 -17,0 -33,24 -33,33z"/>
    <path class="fil0" d="M8300 2709l0 -72 -34 0c-15,32 -16,41 0,72l34 0z"/>
    <path class="fil0" d="M8300 2209l0 -66 -27 -8c-28,42 -28,39 0,80l27 -6z"/>
    <path class="fil0" d="M7726 2551c0,101 123,-20 20,-20 -15,0 -20,5 -20,20z"/>
    <path class="fil0" d="M8300 3446c0,-24 5,-29 6,-52l-16 -10c-1,-1 -2,-2 -4,-3 -12,6 -8,5 -26,6 -4,16 -10,19 -6,38l12 22c1,1 3,2 3,3 1,1 3,2 4,3l27 -7z"/>
    <path class="fil0" d="M5220 2525c0,20 6,26 13,39 36,0 32,-4 47,-33l-16 -24c-1,-1 -2,-2 -3,-3l-8 -6c-9,5 -33,15 -33,27z"/>
    <path class="fil0" d="M7313 2538c2,24 5,21 7,39 9,15 26,6 40,0l0 -19c21,-13 -6,14 7,-7 -1,-1 -3,-15 -7,-20l-47 0 0 7z"/>
    <path class="fil0" d="M7580 2531l0 53c29,0 19,1 40,-13l0 -27 -23 -16c-1,-1 -3,-2 -4,-3 -13,3 -6,-2 -13,6z"/>
    <path class="fil0" d="M5827 2953c54,0 43,2 53,-20 -12,-9 -25,-4 -60,-13 1,23 1,18 7,33z"/>
    <path class="fil0" d="M5820 2874c-1,-1 -15,-5 -20,-7 -13,-6 1,0 -13,-7 0,29 -2,31 6,53 36,-7 26,2 27,-39z"/>
    <path class="fil0" d="M7133 2571c27,12 62,24 74,-20 -39,-57 -47,-14 -47,-13 24,4 21,5 40,13 -10,22 1,16 -26,21 0,0 -36,-1 -41,-1z"/>
    <path class="fil0" d="M2980 7601c-19,-1 -24,-2 -36,-5 -18,-5 -8,2 -17,-8 7,35 -1,6 13,33l34 0c4,-5 5,-16 6,-20z"/>
    <path class="fil0" d="M6347 3097c-18,-6 -14,-4 -32,-9 -19,-5 -13,0 -22,-10 2,23 1,17 7,33 2,0 20,0 20,0 21,-5 15,-4 27,-14z"/>
    <path class="fil0" d="M7580 2584l0 -53c-1,1 -16,3 -20,7l0 39c5,4 16,6 20,7z"/>
    <path class="fil0" d="M3713 8523l0 -27c-22,-8 -24,-6 -53,-6 8,4 12,7 20,13 10,7 3,3 11,8 19,12 1,3 22,12z"/>
    <path class="fil0" d="M4680 9346l0 -27c-22,-8 -24,-6 -53,-6 7,3 14,6 21,11 12,10 0,2 10,10 19,14 0,3 22,12z"/>
    <path class="fil0" d="M4267 8905c-13,-20 0,-3 -11,-16 -7,-7 -3,-2 -11,-10 -10,-9 -12,-9 -18,-21 0,25 -1,22 6,40 10,6 16,7 34,7z"/>
    <path class="fil0" d="M8233 3868c-12,-20 1,-3 -11,-15 -6,-7 -3,-3 -11,-10 -10,-10 -12,-10 -18,-21 1,38 1,46 40,46z"/>
    <path class="fil0" d="M5127 2669c8,9 -7,2 16,10 15,5 24,6 37,10l0 -13c-20,-9 -19,-11 -47,-13 -12,21 15,-6 -6,6z"/>
    <path class="fil0" d="M6527 3262c12,14 -2,2 17,8 13,4 21,7 36,12 -2,-14 -1,-11 -7,-20 -24,-9 -26,-11 -46,0z"/>
    <path class="fil0" d="M6460 2163l7 -7c7,-4 4,-5 11,-5 15,-1 10,1 15,5l20 -7c-23,-12 -4,-13 -46,-13 -6,9 -7,10 -7,27z"/>
    <path class="fil0" d="M7053 2558c25,-5 11,-1 27,-7 7,-16 2,0 7,-26 -32,0 -26,10 -34,33z"/>
    <path class="fil0" d="M4500 9102c-12,-20 1,-3 -11,-15 -6,-7 -3,-3 -11,-10 -10,-9 -12,-10 -18,-21 1,36 5,45 40,46z"/>
    <path class="fil0" d="M7273 3499c-5,-17 10,-13 -13,-13 -6,3 -3,3 -14,6 -4,1 -7,0 -12,0l-8 -19 0 0c2,23 1,17 7,33 6,0 17,0 22,-1 30,-4 8,1 18,-6z"/>
    <path class="fil0" d="M7507 3598c-6,-17 9,-13 -14,-13 -5,3 -3,3 -14,5 -4,1 -7,1 -13,1l-7 -19 1 0c1,23 0,17 7,32 5,0 16,1 21,0 31,-4 8,1 19,-6z"/>
    <path class="fil0" d="M3480 8325c-3,-32 -17,-33 -53,-33 7,4 14,7 21,12 12,9 0,2 10,10 19,13 0,2 22,11z"/>
    <path class="fil0" d="M7040 3400c-5,-17 9,-13 -13,-13 -6,4 -3,3 -14,6 -5,2 -7,1 -14,1l-6 -20 0 0c2,23 1,17 7,33 5,0 16,0 21,0 31,-5 9,0 19,-7z"/>
    <path class="fil0" d="M6813 3295l-15 -7c-18,12 -28,11 -37,-6l-1 -7c1,23 1,18 7,33 1,0 20,1 20,1 21,-5 15,-5 26,-14z"/>
    <path class="fil0" d="M6113 2999l-15 -7c-18,12 -28,10 -37,-6l-1 -7c2,23 1,17 7,33 1,0 20,0 20,0 21,-5 15,-4 26,-13z"/>
    <path class="fil0" d="M5413 2702l-20 -6c-2,2 9,10 -18,5 -11,-2 -9,-3 -14,-12l-1 -6c2,23 1,17 7,33 1,0 20,0 20,0 21,-5 15,-4 26,-14z"/>
    <path class="fil0" d="M6573 3203c-5,-17 10,-13 -13,-13 -2,1 9,10 -19,6 -12,-2 -9,-4 -14,-13l0 -7c1,24 0,18 6,33 6,0 17,1 22,0 31,-4 8,1 18,-6z"/>
    <path class="fil0" d="M3214 8108c21,0 20,0 26,13 -11,11 -9,7 7,7 -1,-36 -17,-33 -53,-33l20 13z"/>
    <path class="fil0" d="M3527 8279c-8,-18 4,-7 -16,-24 -9,-8 -6,6 -18,-15 2,22 1,17 7,32 9,6 10,7 27,7z"/>
    <path class="fil0" d="M5233 2400c6,17 0,8 7,19l40 -26c-29,0 -26,-3 -47,7z"/>
    <path class="fil0" d="M7000 1939c6,17 0,8 7,19l40 -26c-30,0 -27,-3 -47,7z"/>
    <path class="fil0" d="M3300 8088c-7,-21 10,-6 -13,-20l-21 -5 -7 -21 1 0c3,45 6,20 20,46l20 0z"/>
    <path class="fil0" d="M8300 2709c16,-36 17,-34 0,-72l0 72z"/>
    <path class="fil0" d="M3980 8747c-3,-28 -17,-26 -47,-27 25,13 9,14 47,27z"/>
    <path class="fil0" d="M5873 2235c3,10 -8,19 15,13 28,-7 8,2 19,-20l-27 0c-28,23 12,-25 -7,7z"/>
    <path class="fil0" d="M7420 2584c-6,-18 0,5 -7,-20 -4,-4 -19,-6 -20,-6 -6,-1 -11,-17 -4,10 1,3 5,6 6,7 14,9 2,5 25,9z"/>
    <path class="fil0" d="M6993 3460l0 0 32 -5 8 18c0,11 -2,6 14,6l0 -19c-23,-9 -25,-7 -54,-7l0 7z"/>
    <path class="fil0" d="M8300 2209c19,-42 19,-25 0,-66l0 66z"/>
    <path class="fil0" d="M6060 3065l5 6c1,-1 -8,-15 21,-8 19,4 7,1 15,15 -2,11 -3,6 12,6l0 -20c-23,-8 -32,-11 -53,1z"/>
    <path class="fil0" d="M5647 2887c-10,-21 -16,-20 -47,-20 -2,11 1,6 15,11 15,5 18,5 32,9z"/>
    <path class="fil0" d="M7893 3571c0,-15 5,-17 -7,-6 -19,-9 -15,-9 -20,-33l-6 -7c0,34 0,46 33,46z"/>
    <path class="fil0" d="M6887 2551c28,0 22,-3 26,-26 -26,10 -16,-3 -26,26z"/>
    <path class="fil0" d="M8300 1715c12,-28 12,-45 0,-73l0 73z"/>
    <path class="fil0" d="M4727 9300c0,-16 4,-13 -7,-14l-21 -5 -7 -21 1 0c2,23 1,17 7,33 9,6 10,6 27,7z"/>
    <path class="fil0" d="M8220 2525l-20 0c-23,-27 25,11 -7,-7l0 26c37,-6 14,6 27,-19z"/>
    <path class="fil0" d="M5130 2601l6 7c9,10 -2,10 13,9 22,-2 13,-3 24,-13l-11 -7c-6,4 -5,4 -15,8 -1,1 -9,2 -11,3l-6 -7 -4 -11 1 -6 3 17z"/>
    <path class="fil0" d="M4173 8917l22 6 6 21c-2,12 -3,7 12,7 0,-33 -12,-33 -46,-33l6 -1z"/>
    <path class="fil0" d="M5193 2498l8 -13c19,0 24,-2 39,-6 -16,-6 -10,-5 -33,-7 -14,26 -11,-1 -14,26z"/>
    <path class="fil0" d="M5827 2972l20 0 0 7 26 0c0,-23 -36,-11 -46,-7z"/>
    <path class="fil0" d="M7893 1939c9,-11 27,-21 40,-27 -31,0 -39,-4 -40,27z"/>
    <path class="fil0" d="M8300 3953c5,-11 7,-12 9,-30 5,-28 -1,-2 -3,-35 -3,20 -6,38 -6,65z"/>
    <path class="fil0" d="M5833 2321c20,0 26,-3 40,-7 -15,-6 -9,-6 -33,-7l-7 14z"/>
    <path class="fil0" d="M8300 3446c11,-24 20,-22 6,-52 -1,23 -6,28 -6,52z"/>
    <path class="fil0" d="M4020 8700c-9,-21 1,-3 -12,-21 -9,-14 0,3 -8,-11 2,21 -3,32 20,32z"/>
    <path class="fil0" d="M8066 2656c7,-11 25,-10 40,-13 -15,-6 -10,-5 -34,-7l-6 20z"/>
    <path class="fil0" d="M5320 2459l4 -7c5,-20 -1,-7 7,-21 35,1 22,-5 36,15l13 0c0,-19 -34,-14 -53,-14 -6,9 -7,11 -7,27z"/>
    <path class="fil0" d="M8313 3183c0,-29 -5,-27 -13,-46 1,20 1,19 5,31 4,13 5,10 8,15z"/>
    <path class="fil0" d="M3000 8003c3,-22 15,-27 34,-33 -33,0 -34,1 -34,33z"/>
    <path class="fil0" d="M7360 2577c10,-8 10,-11 13,-26l-6 0c-13,21 14,-6 -7,7l0 19z"/>
    <path class="fil0" d="M7886 3565c-8,-22 1,-4 -11,-22 -9,-14 -1,4 -9,-11 5,24 1,24 20,33z"/>
    <path class="fil0" d="M4907 9530c-28,-14 4,-10 -40,-13 14,7 0,2 20,6 10,13 -6,3 20,7z"/>
    <path class="fil0" d="M4407 9114l17 4 7 6 5 7 -2 11c-1,11 -3,6 13,6 0,-20 4,-8 -11,-17l-5 -7 -7 -6 -24 -3 7 -1z"/>
    <path class="fil0" d="M7760 2037l-1 -6c2,-21 7,-19 27,-22l14 2 -13 -5c-8,-2 -12,-2 -21,-2 -6,10 -6,16 -6,33z"/>
    <path class="fil0" d="M3240 8121c-6,-13 -5,-13 -26,-13 22,0 -7,-2 8,5 14,7 -4,1 18,8z"/>
    <path class="fil0" d="M5407 2781c-14,-5 -10,-6 -34,-6 17,0 0,-2 7,6l27 0z"/>
    <path class="fil0" d="M8313 1925c0,-12 3,-17 -13,-26 8,19 1,5 8,18 0,1 4,7 5,8z"/>
    <path class="fil0" d="M8300 2452c8,-6 8,-9 13,-20l-13 7 0 13z"/>
    <path class="fil0" d="M6467 2156l26 0c-5,-4 0,-6 -15,-5 -7,0 -4,1 -11,5z"/>
    <path class="fil0" d="M6967 2024l33 -6 -27 0c-12,21 15,-6 -6,6z"/>
    <path class="fil0" d="M3200 7766l-2 -7c5,-17 2,-21 22,-23l7 3c-25,0 -26,2 -27,27z"/>
    <path class="fil0" d="M7033 2551l0 -20 -6 0c6,19 1,7 6,20z"/>
    <path class="fil0" d="M6867 2551l0 -20 -7 0c6,19 1,7 7,20z"/>
    <path class="fil0" d="M8300 2953c5,-11 5,-14 13,-20l-13 6 0 14z"/>
    <path class="fil0" d="M7093 1991l-2 0c12,-23 14,-16 39,-10l-3 4 13 0 -10 -4 -30 -3 -7 13z"/>
   </g>
  </g>
 </g>
</svg>
