<?xml version="1.0" encoding="UTF-8"?>
<!DOCTYPE svg PUBLIC "-//W3C//DTD SVG 1.1//EN" "http://www.w3.org/Graphics/SVG/1.1/DTD/svg11.dtd">
<!-- Creator: CorelDRAW X8 -->
<svg xmlns="http://www.w3.org/2000/svg" xml:space="preserve" width="11in" height="11in" version="1.1" style="shape-rendering:geometricPrecision; text-rendering:geometricPrecision; image-rendering:optimizeQuality; fill-rule:evenodd; clip-rule:evenodd"
viewBox="0 0 11000 11000"
 xmlns:xlink="http://www.w3.org/1999/xlink">
 <defs>
  <style type="text/css">
   <![CDATA[
    .fil0 {fill:#7F8C8D}
   ]]>
  </style>
 </defs>
 <g id="Layer_x0020_1">
  <metadata id="CorelCorpID_0Corel-Layer"/>
  <g id="_2256753754816">
   <g>
    <path class="fil0" d="M6120 1825c-2,22 -1,16 -7,31 -22,8 -33,7 -53,0 -23,1 -236,127 -275,149l-506 288c-19,11 -99,51 -106,63l-6 19c-5,2 -5,3 -19,6 -3,0 -11,0 -15,0 -19,1 7,-4 -12,3l-100 54c-13,10 -7,-1 -8,12 0,8 0,24 -13,27l-40 4c-5,0 -5,-4 -31,8 -13,6 -19,11 -29,17 -35,22 -52,21 -53,38 -3,14 0,24 -19,30 -19,6 -21,4 -21,-11 -22,8 -4,1 -17,8l-86 46c-31,14 -24,14 -24,21 -2,29 -7,35 -31,30 -13,-3 -9,9 -9,-12 -21,8 -112,54 -120,69 0,38 0,44 -47,44l0 -7 -13 0c-15,1 0,-2 -20,6 -5,2 -16,8 -22,11l-668 379c-11,14 -5,-6 -3,11l-7 18c-4,2 -2,3 -19,6 -5,1 -16,1 -21,1 -19,-1 6,-5 -13,1 -23,8 -62,36 -84,46 -13,6 -25,4 -23,22l-7 18c-3,2 -2,3 -19,6 -5,1 -15,0 -21,0 -15,1 0,-2 -20,6 -41,18 -90,47 -120,75 -19,17 8,10 -26,13l0 5882c30,3 17,-10 20,18l53 0c2,-26 11,-26 28,-42 17,-15 24,-24 45,-39 1,-1 2,-3 3,-3 4,13 3,-4 4,-5 7,-8 5,-6 13,-11l0 -19 48 -42 19 -1 202 -199c71,-76 167,-157 203,-197 50,-56 117,-116 173,-168l319 -308c8,-8 9,-10 12,-13 18,-15 1,-6 24,-15 6,-12 -3,1 12,-14 10,-11 7,-9 15,-19 12,-14 22,-20 33,-36l7 -6 7 -7 6 0 0 -6 -6 6 -7 7 -7 6 -20 0c-35,50 -41,36 -106,31 -10,0 -8,-3 -29,17 -12,11 -18,18 -30,29 -21,20 -38,36 -60,56 -42,40 -74,76 -116,115 -41,38 -76,72 -117,110l-567 550c-10,12 -8,6 -8,17 -9,20 3,3 -11,21 -8,9 -25,18 -42,41 0,2 0,3 -1,5 -6,31 9,-9 -6,8 0,19 -29,19 -47,19 -3,-9 -16,-49 0,-57l0 -6 7 -12 0 -2188c0,-15 2,1 -7,-6 0,-9 -1,-41 1,-49 2,-14 4,-4 13,-20l-7 -3287c-13,-23 -12,-3 -14,-44 -1,-17 1,-29 7,-38 25,0 47,-6 47,19l7 7c0,17 -1,10 59,44 33,18 25,2 47,30 7,-2 17,-5 23,-5 13,0 13,3 17,5l7 7 0 6 7 6c8,24 88,44 113,75 21,-7 32,-7 53,0l0 19c0,0 -9,3 20,19l78 40c2,1 9,4 11,5l11 5c25,0 47,-6 47,18 10,4 7,-7 7,13 8,14 88,53 113,63 3,-1 11,-1 14,0 18,3 14,4 19,6l7 6c11,0 7,-2 7,12l0 1c5,15 -9,-6 5,8l115 60c27,0 26,-1 46,6l0 19c6,16 -9,-5 6,9l114 60c4,0 11,0 14,0 18,3 15,4 20,6l6 6c10,4 7,-7 7,13 6,17 88,57 120,69 3,0 11,0 14,0 18,3 14,4 19,6l7 6c10,3 7,-7 7,13 5,15 -9,-6 5,8l45 26c26,14 45,18 63,41 6,-3 16,-6 23,-6 12,0 13,3 17,6l7 6c10,3 6,-7 6,13 6,16 88,56 120,68 4,0 11,0 14,1 18,3 15,3 20,5l6 7c10,3 7,-8 7,12 5,15 54,37 80,50 8,4 8,4 18,9 20,9 -1,1 22,10 3,0 11,0 14,0 18,3 14,4 19,6l7 6c10,4 7,-7 7,13 4,12 -18,-3 16,16 24,13 71,32 90,53 31,0 60,-9 60,18 10,4 7,-7 7,13 12,21 5,6 18,14 11,5 18,9 30,16 26,16 37,18 65,39 8,-14 47,-12 47,12 10,3 7,-7 7,13 9,17 67,41 91,52 19,10 -1,1 22,10 3,0 11,0 14,1 18,3 14,3 19,5l7 7c10,3 7,-8 7,12 0,2 -10,4 20,18l100 57c8,-16 43,-7 46,19 7,20 21,13 52,33 13,8 13,10 28,17 8,4 8,4 18,9 20,9 -1,1 22,10 30,-1 44,0 47,25 13,23 23,15 48,30 13,8 10,8 27,17 22,12 14,3 32,21 3,-1 18,-6 22,-6 27,-1 20,4 24,6l7 7 7 6c8,4 6,-8 7,13 0,26 -9,31 -41,31 -10,0 0,-10 -18,14 -43,58 -35,20 -35,80 28,17 5,14 46,19 23,2 42,3 66,6 29,4 29,13 52,20 23,7 45,4 69,11 2,-14 1,-11 7,-19 25,0 22,0 40,6 6,8 5,6 7,19 15,28 90,17 130,28 23,6 29,22 63,22 17,0 18,-2 30,-9 29,-18 -13,-12 30,-16l0 -75c-28,-1 -21,-4 -41,-5 -23,-2 -25,3 -46,5 -8,-32 -35,-45 -66,-94 -18,-29 -16,-25 -27,-25 -21,-9 -19,-16 -20,-43 -23,-17 -17,-14 -29,-36 -15,-26 -35,-40 -52,-63 -13,-17 -9,-25 -21,-38 -10,-10 -23,-15 -41,-11 -27,7 -21,11 -30,29 -14,27 -8,14 -25,33 -12,13 -14,21 -22,36 -38,-3 -73,-29 -109,-49 -19,-10 -17,-13 -31,-20 -12,9 0,5 -19,11 -4,2 -17,1 -21,1 -7,-17 -6,-14 -7,-37l-108 -61c-16,-11 -22,-13 -38,-20l-109 -61c-19,-10 -17,-14 -31,-21 -17,13 24,13 -34,13 -14,-26 -10,4 -13,-38 -22,-15 -15,-7 -35,-17 -19,-9 -12,-8 -28,-17 -19,-13 -45,-20 -57,-34 -17,12 25,12 -33,12 -15,-26 -11,4 -14,-37 -22,-15 -15,-8 -35,-18 -19,-9 -16,-10 -32,-20 -17,-10 -50,-21 -59,-37 -19,14 25,12 -27,12 -14,-25 -7,2 -13,-31 -23,-15 -15,-8 -36,-17 -18,-9 -12,-8 -27,-18 -20,-12 -45,-19 -57,-34 -17,13 25,12 -34,12 -14,-25 -10,4 -13,-37 -22,-15 -15,-7 -35,-17 -19,-9 -16,-11 -32,-20 -18,-11 -50,-22 -60,-38 -16,13 25,12 -33,12 -6,-14 -5,-9 -7,-31l-63 -34c-11,-8 -18,-10 -30,-16l-33 -12c-10,6 11,1 -20,6 -15,-25 -12,1 -20,-37 -23,-15 -15,-8 -36,-18 -18,-9 -12,-7 -27,-17 -20,-12 -45,-19 -57,-34 -17,13 25,12 -34,12 -14,-25 -10,4 -13,-37 -22,-15 -15,-8 -35,-17 -19,-9 -12,-8 -28,-18 -19,-12 -45,-19 -57,-34 -17,13 25,12 -33,12 -15,-25 -11,4 -14,-37 -22,-15 -15,-7 -35,-17 -19,-9 -12,-8 -28,-18 -19,-12 -44,-19 -57,-34 -16,13 25,13 -33,13 -14,-26 -10,4 -13,-38l-110 -59c-16,-6 -4,-4 -17,-3 -10,6 15,6 -17,6 -16,0 -5,2 -13,-4 -11,-9 -9,-17 -10,-33 -22,-15 -15,-8 -35,-18 -19,-9 -12,-7 -28,-17 -19,-12 -45,-19 -57,-34 -17,13 25,12 -33,12 -14,-25 -17,-1 -20,-43 -16,-7 -22,-7 -34,-13 -12,-7 -13,-11 -27,-18 -17,-11 -41,-18 -53,-32 -16,13 25,12 -33,12 -14,-25 -10,4 -13,-37 -23,-15 -15,-7 -36,-17 -18,-9 -11,-8 -27,-18 -19,-12 -48,-17 -57,-34 -12,9 -1,5 -19,12 -4,1 -17,1 -21,1 -7,-15 -6,-15 0,-31 -40,-29 -54,-24 -77,-41 -17,-13 -11,-2 -17,-22l54 0 20 -19c0,-32 -6,-37 -40,-37 -11,20 9,12 -19,18 -22,6 -12,-2 -15,-12 -28,0 -28,11 -33,31 -29,-2 -40,-7 -53,-25 7,-26 45,-41 73,-50l7 -6c0,-10 -2,-6 13,-6 7,-10 22,-30 27,-38l20 6 6 7c18,-24 32,-24 58,-40l69 -35c0,-17 1,-23 7,-32 5,0 16,0 21,1 29,3 10,0 19,6 19,-24 16,-16 42,-30l91 -52c19,-9 27,-15 45,-26l400 -225c9,-5 13,-7 21,-11l121 -69c0,-15 0,-16 6,-25 9,0 13,0 21,1 1,1 4,1 5,2l8 3c22,-23 35,-23 59,-37 14,-8 14,-11 28,-18 19,-10 17,-5 39,-19 1,-16 1,-17 7,-26l33 7c22,-27 33,-22 60,-38 13,-7 14,-11 27,-18 12,-7 23,-11 40,-19 0,-17 0,-23 7,-32 5,0 16,0 21,1 29,3 10,0 19,6 18,-19 33,-21 56,-35 25,-16 34,-20 64,-34 0,-17 0,-22 6,-31 6,0 16,-1 21,0 30,4 10,0 19,6 15,-18 6,-11 25,-21 10,-5 7,-2 14,-5l59 -33c20,-9 -1,-1 22,-10l0 -31c8,0 21,-1 28,0 28,3 11,1 19,6 17,-21 88,-56 120,-68l7 -32 33 6 7 1c9,-16 102,-66 129,-80 28,-14 45,-26 71,-39l332 -188c2,-1 8,-4 10,-5 18,-8 -7,2 18,-7 1,-14 0,-11 6,-19l27 0c13,-16 41,-27 60,-38 16,-9 12,-10 31,-20 27,-12 17,-5 42,-23l0 -13 34 0c36,2 9,-3 22,10 8,8 10,14 17,22 21,27 16,22 27,56l40 0c8,8 -9,6 7,6 26,-3 26,-20 39,-38l114 -149 0 -32c14,-6 18,-12 40,-12 12,-34 48,-78 74,-106 1,-1 2,-2 3,-3 1,-1 3,-3 4,-4 0,0 28,-22 6,-43 -27,-13 -107,-3 -133,6 -36,13 -10,15 -60,19 -146,11 -57,21 -195,36 -54,6 -145,26 -101,78l33 44c26,31 12,16 16,54z"/>
    <path class="fil0" d="M5607 7031c23,2 17,1 33,7 -3,43 6,18 -20,31 -13,-1 -16,-2 -35,16l-97 98c-45,43 -91,78 -131,127 -44,54 -126,114 -162,154 -54,61 -151,150 -216,210l-40 43c-13,12 -21,20 -34,31l-293 282c-30,26 -25,22 -25,39 26,-7 11,-4 28,-17 6,-5 16,-14 27,-17 34,-11 22,9 71,9 28,-41 126,-128 165,-164 23,-21 32,-36 54,-57l139 -131c62,-68 141,-137 210,-204l326 -313 18 -30c10,-24 4,-7 15,-26 36,0 49,1 60,25 -4,14 -11,5 14,42 11,17 16,29 33,39 45,-10 91,-88 120,-125l109 -141c64,-76 155,-158 30,-153 -40,1 -25,-2 -48,18 -26,22 -9,10 -50,15 -24,2 -29,9 -55,11 0,-32 0,-39 -30,-47 -29,-7 -51,1 -70,10 1,32 7,23 14,50 -16,3 -29,7 -41,11 -17,6 -23,11 -37,15 -34,11 -65,5 -102,11 -72,13 -3,90 -3,90 13,19 6,19 23,41z"/>
    <path class="fil0" d="M6193 3556c0,-16 1,-22 7,-31 43,0 23,1 47,13 19,-3 12,-5 30,-15 45,-26 30,1 87,-32l131 -46c20,-2 39,0 57,-2 27,-3 18,-9 48,-12l0 -75c-27,-2 -26,-9 -41,-10 -22,-1 -21,8 -36,14 -45,15 -36,-17 -76,-22 -2,3 -3,14 -7,18l-40 0c-7,-17 -6,-14 -7,-37 -54,-26 -48,-5 -88,-30l-118 -45c-18,-5 -31,-5 -47,-13 0,0 -57,-40 -87,-12 -16,15 -6,237 -6,294 -1,33 -3,104 50,79 76,-36 57,-17 96,-36z"/>
    <path class="fil0" d="M4587 8069c-7,21 -15,23 -32,39 -5,5 -15,16 -19,19 -22,15 5,4 -29,10 -21,1 -37,25 -40,44 65,5 71,19 106,-31l20 0 7 -6 7 -7 6 -6 7 -6c0,-15 -4,-12 7,-13 0,-34 -5,-2 6,-12l7 -12 27 -1 46 -43c-49,0 -37,-20 -71,-9 -11,3 -21,12 -27,17 -17,13 -2,10 -28,17z"/>
    <path class="fil0" d="M6527 4550c0,50 -9,75 33,75 26,0 1,-9 40,-12l0 -75c-17,-2 -73,-33 -73,12z"/>
    <path class="fil0" d="M6527 3175c0,50 -9,75 33,75 26,0 1,-9 40,-12l0 -75c-17,-2 -73,-33 -73,12z"/>
    <path class="fil0" d="M6527 3969c0,96 6,61 73,56l0 -81c-29,-1 -31,-6 -67,-6 -3,14 -6,14 -6,31z"/>
    <path class="fil0" d="M6553 4819c39,0 4,-9 47,-13l0 -75c-35,-2 -60,-30 -72,14 -8,27 -10,74 25,74z"/>
    <path class="fil0" d="M6527 1994c0,112 17,67 73,62l0 -75c-12,-1 -73,-34 -73,13z"/>
    <path class="fil0" d="M6553 3838l7 0c26,0 1,-10 40,-13l0 -75 -53 -7c-34,-5 -35,95 6,95z"/>
    <path class="fil0" d="M6527 5338c0,103 4,67 73,62l0 -75c-12,-1 -73,-34 -73,13z"/>
    <path class="fil0" d="M6547 2850c34,0 28,-4 53,-6l0 -75c-43,-4 -8,-13 -47,-13 -35,0 -44,94 -6,94z"/>
    <path class="fil0" d="M6553 2463c39,0 4,-10 47,-13l0 -75c-25,-2 -19,-6 -53,-6 -38,0 -29,94 6,94z"/>
    <path class="fil0" d="M6527 1800c0,114 23,66 73,63l0 -75c-26,-2 -73,-28 -73,12z"/>
    <path class="fil0" d="M6547 4225c34,0 28,-4 53,-6l0 -75c-29,-3 -29,-13 -47,-13 -35,0 -44,94 -6,94z"/>
    <path class="fil0" d="M6527 2594l6 62c36,0 41,-4 67,-6l0 -81c-26,-2 -31,-6 -67,-6 -3,14 -6,14 -6,31z"/>
    <path class="fil0" d="M6600 5594l0 -69c-37,-4 -22,-23 -51,-17 -31,8 -37,77 -9,92 19,9 33,-4 60,-6z"/>
    <path class="fil0" d="M5427 3406c0,51 100,54 100,-6 0,-36 -100,-51 -100,6z"/>
    <path class="fil0" d="M6553 4425c39,0 4,-9 47,-12l0 -69c-43,-4 -8,-13 -47,-13 -42,0 -40,94 0,94z"/>
    <path class="fil0" d="M6553 3050c39,0 4,-9 47,-12l0 -69c-43,-4 -8,-13 -47,-13 -42,0 -40,94 0,94z"/>
    <path class="fil0" d="M6553 2263c39,0 4,-10 47,-13l0 -69c-43,-3 -8,-12 -47,-12 -40,0 -42,94 0,94z"/>
    <path class="fil0" d="M6553 3638c39,0 4,-10 47,-13l0 -69c-29,-2 -29,-12 -47,-12 -40,0 -42,94 0,94z"/>
    <path class="fil0" d="M6553 5800c39,0 4,-9 47,-12l0 -69c-33,-3 -60,-30 -74,12 -7,17 -5,69 27,69z"/>
    <path class="fil0" d="M5633 3400c0,17 4,17 7,31 75,17 93,10 93,-37 0,-38 -100,-33 -100,6z"/>
    <path class="fil0" d="M6553 5013c39,0 4,-10 47,-13l0 -69c-36,-3 -57,-30 -73,14 -8,21 -6,68 26,68z"/>
    <path class="fil0" d="M4800 3438c56,12 100,17 100,-32 0,-30 -47,-29 -63,-27 -43,5 -37,18 -37,59z"/>
    <path class="fil0" d="M5220 3406c0,17 3,17 7,32 59,12 86,13 86,-38 0,-39 -93,-39 -93,6z"/>
    <path class="fil0" d="M3660 6831c0,42 107,42 107,7 0,-28 -7,-38 -60,-38 -25,0 -47,7 -47,31z"/>
    <path class="fil0" d="M4600 3388l-7 37c0,33 100,36 100,-12 0,-33 -59,-38 -93,-25z"/>
    <path class="fil0" d="M3960 3413c0,16 3,17 7,31 25,5 71,14 94,-6 15,-12 8,-17 6,-38 -18,-4 -107,-25 -107,13z"/>
    <path class="fil0" d="M3867 6831c0,38 106,45 106,7 0,-28 -3,-38 -46,-38 -27,0 -60,7 -60,31z"/>
    <path class="fil0" d="M4167 3419c0,38 106,45 106,6 0,-27 -3,-37 -46,-37 -27,0 -60,6 -60,31z"/>
    <path class="fil0" d="M4493 6831c0,34 98,55 114,-6 -40,-43 -114,-26 -114,6z"/>
    <path class="fil0" d="M5327 6825c15,61 113,40 113,6 0,-28 -71,-52 -113,-6z"/>
    <path class="fil0" d="M5127 6825c0,38 10,38 46,38 78,0 83,-63 -6,-63 -21,0 -40,6 -40,25z"/>
    <path class="fil0" d="M5840 3394c15,58 100,62 100,0 0,-34 -67,-33 -91,-11 -1,1 -2,3 -3,4l-6 7z"/>
    <path class="fil0" d="M4380 3419c0,32 100,55 100,-6 0,-44 -100,-36 -100,6z"/>
    <path class="fil0" d="M4700 6838c24,25 107,50 107,-13 0,-34 -91,-42 -107,13z"/>
    <path class="fil0" d="M4300 6856c45,10 93,20 93,-43 -11,-3 -138,-44 -93,43z"/>
    <path class="fil0" d="M3454 6825c17,63 106,37 106,6 0,-28 -73,-52 -106,-6z"/>
    <path class="fil0" d="M4080 6831c0,33 100,57 100,-6 0,-35 -100,-35 -100,6z"/>
    <path class="fil0" d="M4913 6825c14,53 102,54 107,-6 -39,-25 -74,-30 -107,6z"/>
    <path class="fil0" d="M5627 6856c3,-26 -1,0 13,-25 -3,-17 0,-14 -7,-25 -38,-8 -82,-13 -93,25 9,32 45,40 87,25z"/>
    <path class="fil0" d="M3753 3419c4,24 13,30 40,32 29,2 50,-6 67,-13l0 -32c-33,-16 -32,-12 -80,-12 -4,22 2,25 -27,25z"/>
    <path class="fil0" d="M5060 3444l0 -69c-46,7 -69,27 -44,59 1,1 3,3 4,4 8,9 15,6 40,6z"/>
    <path class="fil0" d="M5060 3444c36,0 22,4 47,-13l0 -37c-17,-18 -18,-19 -47,-19l0 69z"/>
    <path class="fil0" d="M4507 8137c34,-6 7,5 29,-10 4,-3 14,-14 19,-19 17,-16 25,-18 32,-39 -23,-2 -25,6 -62,41 -18,18 -9,6 -18,27z"/>
    <path class="fil0" d="M3487 9125l0 12 -13 0 6 1 0 12c-18,11 -10,11 -40,12 -8,-21 -7,-22 -7,-50 -16,8 -3,48 0,57 18,0 47,0 47,-19 15,-17 0,23 6,-8 1,-2 1,-3 1,-5 17,-23 34,-32 42,-41 14,-18 2,-1 11,-21l-15 11c-1,1 -2,2 -3,3l-27 25c-1,1 -2,2 -3,3 -1,1 -2,2 -2,3l-3 5z"/>
    <path class="fil0" d="M5607 7175c37,-27 26,-59 81,-37l12 6c-11,-24 -24,-25 -60,-25 -11,19 -5,2 -15,26l-18 30z"/>
    <path class="fil0" d="M4040 3719c-21,-10 -45,-17 -53,-31 3,42 6,18 20,43 58,0 16,1 33,-12z"/>
    <path class="fil0" d="M3533 9181c-8,5 -6,3 -13,11 -1,1 0,18 -4,5 -1,0 -2,2 -3,3 10,-7 5,-6 20,-19l0 0 60 -56 7 -6 -19 1 -48 42 0 19z"/>
    <path class="fil0" d="M3440 3544l0 -13c-7,-18 -12,-44 0,-62 30,1 23,2 40,12l0 0c-11,11 -9,7 7,7l-7 -7c0,-25 -22,-19 -47,-19 -6,9 -8,21 -7,38 2,41 1,21 14,44z"/>
    <path class="fil0" d="M4960 2481l40 -4c13,-3 13,-19 13,-27 -21,7 -23,11 -46,13 -4,4 -6,15 -7,18z"/>
    <path class="fil0" d="M6040 4844c-19,-9 -37,-13 -47,-25 1,23 0,20 7,37 4,0 17,1 21,-1 19,-6 7,-2 19,-11z"/>
    <path class="fil0" d="M5540 4563c-19,-9 -37,-14 -47,-25 3,41 -1,11 14,37 58,0 16,0 33,-12z"/>
    <path class="fil0" d="M4707 4094c-19,-9 -37,-13 -47,-25 3,41 -1,12 13,37 59,0 17,1 34,-12z"/>
    <path class="fil0" d="M5707 4656c-19,-9 -37,-13 -47,-25 3,42 -1,12 13,38 58,0 17,0 34,-13z"/>
    <path class="fil0" d="M4540 4000c-19,-9 -37,-13 -47,-25 3,41 -1,12 14,37 58,0 16,1 33,-12z"/>
    <path class="fil0" d="M3873 3625c-18,-9 -36,-13 -46,-25 3,41 -1,12 13,37 58,0 17,1 33,-12z"/>
    <path class="fil0" d="M4373 3906c-19,-9 -36,-13 -46,-25 3,42 -1,12 13,38 58,0 17,0 33,-13z"/>
    <path class="fil0" d="M5207 4375c-19,-9 -37,-13 -47,-25 3,41 -1,12 13,37 59,0 17,1 34,-12z"/>
    <path class="fil0" d="M4640 2656c0,21 -4,9 9,12 24,5 29,-1 31,-30 -16,5 -31,7 -40,18z"/>
    <path class="fil0" d="M3707 3531c-17,-8 -27,-13 -40,-18 -6,16 -7,16 0,31 4,0 17,0 21,-1 18,-7 7,-3 19,-12z"/>
    <path class="fil0" d="M4200 3819c-12,-18 3,-6 -20,-20 -12,-7 -11,-1 -20,-11 1,16 -1,24 10,33 8,6 -3,4 13,4 32,0 7,0 17,-6z"/>
    <path class="fil0" d="M4807 2563c0,15 2,17 21,11 19,-6 16,-16 19,-30 -16,5 -31,7 -40,19z"/>
    <path class="fil0" d="M6293 5169l14 0 0 -7c28,5 10,1 26,7 0,12 -2,2 14,6 -2,-13 -1,-11 -7,-19 -18,-6 -15,-6 -40,-6 -6,8 -5,5 -7,19z"/>
    <path class="fil0" d="M3433 9106l0 6c0,28 -1,29 7,50 30,-1 22,-1 40,-12l0 -12c-15,7 -17,4 -33,18 -1,-1 -16,-36 -7,-44l0 -12c0,13 2,1 -7,6z"/>
    <path class="fil0" d="M6087 4962l13 1 27 -1 6 0 7 7 7 6c0,3 0,11 -1,14 -3,14 -5,14 -6,17l-20 6c-11,-10 -7,-8 -7,7 32,0 41,-5 41,-31 -1,-21 1,-9 -7,-13l-7 -6 -7 -7c-4,-2 3,-7 -24,-6 -4,0 -19,5 -22,6z"/>
    <path class="fil0" d="M4473 2762l0 -12c-17,0 -13,-4 -13,12l13 0 0 7c47,0 47,-6 47,-44 -15,0 -18,-4 -7,6 -1,15 2,-2 -1,14 -2,13 -10,14 -24,17 -3,1 -11,0 -15,0z"/>
    <path class="fil0" d="M6107 1844l-7 6c-11,5 16,9 -18,5 -13,-2 -9,9 -9,-11 -17,0 -13,-4 -13,12 20,7 31,8 53,0 6,-15 5,-9 7,-31l-7 0 -6 19z"/>
    <path class="fil0" d="M3700 3194c5,0 16,0 21,-1 17,-3 15,-4 19,-6l7 -18c-34,0 -13,-2 -20,6l-15 3c-25,3 -1,1 -12,16z"/>
    <path class="fil0" d="M3533 3287c6,0 16,1 21,0 17,-3 16,-4 19,-6l7 -18c-33,0 -13,-2 -20,6l-14 3c-26,3 -2,1 -13,15z"/>
    <path class="fil0" d="M3440 3531l0 -12 0 -32c11,-6 7,-5 27,-6l13 0 0 0c-17,-10 -10,-11 -40,-12 -12,18 -7,44 0,62z"/>
    <path class="fil0" d="M5033 4275c-16,-5 -30,-7 -40,-19 2,22 1,17 7,31 58,0 17,1 33,-12z"/>
    <path class="fil0" d="M6447 3338l-14 6 -26 6c-7,-15 -3,0 -7,-25l-7 -6c1,23 0,20 7,37l40 0c4,-4 5,-15 7,-18z"/>
    <path class="fil0" d="M4867 4194c-12,-18 3,-6 -20,-20 -12,-7 -11,-1 -20,-11 8,38 5,12 20,37 31,-5 10,0 20,-6z"/>
    <path class="fil0" d="M5620 7069c26,-13 17,12 20,-31 -16,-6 -10,-5 -33,-7l13 7 0 31z"/>
    <path class="fil0" d="M5260 4500c6,0 15,0 21,0 24,4 14,4 19,6l7 6 6 0 0 7c-11,10 -8,6 7,6 0,-20 3,-9 -7,-13 0,-27 -29,-18 -60,-18l7 6z"/>
    <path class="fil0" d="M3440 6906c0,-36 7,-39 7,-75 -9,16 -11,6 -13,20 -2,8 -1,40 -1,49 9,7 7,-9 7,6z"/>
    <path class="fil0" d="M5027 2525l6 -6c5,-11 -1,0 7,-13l20 0 13 -6c-9,-6 11,-2 -19,-6 -5,-1 -15,0 -21,0 -6,9 -6,14 -6,31z"/>
    <path class="fil0" d="M5367 4463c-17,-6 -31,-8 -40,-19 6,33 -1,6 13,31 52,0 8,2 27,-12z"/>
    <path class="fil0" d="M3760 3244l7 -6 6 -7 7 -12 20 6c6,-8 -8,-6 7,-6 -9,-6 10,-3 -19,-6 -5,-1 -16,-1 -21,-1 -6,9 -7,15 -7,32z"/>
    <path class="fil0" d="M3940 3750c2,-2 -7,-4 9,0 17,5 13,4 18,6l6 6 7 0 0 7c-11,10 -9,6 7,6 0,-20 3,-9 -7,-13 0,-24 -22,-18 -47,-18 -11,10 -8,6 7,6z"/>
    <path class="fil0" d="M3607 3394c-2,0 -22,-1 -25,0 -22,5 -4,-6 -9,6 3,10 -7,18 15,12 28,-6 8,2 19,-18z"/>
    <path class="fil0" d="M6193 3556l7 -6c1,-13 1,-11 7,-19l20 6 6 7c0,-11 -2,-6 14,-6 -24,-12 -4,-13 -47,-13 -6,9 -7,15 -7,31z"/>
    <path class="fil0" d="M6433 1788c9,-19 22,-35 40,-44 -22,0 -26,6 -40,12l0 32z"/>
    <path class="fil0" d="M5793 4787l7 7 7 0c-12,10 -9,6 6,6 -3,-26 -38,-35 -46,-19 9,0 4,0 14,2 2,0 5,4 6,2 1,-2 4,2 6,2z"/>
    <path class="fil0" d="M4860 2619l7 -6c1,-14 0,-11 6,-19l27 6 7 -6c-9,-6 10,-3 -19,-6 -5,-1 -16,-1 -21,-1 -7,9 -7,15 -7,32z"/>
    <path class="fil0" d="M4633 8100c-11,10 -6,-22 -6,12 -11,1 -7,-2 -7,13l-7 6 0 6 -6 0 -7 7 -7 6c-11,16 -21,22 -33,36 -8,10 -5,8 -15,19 -15,15 -6,2 -12,14 6,-11 7,-9 15,-17 11,-12 9,-12 18,-22 12,-15 29,-29 47,-42l0 -1c16,-17 0,23 7,-8 0,-2 0,-3 0,-4l13 -6 0 -7 0 -12c9,-6 11,-6 27,-6l7 -7 -27 1 -7 12z"/>
    <path class="fil0" d="M6073 1850l27 0 7 -6 0 -13c-34,0 -13,-1 -20,7 -27,0 -3,-3 -14,12z"/>
    <path class="fil0" d="M5480 4606l0 7c-11,10 -9,6 7,6 0,-20 3,-10 -7,-13 0,-24 -39,-26 -47,-12 35,0 27,0 47,12z"/>
    <path class="fil0" d="M5133 2381c4,0 12,0 15,0 14,-3 14,-4 19,-6l6 -19 -26 13c-27,0 -3,-3 -14,12z"/>
    <path class="fil0" d="M6120 5000l13 0 0 -25 -6 -6 -27 0c15,6 1,2 20,6l0 25z"/>
    <path class="fil0" d="M4473 2756l27 0c4,-4 5,-15 7,-18 -34,0 -13,-2 -20,6 -27,0 -3,-3 -14,12z"/>
    <path class="fil0" d="M5193 2431l7 -6 0 0 6 -19 27 0 7 0c-8,-5 9,-3 -19,-6 -7,-1 -20,0 -28,0l0 31z"/>
    <path class="fil0" d="M5940 4875c34,2 9,0 33,13 -11,10 -8,6 7,6 -3,-25 -17,-26 -47,-25 -11,10 -8,6 7,6z"/>
    <path class="fil0" d="M6433 3344c-11,-14 18,-13 -33,-13l0 -6c4,25 0,10 7,25l26 -6z"/>
    <path class="fil0" d="M4273 3938c27,-1 25,-5 34,12 -12,11 -9,6 6,6l0 -19c-20,-7 -19,-6 -46,-6 -12,11 -9,7 6,7z"/>
    <path class="fil0" d="M3760 3656l13 0c2,-1 -7,-3 10,1 17,4 12,3 17,5l7 7 0 0c-12,10 -9,6 6,6l0 -19c-21,-7 -32,-7 -53,0z"/>
    <path class="fil0" d="M3580 3344c-15,0 -13,-4 -13,6l-7 6c0,-12 -2,-2 13,-6 15,0 2,2 7,-6 26,-8 19,-4 27,-32l20 0 6 7 -6 -7 -20 -6c-5,8 -20,28 -27,38z"/>
    <path class="fil0" d="M3753 3419c29,0 23,-3 27,-25 -26,10 -16,-3 -27,25z"/>
    <path class="fil0" d="M6133 4975c12,5 4,-10 6,9 3,31 1,6 -6,16 0,11 2,6 -13,6l0 6 20 -6c1,-3 3,-3 6,-17 1,-3 1,-11 1,-14l-7 -6 -7 -7 -6 0 0 7 6 6z"/>
    <path class="fil0" d="M4527 2806c8,-10 24,-16 40,-19l-8 -3c-1,-1 -4,-1 -5,-2 -8,-1 -12,-1 -21,-1 -6,9 -6,10 -6,25z"/>
    <path class="fil0" d="M6100 4969l27 0 6 6 0 25 -13 0 0 6c15,0 13,5 13,-6 7,-10 9,15 6,-16 -2,-19 6,-4 -6,-9l-6 -6 0 -7 -27 1 0 6z"/>
    <path class="fil0" d="M4693 2713c9,-10 24,-17 40,-19l-33 -7c-6,9 -6,10 -7,26z"/>
    <path class="fil0" d="M5440 4600c7,1 27,3 27,6 0,13 -3,2 13,7l0 -7c-20,-12 -12,-12 -47,-12l7 6z"/>
    <path class="fil0" d="M4473 2756l0 -6 0 12c4,0 12,1 15,0 14,-3 22,-4 24,-17 3,-16 0,1 1,-14 -15,0 -18,-4 -6,7 -2,3 -3,14 -7,18l-27 0z"/>
    <path class="fil0" d="M4107 3850c7,1 26,3 26,6l14 7 0 -1c-16,-17 0,23 -6,-8 -1,-2 -1,-3 -1,-4l-7 -6 -26 0 0 6z"/>
    <path class="fil0" d="M6420 5006c-6,-18 -3,-11 -12,-27 -9,-15 -4,8 -8,-16 1,27 -1,34 20,43z"/>
    <path class="fil0" d="M5607 4688l26 -1 7 7 0 6c-11,11 -9,6 7,6 0,-20 3,-9 -7,-12l-7 -7c-5,-2 -1,-2 -19,-5 -3,-1 -11,-1 -14,-1 -11,11 -9,7 7,7z"/>
    <path class="fil0" d="M4940 4313l27 -1 6 7 0 6c-11,11 -8,6 7,6 0,-20 3,-9 -7,-12l-6 -7c-5,-2 -2,-2 -20,-5 -3,-1 -10,-1 -14,-1 -11,11 -8,7 7,7z"/>
    <path class="fil0" d="M5107 4406l26 0 7 6 0 7c-11,10 -9,6 7,6 0,-20 3,-9 -7,-13l-7 -6c-5,-2 -1,-3 -19,-6 -3,0 -11,0 -14,0 -11,11 -9,6 7,6z"/>
    <path class="fil0" d="M4607 4125l26 0 7 6 0 7c-11,10 -9,6 7,6 0,-20 3,-10 -7,-13l-7 -6c-5,-2 -1,-3 -19,-6 -3,0 -11,0 -14,0 -11,10 -9,6 7,6z"/>
    <path class="fil0" d="M4440 4031l27 0 6 6 0 7c-11,10 -8,6 7,6 0,-20 3,-9 -7,-13l-6 -6c-5,-2 -2,-3 -20,-6 -3,0 -10,0 -14,0 -11,11 -8,6 7,6z"/>
    <path class="fil0" d="M4940 4319c7,1 27,2 27,6l6 0 0 -6 -6 -7 -27 1 0 6z"/>
    <path class="fil0" d="M4607 4131c7,1 26,3 26,7l7 0 0 -7 -7 -6 -26 0 0 6z"/>
    <path class="fil0" d="M4773 4225c7,1 27,3 27,6l7 0 0 -6 -7 -6 -27 0 0 6z"/>
    <path class="fil0" d="M5607 4694c6,1 26,2 26,6l7 0 0 -6 -7 -7 -26 1 0 6z"/>
    <path class="fil0" d="M4440 4037c41,0 6,7 27,7l6 0 0 -7 -6 -6 -27 0 0 6z"/>
    <path class="fil0" d="M3607 3569c40,0 6,6 26,6l7 0 0 0 0 -6 -7 -7 -26 1 0 6z"/>
    <path class="fil0" d="M5107 4412c40,0 6,7 26,7l7 0 0 -7 -7 -6 -26 0 0 6z"/>
    <path class="fil0" d="M4273 3944c41,0 7,6 27,6l7 0c-9,-17 -7,-13 -34,-12l0 6z"/>
    <path class="fil0" d="M4760 4219l13 0 27 0 7 6 0 6c-12,11 -9,7 6,7 0,-20 4,-10 -6,-13l-7 -6c-4,-3 -5,-6 -17,-6 -7,0 -17,3 -23,6z"/>
    <polygon class="fil0" points="5367,2331 5373,2325 5393,2319 5400,2313 5400,2312 5373,2312 "/>
    <polygon class="fil0" points="5360,2338 5367,2331 5373,2312 5400,2312 5400,2313 5407,2313 5400,2312 5367,2306 "/>
    <path class="fil0" d="M5200 2425c20,-13 5,-10 27,-12l6 -7 -27 0 -6 19z"/>
    <path class="fil0" d="M4107 3844l26 0 7 6c0,1 0,2 1,4 6,31 -10,-9 6,8 0,-14 4,-12 -7,-12l-7 -6c-5,-2 -1,-3 -19,-6 -3,-1 -11,-1 -14,0 -11,10 -9,6 7,6z"/>
    <path class="fil0" d="M5273 4506l27 0 7 6 0 1c-12,10 -9,6 6,6l0 -7 -6 0 -7 -6c-5,-2 5,-2 -19,-6 -6,0 -15,0 -21,0l13 6z"/>
    <path class="fil0" d="M4633 8100l0 12 20 -12 7 -6c-16,0 -18,0 -27,6z"/>
    <path class="fil0" d="M6107 1844l-7 6 -27 0 0 -6c0,20 -4,9 9,11 34,4 7,0 18,-5l7 -6 6 -19c-15,0 -18,-4 -6,6l0 13z"/>
    <path class="fil0" d="M3580 3344c-5,8 8,6 -7,6 40,-17 15,-28 60,-31l-6 -7 -20 0c-8,28 -1,24 -27,32z"/>
    <path class="fil0" d="M4867 2613c8,-11 15,-12 33,-13l-27 -6c-6,8 -5,5 -6,19z"/>
    <path class="fil0" d="M3940 3756l27 0 6 6 0 1c-11,10 -8,6 7,6l0 -7 -7 0 -6 -6c-5,-2 -1,-1 -18,-6 -16,-4 -7,-2 -9,0l0 6z"/>
    <path class="fil0" d="M3487 9137l0 -12c-18,0 -13,-4 -13,12l13 0z"/>
    <path class="fil0" d="M5627 6856c19,-9 12,-2 13,-25 -14,25 -10,-1 -13,25z"/>
    <path class="fil0" d="M5973 4888c-24,-13 1,-11 -33,-13 6,10 0,3 13,6 11,12 -5,2 20,7z"/>
    <path class="fil0" d="M6280 1975c-16,0 1,2 -7,-6l-40 0c23,3 14,6 47,6z"/>
    <path class="fil0" d="M6133 1894c29,-15 -3,-7 34,-13l-34 0 0 13z"/>
    <path class="fil0" d="M3593 3562l14 1 26 -1 7 7 -7 -7c-4,-2 -4,-5 -17,-5 -6,0 -16,3 -23,5z"/>
    <polygon class="fil0" points="6207,3544 6233,3544 6227,3537 6207,3537 "/>
    <path class="fil0" d="M3447 9156l-7 -44c-9,8 6,43 7,44z"/>
    <path class="fil0" d="M5967 1994l7 -12c10,-4 15,-4 26,-7l-27 0c-6,8 -5,5 -6,19z"/>
    <path class="fil0" d="M6200 3550l7 -6 0 -7 20 0 6 7 -6 -7 -20 -6c-6,8 -6,6 -7,19z"/>
    <path class="fil0" d="M3533 9181l0 0c8,-5 19,-21 29,-29 11,-11 18,-20 31,-27l-60 56z"/>
    <path class="fil0" d="M3773 3662l27 0 7 7 -7 -7c-5,-2 0,-1 -17,-5 -17,-4 -8,-2 -10,-1l0 6z"/>
    <path class="fil0" d="M6307 5169l26 0c-16,-6 2,-2 -26,-7l0 7z"/>
    <path class="fil0" d="M5773 4787l20 0 7 7 0 0 7 0 -7 0 -7 -7c-2,0 -5,-4 -6,-2 -1,2 -4,-2 -6,-2 -10,-2 -5,-2 -14,-2l6 6z"/>
    <path class="fil0" d="M3773 3231l-6 7 6 -7 0 0c9,-7 7,9 7,-6l20 0 -20 -6 -7 12z"/>
    <path class="fil0" d="M3807 3669l0 0 -7 -7 -27 0 14 1c10,11 -6,2 20,6z"/>
    <path class="fil0" d="M5307 4513l0 -1 -7 -6 -27 0 14 0c10,12 -6,2 20,7z"/>
    <path class="fil0" d="M3973 3763l0 -1 -6 -6 -27 0 13 0c11,12 -5,2 20,7z"/>
    <path class="fil0" d="M5033 2519c7,-9 13,-11 27,-13l-20 0c-8,13 -2,2 -7,13z"/>
    <polygon class="fil0" points="4633,8112 4633,8119 4633,8119 4653,8100 "/>
    <polygon class="fil0" points="5800,4794 5800,4794 5793,4787 5773,4787 "/>
    <path class="fil0" d="M4620 8125c0,1 0,2 0,4 -7,31 9,-9 -7,8l0 1c10,-8 5,-6 20,-19l0 0 -13 6z"/>
    <path class="fil0" d="M3627 3450c0,-13 -3,-2 13,-6 16,-7 0,8 7,-7l0 -6 -20 19z"/>
    <path class="fil0" d="M3647 3581l-7 -6 0 0c-11,11 -9,6 7,6z"/>
    <path class="fil0" d="M5200 2425l0 0c22,0 -6,2 9,-5 13,-6 -4,-1 18,-7 -22,2 -7,-1 -27,12z"/>
    <path class="fil0" d="M5133 4419c-20,0 14,-7 -26,-7l26 7z"/>
    <path class="fil0" d="M3633 3575c-20,0 14,-6 -26,-6l26 6z"/>
    <path class="fil0" d="M4467 4044c-21,0 14,-7 -27,-7l27 7z"/>
    <path class="fil0" d="M4300 3950c-20,0 14,-6 -27,-6l27 6z"/>
    <path class="fil0" d="M3433 9106c9,-5 7,7 7,-6l0 -6 -7 12z"/>
    <path class="fil0" d="M5467 4606c0,-3 -20,-5 -27,-6l27 6z"/>
    <path class="fil0" d="M4967 4325c0,-4 -20,-5 -27,-6l27 6z"/>
    <path class="fil0" d="M4800 4231c0,-3 -20,-5 -27,-6l27 6z"/>
    <path class="fil0" d="M5633 4700c0,-4 -20,-5 -26,-6l26 6z"/>
    <path class="fil0" d="M4133 3856c0,-3 -19,-5 -26,-6l26 6z"/>
    <path class="fil0" d="M4633 4138c0,-4 -19,-6 -26,-7l26 7z"/>
    <path class="fil0" d="M3440 3519l0 -31c12,-6 8,-4 27,-7 -20,1 -16,0 -27,6l0 32z"/>
    <path class="fil0" d="M3773 3231l0 0c17,-6 3,-4 27,-6l-20 0c0,15 2,-1 -7,6z"/>
    <path class="fil0" d="M5373 2325c13,-5 1,-1 20,-6l-20 6z"/>
    <path class="fil0" d="M3640 3444c16,-7 0,8 7,-7 -7,15 9,0 -7,7z"/>
    <polygon class="fil0" points="5107,3431 5107,3394 "/>
   </g>
  </g>
 </g>
</svg>
