<?xml version="1.0" encoding="UTF-8"?>
<!DOCTYPE svg PUBLIC "-//W3C//DTD SVG 1.1//EN" "http://www.w3.org/Graphics/SVG/1.1/DTD/svg11.dtd">
<!-- Creator: CorelDRAW X7 -->
<svg xmlns="http://www.w3.org/2000/svg" xml:space="preserve" width="6.39999in" height="3.59999in" version="1.1" shape-rendering="geometricPrecision" text-rendering="geometricPrecision" image-rendering="optimizeQuality" fill-rule="evenodd" clip-rule="evenodd"
viewBox="0 0 6400 3600"
 xmlns:xlink="http://www.w3.org/1999/xlink">
 <g id="Layer_x0020_1">
  <metadata id="CorelCorpID_0Corel-Layer"/>
  <g>
   <path fill="white" fill-rule="nonzero" d="M4694 1363c0,-8 1,-15 5,-20 4,-5 9,-7 17,-7l323 0c34,0 66,7 96,23 30,15 56,35 79,62 22,26 40,57 53,92 12,35 19,72 19,112 0,27 -3,53 -10,77 -6,24 -14,47 -25,68 -11,22 -24,41 -40,58 -15,17 -31,32 -49,44l129 289c2,5 5,12 9,19 3,8 5,14 5,20 0,6 -1,11 -5,14 -4,4 -8,5 -14,5l-172 0c-6,0 -11,-2 -16,-6 -4,-3 -7,-9 -8,-16l-122 -271 -80 0 0 268c0,17 -8,25 -23,25l-149 0c-7,0 -12,-2 -16,-6 -4,-4 -6,-10 -6,-19l0 -831zm391 265c0,-12 -2,-24 -6,-36 -3,-12 -9,-23 -15,-33 -7,-10 -15,-18 -24,-25 -9,-7 -20,-11 -31,-13 -9,-1 -18,-1 -26,-2 -8,-1 -17,-1 -27,-1l-68 0 0 218 91 0c6,0 12,0 16,0 5,-1 10,-1 16,-2 11,-2 22,-6 31,-12 9,-7 17,-15 23,-25 7,-9 11,-20 15,-32 3,-12 5,-25 5,-37z"/>
   <path id="1" fill="#848688" d="M4694 1363c0,-8 1,-15 5,-20 4,-5 9,-7 17,-7l323 0c34,0 66,7 96,23 30,15 56,35 79,62 22,26 40,57 53,92 12,35 19,72 19,112 0,27 -3,53 -10,77 -6,24 -14,47 -25,68 -11,22 -24,41 -40,58 -15,17 -31,32 -49,44l129 289c2,5 5,12 9,19 3,8 5,14 5,20 0,6 -1,11 -5,14 -4,4 -8,5 -14,5l-172 0c-6,0 -11,-2 -16,-6 -4,-3 -7,-9 -8,-16l-122 -271 -80 0 0 268c0,17 -8,25 -23,25l-149 0c-7,0 -12,-2 -16,-6 -4,-4 -6,-10 -6,-19l0 -831zm391 265c0,-12 -2,-24 -6,-36 -3,-12 -9,-23 -15,-33 -7,-10 -15,-18 -24,-25 -9,-7 -20,-11 -31,-13 -9,-1 -18,-1 -26,-2 -8,-1 -17,-1 -27,-1l-68 0 0 218 91 0c6,0 12,0 16,0 5,-1 10,-1 16,-2 11,-2 22,-6 31,-12 9,-7 17,-15 23,-25 7,-9 11,-20 15,-32 3,-12 5,-25 5,-37zm-377 -273c0,2 0,5 0,8l0 831c0,3 0,5 0,7 1,1 1,2 2,2 0,1 1,2 2,2l0 0c1,0 2,1 4,1l149 0c3,0 6,-1 7,-2 1,-2 2,-5 2,-10l0 -268 0 -14 14 0 80 0 9 0 4 8 121 272 1 3c1,2 1,3 2,5 1,1 2,2 3,3 1,1 2,2 3,2 1,0 2,1 3,1l172 0c1,0 2,-1 3,-1 1,0 1,0 1,-1 1,0 1,0 1,0 0,-1 0,-3 0,-4 0,-2 0,-4 -1,-6 0,-2 -1,-5 -3,-8 -1,-2 -3,-6 -5,-11 -1,-3 -3,-6 -4,-9l0 0 -129 -288 -5 -10 10 -7c8,-6 16,-12 24,-19 8,-7 16,-15 23,-23 7,-8 14,-17 20,-26 6,-9 12,-19 17,-29 6,-10 10,-21 14,-32 5,-10 8,-22 11,-33 3,-12 5,-24 7,-36 1,-12 2,-25 2,-38 0,-19 -2,-38 -5,-56 -3,-18 -7,-35 -14,-52 -6,-17 -13,-32 -21,-47 -9,-14 -18,-28 -29,-40 -10,-13 -22,-24 -34,-34 -13,-9 -26,-18 -40,-25 -14,-7 -29,-13 -44,-16 -15,-4 -30,-6 -46,-6l-323 0c-2,0 -3,1 -4,1 -1,0 -1,1 -2,1 -1,1 -1,3 -2,4zm389 253c1,6 2,13 2,20 0,6 -1,13 -2,20 -1,7 -2,14 -4,20 -2,7 -4,13 -7,19 -2,7 -6,12 -9,18l0 0c-4,6 -8,11 -12,15 -5,5 -10,9 -15,13l0 0c-6,4 -12,7 -18,10 -6,2 -13,4 -20,5l0 0c-3,0 -6,1 -8,1 -3,0 -5,1 -8,1 -2,0 -4,0 -8,0 -3,0 -7,0 -9,0l-91 0 -14 0 0 -14 0 -218 0 -14 14 0 68 0c4,0 9,0 15,1 5,0 9,0 13,0l0 0c8,1 14,1 21,2l5 0 1 0c7,2 13,4 20,6l0 0c6,3 12,6 17,10l0 0c5,4 10,8 15,13 4,5 9,10 12,16l0 0c4,5 7,11 10,17 3,6 5,12 7,19 2,7 4,13 5,20z"/>
  </g>
  <g>
   <path fill="white" fill-rule="nonzero" d="M2145 1363c0,-8 2,-15 6,-20 4,-5 9,-7 16,-7l333 0c29,0 57,6 83,20 26,13 48,31 68,54 19,24 35,51 46,82 12,31 17,64 17,100 0,30 -4,58 -11,83 -8,26 -19,49 -34,69 24,26 43,57 58,93 14,36 21,75 21,115 0,36 -6,71 -17,103 -12,32 -28,61 -48,85 -20,24 -43,44 -69,58 -27,14 -55,21 -84,21l-363 0c-6,0 -12,-2 -16,-6 -4,-4 -6,-10 -6,-19l0 -831zm404 581c0,-12 -2,-24 -6,-36 -3,-12 -9,-22 -16,-32 -6,-9 -15,-16 -24,-22 -10,-6 -20,-9 -31,-9l-133 0 0 198 133 0c11,0 21,-2 31,-8 9,-6 17,-13 24,-22 7,-10 13,-20 16,-32 4,-12 6,-24 6,-37zm-27 -346c0,-12 -2,-23 -5,-33 -4,-11 -9,-20 -16,-28 -6,-8 -15,-14 -24,-19 -9,-4 -19,-6 -30,-6l-108 0 0 172 106 0c11,0 22,-2 31,-6 10,-4 18,-10 25,-18 6,-8 12,-17 15,-27 4,-11 6,-22 6,-35z"/>
   <path id="1" fill="#848688" d="M2145 1363c0,-8 2,-15 6,-20 4,-5 9,-7 16,-7l333 0c29,0 57,6 83,20 26,13 48,31 68,54 19,24 35,51 46,82 12,31 17,64 17,100 0,30 -4,58 -11,83 -8,26 -19,49 -34,69 24,26 43,57 58,93 14,36 21,75 21,115 0,36 -6,71 -17,103 -12,32 -28,61 -48,85 -20,24 -43,44 -69,58 -27,14 -55,21 -84,21l-363 0c-6,0 -12,-2 -16,-6 -4,-4 -6,-10 -6,-19l0 -831zm404 581c0,-12 -2,-24 -6,-36 -3,-12 -9,-22 -16,-32 -6,-9 -15,-16 -24,-22 -10,-6 -20,-9 -31,-9l-133 0 0 198 133 0c11,0 21,-2 31,-8 9,-6 17,-13 24,-22 7,-10 13,-20 16,-32 4,-12 6,-24 6,-37zm-27 -346c0,-12 -2,-23 -5,-33 -4,-11 -9,-20 -16,-28 -6,-8 -15,-14 -24,-19 -9,-4 -19,-6 -30,-6l-108 0 0 172 106 0c11,0 22,-2 31,-6 10,-4 18,-10 25,-18 6,-8 12,-17 15,-27 4,-11 6,-22 6,-35zm-362 -242c-1,2 -1,4 -1,7l0 831c0,3 0,5 1,7 0,1 1,2 1,2 1,1 2,2 2,2l0 0c1,0 3,1 4,1l363 0c13,0 27,-2 39,-5 13,-4 26,-9 38,-15l0 0c13,-7 24,-15 35,-24 11,-9 21,-19 31,-31l0 0c9,-11 18,-24 25,-37 8,-14 14,-28 20,-44 5,-15 9,-31 12,-47l0 0c3,-17 4,-33 4,-51 0,-19 -1,-38 -5,-56 -3,-19 -8,-36 -15,-54 -7,-17 -15,-33 -24,-48l0 0c-9,-15 -20,-28 -31,-41l-7 -8 6 -9c7,-10 13,-20 18,-31 5,-11 10,-22 13,-34 4,-12 7,-24 9,-38 2,-13 2,-26 2,-41 0,-17 -1,-34 -4,-49 -2,-16 -6,-32 -12,-46 -5,-15 -11,-29 -19,-42 -7,-13 -15,-25 -25,-36 -9,-11 -19,-20 -29,-29 -11,-9 -23,-16 -35,-22 -12,-6 -24,-11 -37,-14 -13,-3 -26,-5 -39,-5l-333 0c-1,0 -2,1 -3,1 -1,0 -1,1 -2,2 -1,1 -1,2 -2,4zm401 568c2,7 2,13 2,20 0,7 0,14 -2,21 -1,7 -2,14 -4,20 -2,7 -5,13 -8,19 -3,6 -7,12 -11,17l0 0c-4,5 -8,10 -13,15 -5,4 -10,8 -15,11l0 0c-12,7 -25,10 -38,10l-133 0 -14 0 0 -14 0 -198 0 -14 14 0 133 0c7,0 13,1 20,3 6,1 12,4 18,8l0 0c6,3 11,7 16,12l0 0c4,4 9,9 13,14 3,5 7,11 10,17 3,6 6,13 8,19 2,7 3,13 4,20zm-26 -346c1,7 1,13 1,20 0,7 0,14 -2,20 -1,7 -2,13 -5,19 -2,6 -4,12 -7,17 -3,5 -7,10 -11,15 -4,5 -8,9 -13,12 -5,4 -10,7 -16,9 -6,3 -12,5 -18,6 -6,1 -12,2 -19,2l-106 0 -14 0 0 -14 0 -172 0 -14 14 0 108 0c6,0 12,0 19,2l-1 0c7,1 13,3 18,6 6,3 11,6 16,10 5,3 9,8 13,12l0 0c4,5 7,10 10,15 3,5 6,11 8,17 2,6 4,12 5,18z"/>
  </g>
  <g>
   <path fill="white" fill-rule="nonzero" d="M3167 1359c0,-3 1,-5 3,-8 2,-3 4,-5 7,-8 2,-2 5,-4 8,-5 3,-2 6,-2 9,-2l128 0c5,0 10,2 14,6 4,4 7,8 9,11l13 34 262 806c3,8 2,14 -1,19 -4,5 -10,7 -19,7l-144 0c-7,0 -13,-1 -17,-5 -5,-3 -8,-9 -10,-17 -7,-20 -13,-40 -20,-60 -6,-20 -12,-40 -19,-60l-265 0c-7,20 -13,40 -19,60 -7,20 -13,40 -20,60 -4,15 -13,22 -25,22l-148 0c-6,0 -11,-2 -15,-6 -5,-3 -5,-9 -3,-17l272 -837zm91 254c-7,21 -13,42 -19,66 -7,23 -13,47 -20,71 -6,23 -12,47 -19,70 -6,23 -13,45 -19,65l153 0 -76 -272z"/>
   <path id="1" fill="#848688" d="M3167 1359c0,-3 1,-5 3,-8 2,-3 4,-5 7,-8 2,-2 5,-4 8,-5 3,-2 6,-2 9,-2l128 0c5,0 10,2 14,6 4,4 7,8 9,11l13 34 262 806c3,8 2,14 -1,19 -4,5 -10,7 -19,7l-144 0c-7,0 -13,-1 -17,-5 -5,-3 -8,-9 -10,-17 -7,-20 -13,-40 -20,-60 -6,-20 -12,-40 -19,-60l-265 0c-7,20 -13,40 -19,60 -7,20 -13,40 -20,60 -4,15 -13,22 -25,22l-148 0c-6,0 -11,-2 -15,-6 -5,-3 -5,-9 -3,-17l272 -837zm91 254c-7,21 -13,42 -19,66 -7,23 -13,47 -20,71 -6,23 -12,47 -19,70 -6,23 -13,45 -19,65l153 0 -76 -272zm-77 -252c0,0 -1,0 -1,0l0 2 -272 837 0 0c0,2 0,3 0,4 0,0 1,1 2,1 1,0 2,1 3,1l148 0c3,0 5,-1 7,-3 2,-1 4,-5 5,-9l0 -1c3,-8 6,-18 10,-30 4,-13 7,-23 9,-30l0 0c4,-12 7,-22 10,-30 1,-4 5,-16 10,-30l3 -10 10 0 265 0 10 0 3 10 10 30 0 0 9 30c5,14 8,25 10,30 2,7 6,17 10,30l0 1c1,2 2,5 3,6l0 1c1,1 2,2 2,2l0 0c1,1 2,2 3,2 2,0 4,1 6,1l144 0c3,0 5,-1 6,-1 1,-1 1,-1 2,-1 0,-1 0,-1 0,-2l0 0c0,-1 0,-3 -1,-5l0 0 -262 -806 -12 -32c-1,-1 -2,-2 -2,-3l0 0c-2,-1 -3,-3 -5,-5 0,0 -1,-1 -2,-1l0 0c0,0 -1,-1 -2,-1l-128 0c-1,0 -1,0 -1,1 -1,0 -1,0 -2,0 -1,0 -2,1 -2,1 -1,1 -2,2 -3,3l0 0c-1,0 -2,1 -2,2 -1,1 -2,2 -2,3l0 0c-1,1 -1,1 -1,2l0 0zm54 280c3,-12 7,-23 10,-32l26 1 77 271 5 18 -19 0 -153 0 -19 0 6 -18c3,-11 6,-22 9,-32 3,-10 7,-21 10,-33 2,-9 6,-21 9,-35 4,-15 8,-26 10,-35 2,-9 6,-21 10,-36 4,-15 7,-25 9,-35 3,-11 7,-23 10,-34z"/>
  </g>
  <g>
   <path fill="white" fill-rule="nonzero" d="M4036 1359c0,-3 1,-5 3,-8 2,-3 4,-5 7,-8 2,-2 5,-4 8,-5 3,-2 6,-2 9,-2l128 0c5,0 10,2 14,6 4,4 7,8 9,11l13 34 262 806c3,8 2,14 -1,19 -4,5 -10,7 -19,7l-144 0c-7,0 -13,-1 -17,-5 -5,-3 -8,-9 -10,-17 -7,-20 -13,-40 -20,-60 -6,-20 -12,-40 -19,-60l-265 0c-7,20 -13,40 -19,60 -7,20 -13,40 -20,60 -4,15 -13,22 -25,22l-148 0c-6,0 -11,-2 -15,-6 -5,-3 -5,-9 -3,-17l272 -837zm91 254c-7,21 -13,42 -19,66 -7,23 -13,47 -20,71 -6,23 -12,47 -19,70 -6,23 -13,45 -19,65l153 0 -76 -272z"/>
   <path id="1" fill="#848688" d="M4036 1359c0,-3 1,-5 3,-8 2,-3 4,-5 7,-8 2,-2 5,-4 8,-5 3,-2 6,-2 9,-2l128 0c5,0 10,2 14,6 4,4 7,8 9,11l13 34 262 806c3,8 2,14 -1,19 -4,5 -10,7 -19,7l-144 0c-7,0 -13,-1 -17,-5 -5,-3 -8,-9 -10,-17 -7,-20 -13,-40 -20,-60 -6,-20 -12,-40 -19,-60l-265 0c-7,20 -13,40 -19,60 -7,20 -13,40 -20,60 -4,15 -13,22 -25,22l-148 0c-6,0 -11,-2 -15,-6 -5,-3 -5,-9 -3,-17l272 -837zm91 254c-7,21 -13,42 -19,66 -7,23 -13,47 -20,71 -6,23 -12,47 -19,70 -6,23 -13,45 -19,65l153 0 -76 -272zm-77 -252c-1,0 -1,0 -1,0l0 2 -272 837 0 0c0,2 0,3 0,4 0,0 1,1 2,1 0,0 2,1 3,1l148 0c3,0 5,-1 7,-3 2,-1 4,-5 5,-9l0 -1c2,-8 6,-18 10,-30 3,-10 6,-20 9,-30l0 0c3,-8 6,-19 10,-30l0 0c1,-4 5,-16 9,-30l4 -10 10 0 265 0 10 0 3 10 10 30 0 0 9 30c5,14 8,25 10,30 2,7 5,17 10,30l0 1c1,2 2,5 3,6l0 1c1,1 1,2 2,2l0 0c1,1 2,2 3,2 2,0 4,1 6,1l144 0c3,0 5,-1 6,-1 1,-1 1,-1 2,-1 0,-1 0,-1 0,-2l0 0c0,-1 0,-3 -1,-5l0 0 -262 -806 -12 -32c-1,-1 -2,-2 -2,-3l0 0c-2,-1 -3,-3 -5,-5 0,0 -1,-1 -2,-1l0 0c0,0 -1,-1 -2,-1l-128 0c-1,0 -1,0 -1,1 -1,0 -1,0 -2,0 -1,0 -2,1 -2,1 -1,1 -2,2 -3,3l0 0c-1,0 -2,1 -2,2 -1,1 -2,2 -2,3 -1,0 -1,1 -1,2zm54 280c3,-12 7,-23 9,-32l27 1 77 271 5 18 -19 0 -153 0 -19 0 5 -18c4,-11 7,-22 10,-32 3,-10 6,-21 10,-33 2,-9 6,-21 9,-35 4,-15 8,-26 10,-35 2,-9 6,-21 9,-36 5,-15 8,-25 10,-35 3,-11 7,-23 10,-34z"/>
  </g>
  <g>
   <polygon fill="white" points="1919,1081 2021,1081 2021,2474 1919,2474 "/>
   <path id="1" fill="#373435" d="M1919 1081l102 0 0 0 0 0 0 1393 0 0 0 0 -102 0 0 0 0 0 0 -1393 0 0 0 0zm0 0l102 0 0 1393 -102 0 0 -1393z"/>
  </g>
  <g>
   <path fill="white" fill-rule="nonzero" d="M1325 2374l0 0 -40 -119 -21 0 51 139 20 0 51 -139 -21 0 -40 119zm95 -82l-17 0 0 102 17 0 0 -102zm0 -18l0 -19 -17 0 0 19 17 0zm45 61c0,-15 10,-27 26,-27l7 0 0 -18c-2,0 -3,0 -5,0 -13,0 -22,7 -28,19l-1 0 0 -17 -16 0 0 102 17 0 0 -59zm91 -28l0 -15 -17 0 0 -28 -17 0 0 28 -14 0 0 15 14 0 0 67c0,12 4,21 21,21 1,0 6,0 13,-1l0 -13 -6 0c-4,0 -11,0 -11,-8l0 -66 17 0zm99 87l0 -102 -17 0 0 56c0,15 -7,34 -28,34 -11,0 -20,-5 -20,-22l0 -68 -17 0 0 74c0,24 18,31 33,31 16,0 25,-6 32,-18l1 0 0 15 16 0zm41 -71c1,-7 3,-19 23,-19 16,0 24,6 24,16 0,10 -5,12 -9,12l-28 4c-29,3 -31,23 -31,32 0,17 13,29 32,29 19,0 30,-9 36,-16 1,7 3,15 18,15 4,0 7,-1 10,-2l0 -12c-2,0 -4,0 -6,0 -3,0 -5,-1 -5,-6l0 -58c0,-26 -30,-28 -38,-28 -25,0 -41,9 -42,33l16 0zm46 36c0,14 -15,24 -31,24 -13,0 -19,-7 -19,-18 0,-13 14,-15 22,-16 21,-3 26,-5 28,-7l0 17zm64 -104l-17 0 0 139 17 0 0 -139z"/>
   <path id="1" fill="#373435" d="M1325 2374l0 0 -40 -119 -21 0 51 139 20 0 51 -139 -21 0 -40 119zm95 -82l-17 0 0 102 17 0 0 -102zm0 -18l0 -19 -17 0 0 19 17 0zm386 -19l-17 0 0 139 17 0 0 -139zm-481 119l0 0 40 -119 0 0 21 0 0 0 0 0 -51 139 0 0 0 0 -20 0 0 0 0 0 -51 -139 0 0 0 0 21 0 0 0 0 0 40 119zm40 -119l0 0zm38 37l17 0 0 0 0 0 0 102 0 0 0 0 -17 0 0 0 0 0 0 -102 0 0 0 0zm17 -37l0 19 0 0 0 0 -17 0 0 0 0 0 0 -19 0 0 0 0 17 0 0 0 0 0zm76 35l0 0 0 0 -1 0 1 0c0,0 1,0 2,0 -1,0 -1,0 -2,0zm-6 0l0 0c-10,1 -17,7 -23,15 3,-4 6,-7 10,-10 4,-3 8,-5 14,-5l-1 0zm-17 25c-5,5 -8,12 -8,20 0,-14 10,-26 24,-27 -7,0 -12,3 -16,7zm-8 20l0 0 0 59 0 0 0 0 -17 0 0 0 0 0 0 -102 0 0 0 0 16 0 0 0 0 0 0 17 1 0 0 0 0 0 -1 0 0 -17 -16 0 0 102 17 0 0 -59 0 0zm0 -26c0,-1 1,-2 1,-2 0,0 -1,1 -1,2zm26 -19c1,0 1,0 2,0l1 0 -1 0c-1,0 -1,0 -2,0zm7 0l0 0 0 0 0 0 0 18 0 0 0 0 -7 0c0,0 -1,0 -2,0 1,0 2,0 2,0l7 0 0 -18 0 0zm38 105l0 0c1,0 2,0 3,0 -6,0 -10,-2 -13,-6 -2,-2 -3,-6 -4,-9 2,7 5,13 14,15zm4 0l0 0c1,0 2,0 2,0l1 0c0,0 1,0 1,0 0,0 -1,0 -1,0 -2,0 -3,0 -4,0l1 0zm2 -16l0 0c-1,-1 -2,-1 -2,-2l0 -1c-1,-1 -1,-2 -1,-3l0 -66 17 0 0 -15 -17 0 0 -28 -17 0 0 28 -14 0 0 15 14 0 0 67c0,2 0,4 0,6 0,-2 0,-4 0,-6l0 -67 -14 0 0 0 0 0 0 -15 0 0 0 0 14 0 0 -28 0 0 0 0 17 0 0 0 0 0 0 28 17 0 0 0 0 0 0 15 0 0 0 0 -17 0 0 66c0,8 7,8 11,8l6 0 0 0 0 0 0 13 0 0 0 0c-3,0 -6,1 -8,1l0 0c2,0 4,-1 8,-1l0 -13 -6 0 -1 0c-1,0 -3,0 -4,-1 0,0 -1,0 -1,0 -1,0 -1,0 -2,-1zm31 -10l0 1 0 0 0 0 0 1 0 1 0 0 0 1 1 0 0 0 0 1 0 0 0 1c4,17 19,22 32,22 1,0 2,0 3,0 -1,0 -2,0 -3,0 -8,0 -18,-2 -25,-9 -5,-4 -8,-12 -8,-22l0 -74 0 0 0 0 17 0 0 0 0 0 0 68c0,8 2,13 5,16 -3,-3 -5,-8 -5,-16l0 -68 -17 0 0 74c0,1 0,2 0,3zm82 -77l0 102 0 0 0 0 -16 0 0 0 0 0 0 -15 -1 0c-3,6 -7,10 -13,13 -3,2 -6,4 -10,4 11,-2 17,-8 23,-17l1 0 0 15 16 0 0 -102 -17 0 0 56c0,9 -2,18 -8,25 6,-7 8,-16 8,-25l0 -56 0 0 0 0 17 0 0 0 0 0zm-40 104c-1,0 -2,1 -3,1 1,0 2,-1 3,-1zm-3 1c-1,0 -2,0 -3,0 1,0 2,0 3,0zm-17 -21l0 1c3,4 9,5 15,5l1 0 -1 0c-6,0 -12,-1 -15,-6zm16 6c2,0 3,0 5,0 -2,0 -3,0 -5,0zm5 0c1,0 1,-1 2,-1 -1,0 -1,1 -2,1zm2 -1c5,-1 9,-4 12,-8l0 0c-3,4 -7,7 -12,8zm86 -45l0 0c-1,0 -2,0 -3,1l0 0c-2,0 -4,0 -5,1l0 0 -1 0 0 0c-7,3 -12,7 -15,11l0 0 0 0 0 1c-1,0 -1,1 -1,1l0 0c-4,6 -4,13 -4,17 0,2 0,5 1,7 -1,-2 -1,-5 -1,-7 0,-5 0,-12 5,-18 4,-7 11,-12 26,-14l28 -4c2,0 4,0 6,-2 -2,2 -4,2 -6,2l-28 4 -2 0zm3 61l0 0c2,0 5,0 7,0 -3,0 -5,0 -7,0 -10,0 -18,-3 -23,-8 -4,-4 -7,-8 -8,-14 3,14 15,22 31,22l0 0zm52 -1l0 0c1,0 2,0 2,0 2,0 3,0 4,0 -1,0 -2,0 -4,0 -1,0 -2,0 -3,0 0,0 1,0 1,0zm11 -14l0 0 0 0 1 0 0 0 0 0 0 12 0 0 0 0c-1,0 -2,1 -2,1l-1 0c1,0 2,-1 3,-1l0 -12 -1 0zm-2 0l-1 0 0 0 0 0 0 0 0 0 0 0 0 0 0 0 0 0 -1 0 0 0 0 0 0 0 0 0 0 0 0 0 -1 0c-3,0 -5,-1 -5,-6l0 -58c0,-1 0,-1 -1,-2l0 0 0 -1 0 0c0,-2 0,-4 -1,-5l0 -1c0,0 0,-1 -1,-2l0 0c0,-2 -1,-3 -2,-4l0 0c0,-1 -1,-1 -2,-2l0 0c0,-1 0,-1 -1,-2l0 0 0 0 -1 0c-3,-3 -7,-5 -11,-7 3,2 7,3 10,5 5,5 10,11 10,21l0 58c0,3 0,4 1,5 1,1 2,1 4,1 1,0 2,0 3,0 0,0 1,0 2,0 -1,0 -2,0 -2,0zm-81 -80l0 0c-1,1 -2,2 -2,3 -1,1 -1,1 -1,2 -1,1 -2,3 -3,6l0 0 0 1c2,-6 5,-11 9,-15 -1,1 -2,2 -3,3zm-6 12l0 1 0 1 0 0 -1 1c0,2 0,3 0,5l0 0 0 1 0 0 0 0 16 0 0 -1 0 1 0 0 0 0 -16 0 0 0 0 0c0,-3 0,-6 1,-9l0 0zm19 -3c-2,2 -3,5 -4,8 2,-6 5,-12 14,-14 3,-1 6,-1 9,-1 16,0 24,6 24,16 0,1 0,2 0,3 -1,4 -2,6 -3,7l0 0c2,-2 3,-5 3,-10 0,-5 -2,-9 -6,-12 -4,-3 -10,-4 -18,-4 -10,0 -15,3 -19,7zm-4 8c0,1 0,2 0,3 0,-1 0,-2 0,-3zm-6 -20c0,-1 1,-1 2,-2 5,-3 11,-6 19,-7 -9,1 -16,4 -21,9zm21 -9c3,0 7,0 11,0 3,0 10,0 18,2 -8,-2 -15,-2 -18,-2l-1 0c-2,0 -4,0 -7,0 -1,0 -2,0 -3,0zm57 105c-1,0 -2,0 -3,1 1,-1 2,-1 3,-1zm-10 1c-2,0 -3,0 -4,-1 1,1 2,1 4,1zm-4 -1c0,0 -1,0 -1,0 0,0 1,0 1,0zm-1 0c-3,-1 -5,-2 -6,-4 -3,-3 -3,-7 -4,-10 -3,3 -7,7 -13,10 -1,1 -1,1 -2,1 1,0 2,0 3,-1 5,-3 9,-7 12,-10 1,5 2,11 10,14zm-27 -2c0,0 -1,1 -1,1 0,0 1,-1 1,-1zm-2 1c-1,1 -2,1 -3,1 1,0 2,0 3,-1zm-5 2c-1,0 -2,0 -3,0 1,0 2,0 3,0zm-3 0c-1,0 -2,1 -2,1l1 -1 1 0zm3 -48l0 0 1 0 1 0c5,-1 9,-2 12,-2 -4,1 -10,2 -19,3l-2 0 2 0 5 -1zm14 28c4,-3 7,-7 8,-11 -4,11 -17,18 -30,18 -13,0 -19,-7 -19,-18 0,0 0,-1 1,-1 -1,0 -1,1 -1,1 0,6 2,10 5,13 3,3 8,5 14,5 8,0 16,-3 22,-7zm8 -11c1,-1 1,-2 1,-3 0,1 0,2 -1,3zm1 -3c0,-1 0,-2 0,-3l0 -17c-1,1 -3,2 -7,3l-1 0c1,0 2,0 3,0 3,-1 4,-2 5,-3l0 17c0,1 0,2 0,3zm-30 -13c-3,1 -7,1 -10,3 1,-1 1,-1 2,-1 2,-1 5,-2 8,-2zm-10 3c0,0 -1,0 -1,0 0,0 1,0 1,0zm-2 1c-1,0 -1,0 -1,0 0,0 0,0 1,0zm-1 0c-1,1 -2,1 -2,2 0,-1 1,-1 2,-2zm-3 2c-1,1 -1,2 -2,4 0,-1 1,-2 1,-2 0,-1 1,-1 1,-2zm-2 4c0,0 -1,1 -1,2 0,-1 1,-2 1,-2zm-1 2c0,1 0,2 0,3 0,-1 0,-2 0,-3zm96 -106l17 0 0 0 0 0 0 139 0 0 0 0 -17 0 0 0 0 0 0 -139 0 0 0 0z"/>
  </g>
  <path fill="white" fill-rule="nonzero" stroke="#848688" stroke-width="13.8858" d="M1269 1676c12,46 26,91 42,135 16,45 35,87 56,128 21,40 45,77 71,112 26,34 55,63 86,88 32,25 66,45 103,59 37,14 77,21 120,21 8,0 15,-1 21,-5 7,-3 13,-8 18,-13 5,-6 8,-13 11,-21 3,-8 4,-16 4,-25l0 -479 -107 0 0 408c-26,0 -51,-7 -75,-21 -24,-13 -47,-32 -69,-54 -21,-23 -41,-48 -59,-77 -19,-29 -35,-58 -49,-89 -15,-30 -27,-60 -37,-89 -10,-29 -17,-55 -22,-78l-114 0z"/>
  <g>
   <path fill="white" fill-rule="nonzero" d="M2169 2273l35 0c21,0 29,7 29,20 0,17 -11,23 -30,23l-34 0 0 -43zm-18 123l60 0c31,0 47,-19 47,-41 0,-24 -16,-30 -25,-34 15,-7 18,-20 18,-29 0,-19 -13,-36 -39,-36l-61 0 0 140zm18 -65l38 0c15,0 32,4 32,23 0,16 -10,26 -29,26l-41 0 0 -49zm134 -6c2,-7 4,-19 24,-19 16,0 24,5 24,16 0,10 -5,12 -9,12l-28 4c-29,3 -31,23 -31,32 0,17 13,29 31,29 20,0 31,-9 37,-17 1,8 3,16 18,16 4,0 7,-1 10,-2l0 -12c-2,0 -4,0 -6,0 -3,0 -6,-1 -6,-6l0 -58c0,-26 -29,-29 -37,-29 -25,0 -42,10 -42,34l15 0zm47 36c0,13 -15,24 -31,24 -13,0 -19,-7 -19,-18 0,-13 14,-15 22,-16 21,-3 26,-5 28,-7l0 17zm130 -38c0,-5 -2,-32 -39,-32 -20,0 -38,11 -38,33 0,14 9,21 24,25l19 4c15,4 21,7 21,15 0,11 -12,16 -24,16 -24,0 -26,-13 -27,-21l-16 0c0,13 3,36 43,36 23,0 41,-13 41,-34 0,-13 -8,-21 -29,-26l-17 -5c-13,-3 -18,-5 -18,-13 0,-13 14,-15 20,-15 21,0 24,11 24,17l16 0zm51 -29l-18 0 0 102 18 0 0 -102zm0 -18l0 -20 -18 0 0 20 18 0zm115 53c-1,-18 -11,-38 -38,-38 -34,0 -49,26 -49,57 0,29 17,51 46,51 29,0 39,-23 41,-39l-16 0c-3,16 -13,24 -25,24 -23,0 -28,-21 -28,-39 0,-18 7,-38 28,-38 15,0 22,8 25,22l16 0zm142 26l13 41 21 0 -51 -140 -21 0 -52 140 19 0 15 -41 56 0zm-51 -16l23 -62 0 0 21 62 -44 0zm186 -10c-1,-18 -11,-38 -38,-38 -34,0 -49,26 -49,57 0,29 17,51 46,51 29,0 39,-23 41,-39l-16 0c-3,16 -13,24 -25,24 -23,0 -28,-21 -28,-39 0,-18 7,-38 28,-38 15,0 22,8 25,22l16 0zm21 16c0,26 15,54 47,54 33,0 48,-28 48,-54 0,-26 -15,-54 -48,-54 -32,0 -47,28 -47,54zm18 0c0,-13 5,-39 29,-39 25,0 30,26 30,39 0,14 -5,39 -30,39 -24,0 -29,-25 -29,-39zm188 51l0 -102 -17 0 0 56c0,15 -6,34 -28,34 -11,0 -20,-5 -20,-22l0 -68 -17 0 0 73c0,25 18,32 33,32 17,0 26,-6 33,-18l0 0 0 15 16 0zm110 -73c0,-5 -3,-32 -39,-32 -20,0 -38,11 -38,33 0,14 9,21 23,25l20 4c14,4 20,7 20,15 0,11 -11,16 -23,16 -24,0 -27,-13 -27,-21l-17 0c1,13 4,36 44,36 23,0 40,-13 40,-34 0,-13 -7,-21 -28,-26l-17 -5c-14,-3 -19,-5 -19,-13 0,-13 15,-15 20,-15 22,0 24,11 24,17l17 0zm70 -14l0 -15 -16 0 0 -28 -18 0 0 28 -13 0 0 15 13 0 0 67c0,12 4,21 21,21 2,0 7,0 13,-1l0 -13 -6 0c-4,0 -10,0 -10,-8l0 -66 16 0zm44 -15l-17 0 0 102 17 0 0 -102zm0 -18l0 -20 -17 0 0 20 17 0zm115 53c-1,-18 -11,-38 -38,-38 -33,0 -49,26 -49,57 0,29 17,51 46,51 30,0 40,-23 41,-39l-16 0c-3,16 -13,24 -24,24 -24,0 -28,-21 -28,-39 0,-18 7,-38 28,-38 14,0 22,8 24,22l16 0zm142 26l14 41 20 0 -50 -140 -22 0 -52 140 19 0 15 -41 56 0zm-50 -16l22 -62 1 0 20 62 -43 0zm192 -12c0,-29 -20,-36 -36,-36 -17,0 -27,12 -30,18l-1 0 0 -15 -16 0 0 102 17 0 0 -55c0,-28 17,-34 27,-34 17,0 22,9 22,26l0 63 17 0 0 -69zm50 -2c1,-7 4,-19 24,-19 16,0 23,5 23,16 0,10 -4,12 -8,12l-29 4c-28,3 -31,23 -31,32 0,17 14,29 32,29 20,0 30,-9 37,-17 1,8 3,16 18,16 4,0 7,-1 9,-2l0 -12c-1,0 -4,0 -5,0 -4,0 -6,-1 -6,-6l0 -58c0,-26 -29,-29 -38,-29 -25,0 -41,10 -42,34l16 0zm47 36c0,13 -15,24 -31,24 -13,0 -19,-7 -19,-18 0,-13 14,-15 22,-16 21,-3 25,-5 28,-7l0 17zm73 -105l-17 0 0 140 17 0 0 -140zm68 121l0 0 -27 -83 -20 0 38 105c-8,21 -9,23 -18,23 -5,0 -8,-1 -10,-1l0 15c2,1 4,2 7,2 22,0 24,-3 40,-44 13,-33 24,-66 36,-100l-19 0 -27 83zm141 -54c0,-5 -2,-32 -39,-32 -20,0 -38,11 -38,33 0,14 9,21 23,25l20 4c15,4 20,7 20,15 0,11 -11,16 -23,16 -24,0 -26,-13 -27,-21l-16 0c0,13 3,36 43,36 23,0 41,-13 41,-34 0,-13 -8,-21 -29,-26l-17 -5c-13,-3 -19,-5 -19,-13 0,-13 15,-15 21,-15 21,0 24,11 24,17l16 0zm50 -29l-17 0 0 102 17 0 0 -102zm0 -18l0 -20 -17 0 0 20 17 0zm110 47c0,-5 -2,-32 -39,-32 -20,0 -38,11 -38,33 0,14 9,21 23,25l20 4c15,4 20,7 20,15 0,11 -11,16 -23,16 -24,0 -26,-13 -27,-21l-17 0c1,13 4,36 44,36 23,0 40,-13 40,-34 0,-13 -7,-21 -28,-26l-17 -5c-14,-3 -19,-5 -19,-13 0,-13 15,-15 20,-15 22,0 24,11 25,17l16 0zm100 13l46 0c23,0 25,14 25,25 0,5 1,27 3,35l23 0 0 -3c-5,-3 -6,-6 -7,-14l-1 -25c0,-20 -8,-23 -16,-27 9,-5 19,-12 19,-33 0,-30 -23,-38 -46,-38l-64 0 0 140 18 0 0 -60zm0 -63l47 0c10,0 26,1 26,23 0,21 -15,24 -29,24l-44 0 0 -47zm193 91c-1,8 -11,20 -27,20 -19,0 -29,-12 -29,-33l74 0c0,-36 -14,-60 -44,-60 -33,0 -49,26 -49,57 0,29 17,51 46,51 16,0 23,-4 28,-7 12,-9 17,-23 18,-28l-17 0zm-56 -27c0,-16 12,-30 28,-30 21,0 27,14 28,30l-56 0zm142 -28l0 -15 -17 0 0 -12c0,-8 3,-12 10,-12 3,0 5,0 7,0l0 -15c-2,0 -5,0 -7,0 -17,0 -27,7 -27,22l0 17 -14 0 0 15 14 0 0 87 17 0 0 -87 17 0zm45 28c0,-15 10,-27 26,-27l7 0 0 -18c-2,0 -2,-1 -5,-1 -12,0 -21,8 -28,20l-1 0 0 -17 -16 0 0 102 17 0 0 -59zm121 27c-1,8 -10,20 -27,20 -19,0 -29,-12 -29,-33l74 0c0,-36 -14,-60 -44,-60 -33,0 -48,26 -48,57 0,29 17,51 45,51 16,0 23,-4 28,-7 13,-9 17,-23 18,-28l-17 0zm-56 -27c0,-16 12,-30 28,-30 21,0 28,14 29,30l-57 0zm179 -14c0,-5 -3,-32 -39,-32 -20,0 -39,11 -39,33 0,14 10,21 24,25l20 4c14,4 20,7 20,15 0,11 -11,16 -23,16 -25,0 -27,-13 -28,-21l-16 0c1,13 3,36 44,36 23,0 40,-13 40,-34 0,-13 -7,-21 -29,-26l-17 -5c-13,-3 -18,-5 -18,-13 0,-13 15,-15 20,-15 22,0 24,11 24,17l17 0zm115 4c0,-29 -20,-36 -35,-36 -17,0 -25,11 -30,17l-1 0 0 -52 -17 0 0 140 17 0 0 -55c0,-26 15,-34 29,-34 16,0 20,9 20,23l0 66 17 0 0 -69zm104 37c0,8 -10,20 -26,20 -20,0 -29,-12 -29,-33l74 0c0,-36 -15,-60 -44,-60 -34,0 -49,26 -49,57 0,29 17,51 46,51 16,0 23,-4 27,-7 13,-9 18,-23 18,-28l-17 0zm-55 -27c0,-16 12,-30 28,-30 21,0 27,14 28,30l-56 0zm123 0c0,-15 11,-27 26,-27l7 0 0 -18c-1,0 -2,-1 -5,-1 -12,0 -21,8 -28,20l-1 0 0 -17 -16 0 0 102 17 0 0 -59z"/>
   <path id="1" fill="#373435" d="M2232 2288l0 2c1,1 1,2 1,3 0,1 0,2 -1,3 1,-1 1,-2 1,-3 0,-6 -2,-12 -7,-15 -5,-4 -12,-5 -22,-5l-35 0 0 43 34 0c2,0 4,0 6,-1 -2,1 -4,1 -6,1l-34 0 0 -43 35 0c5,0 9,0 12,1 1,0 2,0 2,0 1,1 2,1 3,1 7,3 10,7 11,13zm299 6l-18 0 0 102 18 0 0 -102zm0 -18l0 -20 -18 0 0 20 18 0zm257 79l13 41 21 0 -51 -140 -21 0 -52 140 19 0 15 -41 56 0zm-51 -16l23 -62 0 0 21 62 -44 0zm637 -45l-17 0 0 102 17 0 0 -102zm0 -18l0 -20 -17 0 0 20 17 0zm257 79l14 41 20 0 -50 -140 -22 0 -52 140 19 0 15 -41 56 0zm-50 -16l22 -62 1 0 20 62 -43 0zm362 -83l-17 0 0 140 17 0 0 -140zm259 38l-17 0 0 102 17 0 0 -102zm0 -18l0 -20 -17 0 0 20 17 0zm-1993 39c6,0 12,-2 16,-4 4,-3 6,-7 7,-12 0,0 0,1 0,2 -3,9 -11,14 -23,14zm23 -16c0,-1 0,-2 0,-3 0,1 0,2 0,3zm-6 95l0 0c3,-1 6,-2 9,-3l0 0c10,-4 17,-12 20,-21l0 0 1 -1 0 0c0,-1 1,-3 1,-5l0 0c1,-3 1,-6 1,-9 0,-10 -3,-17 -6,-22 3,5 6,12 6,22 0,12 -4,22 -13,30 -8,7 -20,11 -34,11l-60 0 0 0 0 0 0 -140 0 0 0 0 61 0c6,0 11,1 16,3 -2,-1 -5,-1 -7,-2l0 0c-3,0 -6,-1 -9,-1l-61 0 0 140 60 0c5,0 10,-1 15,-2zm24 -62l0 0 0 -1 0 0c-1,0 -1,-1 -1,-1l-1 0c-1,-2 -3,-3 -5,-4l-1 -1c-2,-1 -4,-2 -5,-3l-1 0c-1,0 -2,-1 -3,-1 1,-1 2,-1 3,-2l0 0c1,0 2,-1 3,-2 -2,2 -4,3 -6,4l0 0c5,2 13,5 19,12 -1,0 -1,-1 -2,-1zm-22 -73c5,2 9,4 13,7 7,6 10,16 10,26 0,2 0,5 0,7 0,-2 0,-5 0,-7 0,-15 -7,-28 -23,-33zm23 40c-1,2 -1,3 -1,4 0,-1 0,-2 1,-4zm-1 4c-1,2 -2,4 -3,6 -1,2 -3,3 -4,5 3,-3 5,-7 7,-11zm-8 12c0,0 -1,0 -1,1 0,-1 1,-1 1,-1zm-1 1c-1,0 -2,1 -2,1 0,0 1,-1 2,-1zm-23 16l2 0 0 0 1 0c1,1 3,1 4,2 1,0 2,0 2,1 1,0 2,1 3,1 0,0 1,1 2,1 -1,0 -2,-1 -3,-2 -7,-3 -15,-4 -22,-4l-38 0 0 49 41 0c9,0 17,-2 22,-7 5,-4 7,-10 7,-18 0,13 -7,22 -21,24l-1 0c-2,1 -5,1 -7,1l-41 0 0 -49 38 0c1,0 3,0 5,0 2,0 4,0 6,1zm14 6l0 0 1 0 0 1 1 0c-1,-1 -2,-1 -2,-2l0 1zm5 6l1 1 0 0c-1,-2 -2,-3 -3,-5l0 1c1,1 1,1 2,2 0,1 0,1 0,1zm2 11l0 -1 0 -1 0 1 0 1zm0 -2c0,-1 0,-2 0,-2 0,0 0,1 0,2zm0 -3c0,-1 0,-1 0,-2 0,1 0,1 0,2zm73 -12l-1 0c0,0 -1,0 -2,0l0 1c-2,0 -4,0 -5,1l-1 0 0 0 -1 0c-6,3 -11,7 -14,11l0 0 0 0 0 1c-1,0 -1,1 -1,1l-1 0c-3,6 -3,13 -3,17 0,2 0,5 1,7 -1,-2 -1,-5 -1,-7 0,-5 0,-12 4,-18 5,-7 12,-13 27,-14l28 -4c2,0 4,0 5,-2 -1,2 -3,2 -5,2l-28 4 -2 0zm3 61l0 0c2,0 4,0 6,0 -2,0 -4,0 -7,0 -9,0 -17,-3 -23,-8 -3,-4 -6,-8 -7,-14 3,14 15,22 30,22l1 0zm52 -1l0 0c1,0 2,0 2,0 2,0 3,0 4,0 -1,0 -2,0 -4,0 -1,0 -2,0 -4,0 1,0 1,0 2,0zm11 -14l0 0 -1 0 2 0 0 0 0 0 0 12 0 0 0 0c-1,0 -2,0 -2,1l-1 0c1,0 2,-1 3,-1l0 -12 -1 0zm-2 0l-1 0 0 0 0 0 0 0 0 0 0 0 0 0 -1 0 0 0 0 0 0 0 0 0 0 0 0 0 0 0 0 0 -1 0c-3,0 -6,-1 -6,-6l0 -58c0,-1 0,-1 0,-2l0 0 0 -1 0 0c0,-2 0,-4 -1,-5l0 -1c0,-1 0,-1 -1,-2l0 0c0,-2 -1,-3 -2,-4l0 0c-1,-1 -1,-2 -2,-2l0 0c0,-1 -1,-1 -1,-2l0 0 -1 0 0 0c-3,-3 -7,-5 -11,-7 3,1 7,3 10,5 5,5 9,11 9,21l0 58c0,2 1,4 2,5 1,1 2,1 4,1 1,0 2,0 3,0 0,0 1,0 1,0 0,0 -1,0 -1,0zm-81 -80l-1 0c0,1 -1,2 -2,3 0,1 0,1 0,2 -1,1 -2,3 -3,6l0 0 0 1c1,-6 4,-11 9,-15 -1,1 -2,2 -3,3zm-6 12l0 1 0 1 -1 0 0 1c0,2 0,3 0,5l0 0 0 1 0 0 0 0 15 0 1 -1 -1 1 0 0 0 0 -15 0 0 0 0 0c0,-3 0,-6 1,-9l0 0zm19 -3c-2,2 -3,5 -4,8 2,-6 5,-12 14,-14 3,-1 5,-1 9,-1 16,0 24,5 24,16 0,1 0,2 -1,3 0,4 -1,6 -2,7l0 0c1,-2 3,-5 3,-10 0,-5 -2,-9 -6,-12 -4,-3 -10,-4 -18,-4 -10,0 -16,3 -19,7zm-4 8c0,1 0,2 0,3 0,-1 0,-2 0,-3zm-6 -20c0,-1 1,-1 2,-2 5,-3 11,-6 19,-7 -9,1 -16,4 -21,9zm21 -9c3,0 7,-1 11,-1 3,0 10,1 18,3 -8,-2 -15,-3 -18,-3l-1 0c-2,0 -5,1 -7,1 -1,0 -2,0 -3,0zm57 105c-1,0 -2,0 -3,1 1,-1 2,-1 3,-1zm-11 1c-1,0 -2,-1 -3,-1 1,0 2,1 3,1zm-3 -1c0,0 -1,0 -1,0 0,0 1,0 1,0zm-1 0c-3,-1 -5,-2 -6,-4 -3,-3 -3,-7 -4,-11 -3,4 -7,8 -13,11 -1,1 -1,1 -2,1 1,0 2,0 2,-1 6,-3 10,-7 13,-11 1,6 2,12 10,15zm-27 -2c0,0 -1,1 -2,1 1,0 2,-1 2,-1zm-2 1c-1,1 -2,1 -4,1 2,0 3,0 4,-1zm-5 2c-1,0 -2,0 -3,0 1,0 2,0 3,0zm-3 0c-1,0 -2,0 -3,1l2 -1 1 0zm3 -48l0 0 1 0 0 0c6,-1 10,-2 13,-2 -4,1 -10,1 -19,3l-2 0 2 0 5 -1zm14 28c4,-3 7,-7 8,-11 -4,11 -17,18 -30,18 -13,0 -19,-7 -19,-18 0,0 0,-1 0,-1 0,0 0,1 0,1 0,6 2,10 5,13 3,3 8,5 14,5 8,0 16,-3 22,-7zm8 -11c0,-1 1,-2 1,-3 0,1 -1,2 -1,3zm1 -3c0,-1 0,-2 0,-3l0 -17c-1,1 -3,2 -7,3l-1 0c1,0 2,0 3,0 3,-1 4,-2 5,-3l0 17c0,1 0,2 0,3zm-31 -13c-3,0 -6,1 -9,3 1,-1 1,-1 2,-1 2,-1 5,-2 7,-2zm-9 3c0,0 -1,0 -1,0 0,0 1,0 1,0zm-3 1c0,0 0,0 -1,0 1,0 1,0 1,0zm-1 0c0,1 -1,1 -1,2 0,-1 1,-1 1,-2zm-2 2c-1,1 -2,2 -2,4 0,-1 0,-2 1,-2 0,-1 1,-1 1,-2zm-2 4c-1,0 -1,1 -1,2 0,-1 0,-2 1,-2zm-1 2c0,0 -1,2 -1,3 0,-1 1,-3 1,-3zm168 -64l0 0c-2,-1 -3,-2 -5,-2l0 -1c-2,-1 -5,-2 -8,-3l-1 0c-1,0 -3,-1 -4,-1l-1 0 -1 0 0 0 -1 0 -1 0 -1 0 -1 0 0 0 -1 -1c-1,0 -2,0 -3,0 0,0 -1,0 -2,1l0 0c-14,0 -26,5 -32,16l0 1c-1,0 -1,1 -2,2l0 0c0,2 -1,4 -1,5l0 1c0,0 -1,1 -1,1l0 0c0,1 0,2 0,3l0 1c0,0 0,1 0,2l0 0c0,1 0,2 0,2 0,2 1,4 1,6 -1,-2 -1,-5 -1,-8 0,-10 4,-18 10,-24 8,-6 18,-9 28,-9 14,0 22,4 28,9 10,8 11,20 11,23l0 0 0 0 -16 0 0 0 0 0c0,-3 -1,-7 -4,-11 -3,-3 -9,-5 -18,-6 2,0 3,0 4,1 2,0 3,0 4,0 12,3 14,11 14,16l16 0c0,-3 -1,-15 -11,-24zm-56 44l0 0 1 0c0,1 1,1 2,2l0 0 1 0 0 0 0 0 1 1 1 0 0 0 2 1 0 0c1,0 2,1 2,1l1 0c1,0 2,0 3,1l19 4c12,3 18,6 20,10 0,1 0,2 0,3l0 0c1,1 1,1 1,2 0,4 -2,8 -5,10 3,-2 5,-6 5,-10 0,-4 -2,-7 -5,-9 -3,-2 -8,-4 -16,-6l-19 -4c-8,-2 -13,-5 -18,-9 -2,-2 -3,-4 -5,-7 1,2 3,5 5,7 1,1 2,2 4,3zm-13 22l0 0 0 2 0 0 0 1 0 0 0 0 0 1c0,1 0,2 0,2l0 0 1 1 0 1 0 1 0 1 1 1 0 1 0 0c1,2 1,3 2,5l0 1 1 0c0,1 1,1 1,2 2,2 4,5 7,7l0 0c1,0 1,1 2,1l0 0c1,1 3,1 4,2l0 0c1,0 2,1 2,1l0 0c2,0 4,1 5,1l1 0 1 1 0 0 1 0 0 0 2 0 0 0 1 0 0 0c3,1 7,1 10,1l0 0 1 0c5,0 9,0 13,-1 -4,1 -8,1 -13,1 -20,0 -31,-6 -36,-13 -6,-8 -7,-16 -7,-23l0 0 0 0 16 0 0 0 0 0c0,1 0,2 0,3 0,-1 0,-2 0,-3l-16 0 0 2zm83 5l0 0 1 -1 0 -1 0 0 0 0c0,-1 0,-2 0,-3 0,-1 0,-3 -1,-4 1,1 1,3 1,4 0,11 -4,19 -11,25 -5,3 -11,6 -17,8 15,-4 26,-14 27,-28zm-55 -61l0 0c0,-1 1,-1 1,-1l0 0c4,-1 8,-2 11,-2l0 0 0 0c-3,0 -10,1 -15,4 -3,2 -4,4 -5,8 1,-5 4,-8 8,-9zm-8 9c0,1 0,1 0,2 0,-1 0,-1 0,-2zm0 2l0 1c0,3 0,6 3,7 -3,-1 -3,-4 -3,-7l0 -1zm3 9c0,0 1,0 1,0l0 1c0,-1 -1,-1 -1,-1zm2 1c0,0 1,0 1,1 0,-1 -1,-1 -1,-1zm1 1c1,0 3,1 5,1 -2,0 -4,-1 -5,-1zm5 1c1,1 2,1 3,1 -1,0 -2,0 -3,-1zm3 1c1,1 3,1 4,1l17 5c11,2 18,5 22,10 3,2 4,5 5,8 0,-2 -1,-4 -3,-6 -4,-5 -11,-9 -24,-12l-17 -5c-1,0 -3,0 -4,-1zm48 24c1,1 1,2 1,4 0,-1 0,-2 0,-3 0,0 0,-1 -1,-1zm-65 10c0,1 0,2 0,2 0,0 0,-1 0,-2zm0 2c1,3 2,5 4,8 3,3 8,6 16,7 -14,-1 -18,-8 -20,-15zm21 15c1,0 3,0 5,0 7,0 13,-1 17,-4 1,-1 2,-1 2,-2 -4,4 -11,6 -19,6 -2,0 -4,0 -5,0zm75 -90l18 0 0 0 0 0 0 102 0 0 0 0 -18 0 0 0 0 0 0 -102 0 0 0 0zm18 -38l0 20 0 0 0 0 -18 0 0 0 0 0 0 -20 0 0 0 0 18 0 0 0 0 0zm115 72l0 0 0 -1 0 0 0 0 0 -1 0 -1 0 0 0 -1 -1 0 0 -2 0 0c0,-2 -1,-4 -2,-6l0 0c0,-2 -1,-3 -1,-4l0 0c-1,-2 -2,-4 -4,-6l0 0 0 -1 0 0c-1,-1 -2,-2 -3,-3l0 0c-5,-5 -11,-9 -20,-10l-1 0 -1 0 0 0 -1 0 0 0 -1 0 0 0 -1 0 -1 -1 -1 0 -1 0 0 0 -1 0 -1 1 -1 0 -1 0 0 0 -1 0 0 0 -1 0 -1 0 -1 0c-1,0 -2,0 -4,1 0,0 -1,0 -2,0l0 0c-3,1 -5,2 -8,3l0 0c-4,2 -7,5 -10,8l0 0c-2,2 -4,4 -6,6l0 1c-2,2 -3,5 -5,8l0 0c-1,3 -2,6 -2,9l0 0c-1,1 -1,2 -1,3l0 1c-1,5 -2,10 -2,16l0 2 0 0 0 1 0 1c1,8 2,16 6,22l0 0c6,13 17,22 31,24l0 0 1 1 1 0c2,0 4,0 7,0 0,0 1,0 2,0l0 0 1 0 0 0c2,0 4,0 6,-1l0 0c4,-1 8,-2 11,-4 -5,3 -12,5 -20,5 -14,0 -26,-5 -33,-14 -8,-9 -13,-22 -13,-37 0,-17 4,-31 13,-42 8,-9 20,-15 36,-15 12,0 20,4 26,10 8,7 11,18 12,28l0 0 0 0 -16 0 0 0 0 0c-2,-7 -4,-13 -8,-17 -4,-3 -10,-5 -17,-5 -1,0 -2,0 -4,0 2,0 3,0 4,0 15,0 22,8 25,22l16 0 0 -1zm-4 48l0 0c0,-1 1,-2 1,-3 1,-2 1,-3 1,-5l1 0 0 -1 0 0 0 -1 0 0 0 -1 0 0c1,-2 1,-3 1,-5l-16 0c-3,16 -13,24 -25,24 6,0 12,-2 16,-6 4,-4 7,-10 9,-18l0 0 16 0 0 0 0 0c-1,9 -5,21 -13,29 -2,2 -5,4 -8,5 8,-4 14,-11 17,-18zm-51 -65l0 0c0,0 1,-1 2,-1l0 0c1,-1 2,-1 3,-1m2 -1c0,0 -1,0 -1,0 0,0 1,0 1,0zm-1 0c-5,2 -9,5 -12,9 -5,7 -8,18 -8,28 0,1 0,2 0,3 0,-1 0,-2 0,-3 0,-13 4,-27 14,-34m-14 37c1,8 2,16 5,23l1 1c-2,-3 -3,-7 -4,-10 -1,-3 -1,-7 -1,-10 0,-1 -1,-3 -1,-4zm6 24c0,1 1,1 1,1 0,0 -1,0 -1,-1zm7 8l1 0 -1 0 0 0zm3 2c0,0 1,0 1,0 0,0 -1,0 -1,0zm3 1c0,0 1,0 2,0 -1,0 -2,0 -2,0zm2 0c0,1 1,1 1,1 0,0 -1,0 -1,-1zm4 1c0,0 1,0 2,0 -1,0 -2,0 -2,0zm3 0l0 0 0 0 0 0 0 0zm25 -24l0 0zm171 36l-13 -41 -56 0 -15 41 0 0 0 0 -19 0 0 0 0 0 52 -140 0 0 21 0 0 0 0 0 51 140 0 0 0 0 -21 0 0 0 0 0zm-51 -140l0 0zm10 21l-23 62 44 0 -21 -62 0 0zm163 51l0 0 0 -1 0 0 0 0 0 -1 0 -1 0 0 0 -1 0 0 -1 -2 0 0c0,-2 -1,-4 -2,-6l0 0c0,-2 -1,-3 -1,-4l0 0c-1,-2 -2,-4 -3,-6l-1 0 0 -1 0 0c-1,-1 -2,-2 -3,-3l0 0c-5,-5 -11,-9 -20,-10l-1 0 -1 0 0 0 -1 0 0 0 -1 0 0 0 -1 0 0 -1 -2 0 -1 0 0 0 -1 0 -1 1 0 0 -1 0 -1 0 -1 0 0 0 -1 0 -1 0 -1 0c-1,0 -2,0 -3,1 -1,0 -2,0 -3,0l0 0c-3,1 -5,2 -7,3l-1 0c-4,2 -7,5 -10,8l0 0c-2,2 -4,4 -6,6l0 1c-2,2 -3,5 -4,8l-1 0c-1,3 -2,6 -2,9l0 0c-1,1 -1,2 -1,3l0 1c-1,5 -2,10 -2,16l0 2 0 0 0 1 0 1c1,8 3,16 6,22l0 0c6,13 17,22 32,24l0 0 1 1 0 0c2,0 4,0 7,0 0,0 1,0 2,0l0 0 1 0 0 0c2,0 4,0 6,-1l0 0c4,-1 8,-2 11,-4 -5,3 -12,5 -20,5 -14,0 -25,-5 -33,-14 -8,-9 -13,-22 -13,-37 0,-17 4,-31 13,-42 8,-9 20,-15 36,-15 12,0 20,4 26,10 8,7 11,18 12,28l0 0 0 0 -16 0 0 0 0 0c-2,-7 -4,-13 -8,-17 -4,-3 -10,-5 -17,-5 -1,0 -2,0 -4,0 2,0 3,0 4,0 15,0 22,8 25,22l16 0 0 -1zm-4 48l0 0c0,-1 1,-2 1,-3 1,-2 1,-3 2,-5l0 0 0 -1 0 0 0 -1 0 0 0 -1 0 0c1,-2 1,-3 1,-5l-16 0c-3,16 -13,24 -24,24 5,0 11,-2 15,-6 4,-4 7,-10 9,-18l0 0 16 0 0 0 0 0c-1,9 -5,21 -13,29 -2,2 -5,4 -8,5 8,-4 14,-11 17,-18zm-51 -65l0 0c0,0 1,-1 2,-1l0 0c1,-1 2,-1 3,-1m3 -1c-1,0 -2,0 -2,0 0,0 1,0 2,0zm-2 0c-5,2 -9,5 -12,9 -5,7 -8,18 -8,28 0,1 0,2 1,3 -1,-1 -1,-2 -1,-3 0,-13 4,-27 14,-34m-13 37c0,8 1,16 5,23l0 1c-2,-3 -3,-7 -4,-10 -1,-3 -1,-7 -1,-10 0,-1 0,-3 0,-4zm5 24c0,1 1,1 1,1 0,0 -1,0 -1,-1zm7 8l1 0 -1 0 0 0zm3 2c0,0 1,0 1,0 0,0 -1,0 -1,0zm3 1c1,0 1,0 2,0 -1,0 -1,0 -2,0zm2 0c0,1 1,1 2,1 -1,0 -2,0 -2,-1zm4 1c0,0 1,0 2,0 -1,0 -2,0 -2,0zm3 0l0 0 1 0 -1 0 0 0zm25 -24l0 0zm39 1l0 1c1,3 2,6 3,8 -3,-8 -5,-16 -5,-25 0,-14 4,-29 14,-39 7,-9 18,-15 33,-15 15,0 26,6 34,15 9,10 14,25 14,39 0,9 -2,17 -5,25 1,-2 2,-5 3,-8l0 -1c1,-5 2,-10 2,-16 0,-5 -1,-11 -2,-16l0 -1c-2,-5 -4,-10 -6,-14l0 0c-3,-5 -7,-10 -12,-14l0 0 -1 0 0 0c-3,-2 -6,-4 -10,-6l0 0c-2,-1 -5,-1 -7,-2l0 0 -1 0 -1 0c-1,0 -1,0 -2,0l-1 0c-1,0 -2,-1 -4,-1l0 0 -1 0 0 0 -1 0c-1,0 -2,1 -4,1l0 0c-1,0 -2,0 -2,0l-1 0 -1 0 0 0c-3,1 -5,1 -7,2l-1 0c-3,2 -6,4 -9,6l-1 0 0 0 0 0c-5,4 -9,9 -12,14l0 0c-3,4 -5,9 -6,14l0 1c-1,5 -2,11 -2,16 0,6 1,11 2,16zm18 29l0 0 0 0 1 1 0 0 0 0c3,2 6,4 9,5l1 0 0 0 1 0 1 1 0 0c2,0 3,1 5,1l0 0 1 0 1 0c0,0 1,0 2,1l0 0c2,0 3,0 4,0l1 0 0 0 1 0 0 0c2,0 3,0 4,0l1 0c1,-1 1,-1 2,-1l1 0 1 0 0 0c2,0 3,-1 5,-1l0 0 1 -1 0 0 1 0 0 0c4,-1 7,-3 9,-5l0 0 1 0 0 -1 1 0 0 0c2,-1 4,-3 5,-5 -8,9 -18,14 -33,14 -14,0 -25,-5 -32,-14 1,2 3,4 5,5zm-6 -6c-4,-4 -7,-9 -9,-14 2,6 6,11 10,15l-1 -1zm76 -14c-2,5 -5,10 -9,14l-1 1c4,-4 7,-9 10,-15zm-54 -62l0 0c1,0 2,0 3,0 -6,1 -10,4 -13,8 -6,9 -8,21 -8,29 0,8 2,20 8,29 3,4 7,7 13,9 -1,0 -2,-1 -3,-1l0 0c-15,-6 -18,-26 -18,-37 0,-11 3,-30 18,-37zm22 0l0 0c15,7 19,26 19,37 0,11 -4,31 -19,37l0 0c0,0 -1,1 -2,1 6,-2 10,-5 13,-9 6,-9 8,-21 8,-29 0,-8 -2,-20 -8,-29 -3,-4 -7,-7 -13,-8 1,0 2,0 2,0zm-16 76c1,0 2,0 3,0 -1,0 -2,0 -3,0zm5 0l0 0 1 0 -1 0 0 0zm3 0c1,0 2,0 3,0 -1,0 -2,0 -3,0zm3 -77c-1,0 -2,-1 -3,-1 1,0 2,1 3,1zm-5 -1l-1 0 0 0 0 0 1 0zm-3 0c-1,0 -2,1 -3,1 1,0 2,-1 3,-1zm80 65l0 1 0 0 0 0 0 1 0 1 0 0 0 1 0 0 0 0 0 1 0 0 1 1c4,17 19,22 31,22 1,0 2,0 3,0 -1,0 -2,0 -3,0 -8,0 -17,-2 -24,-9 -5,-4 -9,-12 -9,-23l0 -73 0 0 0 0 17 0 0 0 0 0 0 68c0,8 2,13 5,16 -3,-3 -5,-8 -5,-16l0 -68 -17 0 0 73c0,2 0,3 1,4zm81 -77l0 102 0 0 0 0 -16 0 0 0 0 0 0 -15 0 0c-4,6 -8,10 -13,13 -3,2 -6,3 -10,4 10,-2 17,-8 23,-17l0 0 0 15 16 0 0 -102 -17 0 0 56c0,9 -2,18 -7,25 5,-7 7,-16 7,-25l0 -56 0 0 0 0 17 0 0 0 0 0zm-39 104c-1,0 -2,1 -3,1 1,0 2,-1 3,-1zm-3 1c-1,0 -2,0 -4,0 2,0 3,0 4,0zm-18 -21l0 1c4,4 9,5 15,5l1 0 -1 0c-6,0 -11,-1 -15,-6zm16 6c2,0 4,0 5,0 -1,0 -3,0 -5,0zm5 0c1,-1 2,-1 3,-1 -1,0 -2,0 -3,1zm3 -1c5,-1 9,-4 11,-8l1 0c-3,4 -7,6 -12,8zm134 -84l0 0c-1,-1 -2,-2 -4,-2l0 -1c-3,-1 -6,-2 -9,-3l0 0c-2,0 -3,-1 -5,-1l-1 0 0 0 -1 0 -1 0 -1 0 0 0 -1 0 -1 0 -1 -1c-1,0 -1,0 -2,0 -1,0 -2,0 -2,1l0 0c-14,0 -26,5 -33,16l0 1c0,0 -1,1 -1,2l0 0c-1,2 -1,4 -2,5l0 1c0,0 0,1 0,1l0 0c0,1 0,2 0,3l0 1c0,0 0,1 0,2l0 0c0,1 0,2 0,2 0,2 0,4 1,6 -1,-2 -1,-5 -1,-8 0,-10 4,-18 10,-24 7,-6 17,-9 28,-9 13,0 22,4 28,9 10,8 11,20 11,23l0 0 0 0 -17 0 0 0 0 0 0 -1c0,1 0,1 0,1l17 0c0,-3 -1,-15 -12,-24zm-55 44l0 0 0 0c1,1 2,1 3,2l0 0 0 0 1 0 0 0 0 1 2 0 0 0 1 1 1 0c1,0 1,1 2,1l0 0c1,0 2,0 3,1l20 4c11,3 17,6 19,10 1,1 1,2 1,3l0 0c0,1 0,1 0,2 0,4 -2,8 -4,10 2,-2 4,-6 4,-10 0,-4 -1,-7 -5,-9 -3,-2 -8,-4 -15,-6l-20 -4c-7,-2 -13,-5 -17,-9 -2,-2 -4,-4 -5,-7 1,2 2,5 4,7 2,1 3,2 5,3zm-14 22l0 0 0 2 0 0 1 1 0 0 0 0 0 1c0,1 0,2 0,2l0 0 0 1 0 1 1 1 0 1 0 1 0 1 1 0c0,2 1,3 2,5l0 1 0 0c1,1 1,1 1,2 2,2 5,5 8,7l0 0c0,0 1,1 2,1l0 0c1,1 2,1 4,2l0 0c0,0 1,1 2,1l0 0c1,0 3,1 5,1l0 0 1 1 0 0 2 0 0 0 1 0 0 0 2 0 0 0c3,1 6,1 10,1l0 0 1 0c4,0 8,0 12,-1 -4,1 -8,1 -12,1 -20,0 -31,-6 -37,-13 -6,-8 -6,-16 -7,-23l0 0 0 0 17 0 0 0 0 0c0,1 0,2 0,3 0,-1 0,-2 0,-3l-17 0 0 2zm84 5l0 0 0 -1 0 -1 0 0 0 0c0,-1 0,-2 0,-3 0,-1 0,-3 0,-4 0,1 0,3 0,4 0,11 -4,19 -11,25 -4,3 -10,6 -17,8 15,-4 26,-14 28,-28zm-15 -27l-1 0 0 -1c-2,0 -4,-1 -5,-2l-2 0 -1 0 -1 -1 0 0c-1,0 -2,0 -3,0l-17 -5 -3 -1c-2,0 -3,0 -4,0 -3,-1 -5,-2 -7,-3 3,1 7,3 14,4l17 5c10,2 17,5 22,10 2,2 4,5 5,8 -1,-2 -2,-4 -3,-6 -1,-1 -2,-3 -4,-4 -2,-1 -4,-3 -7,-4zm-40 -34l0 0c0,-1 0,-1 1,-1l0 0c4,-1 8,-2 10,-2l1 0 -1 0c-3,0 -10,1 -15,4 -2,2 -4,4 -5,8 1,-5 5,-8 9,-9zm35 13c0,-3 -1,-7 -4,-10 -3,-3 -8,-5 -17,-6 1,0 2,0 4,1 1,0 2,0 3,0 12,3 14,10 14,15zm-44 -4c0,1 0,1 0,2 0,-1 0,-1 0,-2zm0 2l0 1c0,3 1,6 3,7 -2,-1 -3,-4 -3,-7l0 -1zm4 9c0,0 0,0 0,0l1 1c-1,-1 -1,-1 -1,-1zm59 28c0,1 1,2 1,4 0,-1 0,-2 -1,-3 0,0 0,-1 0,-1zm-66 10c0,1 0,2 1,2 -1,0 -1,-1 -1,-2zm1 2c0,3 1,5 3,8 3,3 9,6 17,7 -14,-1 -19,-8 -20,-15zm20 15c2,0 4,0 6,0 6,0 13,-1 17,-4 1,-1 1,-1 2,-2 -5,4 -12,6 -19,6 -2,0 -4,0 -6,0zm93 13l0 0c1,0 2,0 3,0 -2,0 -4,0 -5,-1 1,0 1,1 2,1zm4 0l0 0c1,0 2,0 3,0l0 0 0 0c0,0 1,0 1,0 0,0 -1,0 -1,0 -1,0 -2,0 -4,0l1 0zm2 -16l0 0c-1,-1 -1,-1 -2,-2l0 -1c0,-1 0,-2 0,-3l0 -66 16 0 0 -15 -16 0 0 -28 -18 0 0 28 -13 0 0 15 13 0 0 67c0,1 1,3 1,5 0,-2 -1,-4 -1,-5l0 -67 -13 0 0 0 0 0 0 -15 0 0 0 0 13 0 0 -28 0 0 0 0 18 0 0 0 0 0 0 28 16 0 0 0 0 0 0 15 0 0 0 0 -16 0 0 66c0,8 6,8 10,8l6 0 0 0 0 0 0 13 0 0 0 0c-3,0 -6,1 -8,1l0 0c2,0 5,-1 8,-1l0 -13 -6 0 -1 0c-1,0 -2,0 -3,-1 -1,0 -1,0 -2,0 -1,0 -1,-1 -2,-1zm-8 15c-3,-1 -6,-3 -8,-5 -2,-2 -3,-6 -3,-9 1,6 4,12 11,14zm49 -102l17 0 0 0 0 0 0 102 0 0 0 0 -17 0 0 0 0 0 0 -102 0 0 0 0zm17 -38l0 20 0 0 0 0 -17 0 0 0 0 0 0 -20 0 0 0 0 17 0 0 0 0 0zm115 72l0 0 0 -1 0 0 0 0 0 -1 0 -1 0 0 0 -1 0 0 -1 -2 0 0c0,-2 -1,-4 -1,-6l0 0c-1,-2 -1,-3 -2,-4l0 0c-1,-2 -2,-4 -3,-6l-1 0 0 -1 0 0c-1,-1 -2,-2 -3,-3l0 0c-4,-5 -11,-9 -20,-10l0 0 -1 0 0 0 -1 0 0 0 -1 0 -1 0 -1 0 0 -1 -2 0 0 0 -1 0 -1 0 0 1 -1 0 -1 0 -1 0 -1 0 0 0 -1 0 -1 0 0 0c-2,0 -3,0 -4,1 -1,0 -2,0 -3,0l0 0c-3,1 -5,2 -7,3l0 0c-4,2 -8,5 -11,8l0 0c-2,2 -4,4 -5,6l-1 1c-1,2 -3,5 -4,8l0 0c-1,3 -2,6 -3,9l0 0c0,1 -1,2 -1,3l0 1c-1,5 -2,10 -2,16l0 2 0 0 1 1 0 1c0,8 2,16 5,22l0 0c6,13 17,22 32,24l0 0 1 1 0 0c2,0 5,0 7,0 1,0 1,0 2,0l0 0 1 0 0 0c3,0 4,0 6,-1l0 0c5,-1 8,-2 12,-4 -6,3 -13,5 -21,5 -14,0 -25,-5 -33,-14 -8,-9 -13,-22 -13,-37 0,-17 5,-31 14,-42 8,-9 19,-15 35,-15 12,0 21,4 27,10 7,7 11,18 11,28l0 0 0 0 -16 0 0 0 0 0c-1,-7 -4,-13 -8,-17 -4,-3 -9,-5 -16,-5 -2,0 -3,0 -4,0 1,0 2,0 4,0 14,0 22,8 24,22l16 0 0 -1zm-4 48l0 0c1,-1 1,-2 1,-3 1,-2 1,-3 2,-5l0 0 0 -1 0 0 0 -1 0 0 1 -1 0 0c0,-2 0,-3 0,-5l-16 0c-3,16 -13,24 -24,24 6,0 11,-2 15,-6 4,-4 7,-10 9,-18l0 0 0 0 16 0 0 0 0 0c-1,9 -4,21 -13,29 -2,2 -5,4 -7,5 8,-4 13,-11 16,-18zm-56 0l-1 -1 0 0c1,1 1,1 2,2 0,0 -1,-1 -1,-1zm-2 -3l-1 -1c0,-1 0,-1 -1,-1l0 -1 0 -1c0,0 -1,-1 -1,-1l0 -1 0 -1c-1,-1 -1,-3 -2,-4 0,-3 -1,-7 -1,-10 0,-1 0,-3 0,-4 0,8 1,16 5,23 0,1 1,3 2,4l-1 -1c0,0 0,-1 0,-1zm7 -62l0 0c1,0 1,-1 2,-1l0 0c1,-1 2,-1 3,-1m3 -1c-1,0 -1,0 -2,0 1,0 1,0 2,0zm-2 0c-5,2 -9,5 -12,9 -5,7 -7,18 -7,28 0,1 0,2 0,3 0,-1 0,-2 0,-3 0,-13 3,-27 13,-34m-4 66c1,1 1,1 2,2 -1,-1 -1,-1 -2,-2zm2 2c0,0 1,1 1,1 0,0 -1,-1 -1,-1zm1 1c1,0 2,1 2,1 0,0 -1,-1 -1,-1l-1 0zm2 1c1,1 2,1 3,1 -1,0 -2,0 -3,-1zm4 2c1,0 1,0 2,0 -1,0 -1,0 -2,0zm2 0c1,1 1,1 2,1 -1,0 -1,0 -2,-1zm4 1c1,0 1,0 2,0 -1,0 -1,0 -2,0zm3 0l1 0 0 0 0 0 -1 0zm197 12l-14 -41 -56 0 -15 41 0 0 -19 0 0 0 0 0 52 -140 0 0 0 0 22 0 0 0 0 0 50 140 0 0 0 0 -20 0 0 0 0 0zm-85 0l0 0zm43 -119l-22 62 43 0 -20 -62 -1 0zm170 48l0 0 0 -1 0 -1 0 -2 0 0 0 -1 0 0 -1 -1 0 0c0,-4 -1,-8 -3,-11l0 0c-1,-3 -4,-6 -7,-9l0 0c-7,-6 -16,-8 -25,-8 -1,0 -3,1 -5,1 -2,0 -4,1 -6,1 3,-1 7,-2 11,-2 9,0 20,3 27,10 5,5 9,13 9,26l0 69 0 0 0 0 -17 0 0 0 0 0 0 -63c0,-8 -1,-15 -5,-19 -2,-4 -7,-6 -13,-7 1,0 1,0 2,0 1,0 2,1 2,1 7,1 10,5 12,11l0 1c1,2 1,3 1,5l1 1 0 1c0,2 0,4 0,6l0 63 17 0 0 -69 0 -2zm-35 -18l-1 0c0,0 1,0 1,0zm-3 0l-1 0c-5,0 -13,2 -19,9 6,-7 14,-9 19,-9l1 0zm-20 9l-1 0 0 1c0,-1 1,-1 1,-1zm-1 1c-3,4 -6,10 -6,18 0,-8 3,-14 6,-18zm-6 18c0,1 -1,2 -1,2 0,0 1,-1 1,-2zm-1 3c0,1 0,2 0,3l0 55 0 0 0 0 -17 0 0 0 0 0 0 -102 0 0 0 0 16 0 0 0 0 0 0 15 1 0c2,-3 5,-7 10,-11 2,-2 5,-3 9,-5 -4,2 -7,4 -10,6 -4,3 -7,7 -9,10l-1 0 0 -15 -16 0 0 102 17 0 0 -55c0,-1 0,-2 0,-3zm118 -19l0 -1 0 -1 0 0 1 0 0 -1c2,-4 5,-8 12,-9 0,0 1,-1 1,-1 2,0 5,0 8,0 16,0 23,5 23,16 0,1 0,2 0,3 0,4 -1,6 -3,7l1 0c1,-2 2,-5 2,-10 0,-5 -2,-9 -6,-12 -4,-3 -9,-4 -17,-4 -10,0 -16,3 -19,7 -3,3 -4,8 -5,12l0 0 -16 0 0 0 0 0c1,-3 1,-6 2,-9l0 0 -1 1 0 1 0 0 0 1c0,2 0,3 0,5l0 0 0 1 0 0 -1 0 16 0c1,-2 1,-4 2,-6zm6 19l0 0c-1,0 -1,0 -2,0 -1,1 -3,1 -4,1 2,0 5,-1 8,-1l29 -4 1 0 -1 0 -29 4 -2 0zm-23 13l0 0 -1 0 0 1c-2,3 -3,7 -4,10 1,-3 2,-7 4,-10 3,-4 6,-8 12,-10 -5,2 -9,5 -11,9zm27 48l0 0c3,0 5,0 8,-1 1,0 2,0 4,0 -4,0 -8,1 -13,1 -9,0 -17,-3 -23,-8 -4,-4 -6,-8 -8,-14 4,14 16,22 31,22l1 0zm36 -15l0 0 0 1 0 1 1 0c0,3 1,6 3,8 0,0 0,-1 0,-1 -3,-3 -4,-7 -4,-11 -3,4 -7,8 -13,11 -1,1 -1,1 -2,1 1,0 1,0 2,-1 6,-3 10,-7 13,-11l0 2zm16 14l0 0c1,0 1,0 2,0 2,0 3,0 4,0 -1,0 -2,0 -4,0 -1,0 -3,0 -4,0 1,0 1,0 2,0zm11 -14l0 0 -1 0 1 0 0 0 0 0 0 12 0 0 0 0c0,0 -1,0 -2,1l0 0c1,0 2,-1 2,-1l0 -12 0 0zm-3 0l0 0 0 0 0 0 0 0 0 0 0 0 -1 0 0 0 0 0 0 0 0 0 0 0 -1 0 0 0 0 0c-4,0 -6,-1 -6,-6l0 -58c0,-1 0,-1 0,-2l0 0 0 -1 0 0c0,-2 0,-4 -1,-5l0 -1c0,-1 -1,-1 -1,-2l0 0c-1,-2 -1,-3 -2,-4l0 0c-1,-1 -1,-2 -2,-2l0 0c0,-1 -1,-1 -1,-2l0 0 -1 0 0 0c-3,-3 -7,-5 -12,-7 4,1 7,3 10,5 6,5 10,11 10,21l0 58c0,2 1,4 2,5 1,1 2,1 4,1 1,0 2,0 3,0l1 0 -2 0zm-46 -93l0 0c-2,0 -5,1 -7,1 -1,0 -2,0 -4,0 4,0 8,-1 11,-1 4,0 11,1 18,3 -7,-2 -14,-3 -18,-3l0 0zm-34 13l-1 0c0,1 -1,2 -2,3 0,1 0,1 -1,2 -1,1 -1,3 -2,6l0 0 0 1c1,-6 4,-11 8,-15 -1,1 -1,2 -2,3zm2 -3c1,-1 2,-1 2,-2 4,-3 10,-5 15,-6 -6,1 -12,4 -17,8zm17 -8c2,0 3,-1 4,-1 -1,0 -2,1 -4,1zm62 104c-1,0 -2,0 -3,1 1,-1 2,-1 3,-1zm-11 1c-1,0 -2,-1 -3,-1 1,0 2,1 3,1zm-3 -1c-1,0 -1,0 -2,0 1,0 1,0 2,0zm-2 0c0,0 -1,-1 -2,-1 1,0 2,1 2,1zm-2 -1c-1,-1 -2,-1 -3,-2 1,1 2,1 3,2zm-23 -1c-1,0 -2,1 -3,1 1,-1 2,-1 3,-1zm-3 1c-1,1 -3,1 -4,1 1,0 3,0 4,-1zm-49 -19c0,-2 -1,-5 -1,-7 0,-2 1,-4 1,-7 0,3 -1,5 -1,7 0,2 1,5 1,7zm16 -35c1,-1 1,-1 2,-1 -1,0 -1,0 -2,1zm2 -1c1,-1 2,-1 4,-2 -2,1 -3,1 -4,2zm44 -8c1,0 2,0 2,-1 0,1 -1,1 -2,1zm-42 -8l0 0zm8 28l0 0c3,-1 6,-2 8,-2 -3,1 -7,1 -11,3 1,0 2,-1 3,-1zm16 -3l0 0 1 0c2,-1 4,-1 6,-1l1 0c2,-1 4,-1 5,-1 -4,1 -9,1 -18,3 -1,0 -2,0 -3,0l3 0 5 -1zm14 28c3,-3 5,-5 7,-8 -6,9 -17,15 -29,15 -13,0 -19,-7 -19,-18 0,0 0,-1 0,-1 0,0 0,1 0,1 0,6 2,10 5,13 3,3 7,5 14,5 8,0 16,-3 22,-7zm7 -8c0,-1 1,-2 1,-3 0,1 -1,2 -1,3zm1 -3c0,-1 1,-2 1,-3 0,1 -1,2 -1,3zm1 -3c0,-1 0,-2 0,-3l0 -17c-1,1 -3,2 -7,3l-1 0c5,-1 7,-2 8,-3l0 17c0,1 0,2 0,3zm-42 -10l0 0c-1,1 -2,2 -3,3 1,-1 2,-2 3,-3zm-3 3c-2,1 -3,2 -3,4l0 0c-1,0 -1,1 -1,2l0 -1c0,0 0,0 0,-1m0 2c-1,0 -1,2 -1,3 0,-1 0,-3 1,-3zm105 -107l17 0 0 0 0 0 0 140 0 0 0 0 -17 0 0 0 0 0 0 -140 0 0 0 0zm75 145l-2 6 -1 1c-1,3 -1,5 -2,6l0 1c-1,0 -1,1 -1,1l-1 1 0 1 0 0c-1,1 -2,2 -3,3l0 0c-2,1 -3,1 -5,1 7,0 8,-4 16,-23l0 0 -38 -105 0 0 0 0 20 0 0 0 0 0 27 83 0 0 27 -83 0 0 0 0 19 0 0 0 0 0 -4 13c-7,18 -13,36 -20,54 9,-22 16,-44 24,-67l-19 0 -27 83 0 0 -27 -83 -20 0 38 105 -1 2zm-10 36l0 0c8,-1 13,-4 18,-15l0 0 0 -1 1 0c2,-5 4,-11 7,-18l4 -9c4,-10 8,-21 12,-32 -4,11 -8,22 -12,32 -8,21 -13,32 -18,37 -5,6 -11,7 -22,7 -2,0 -3,-1 -5,-1l-1 -1c2,1 4,2 6,2 4,0 7,0 10,-1zm-17 -1l0 0 0 0 0 -15 0 0 0 0c0,0 1,0 2,0 -1,0 -2,0 -2,0l0 15 0 0zm4 -14l0 0c2,0 4,0 6,0 1,0 1,0 2,0 -1,0 -1,0 -2,0l-1 0m-9 14l0 0zm167 -137l-1 0c-1,-1 -2,-2 -4,-2l0 -1c-2,-1 -5,-2 -9,-3l0 0c-1,0 -3,-1 -5,-1l0 0 -1 0 0 0 -1 0 -1 0 -1 0 -1 0 -1 0 -1 -1c0,0 -1,0 -2,0 0,0 -1,0 -2,1l0 0c-14,0 -26,5 -32,16l0 1c-1,0 -1,1 -2,2l0 0c0,2 -1,4 -1,5l0 1c-1,0 -1,1 -1,1l0 0c0,1 0,2 0,3l0 1c0,0 0,1 0,2l0 0c0,1 0,2 0,2 0,2 1,4 1,6 -1,-2 -1,-5 -1,-8 0,-10 4,-18 10,-24 7,-6 18,-9 28,-9 14,0 22,4 28,9 10,8 11,20 11,23l0 0 0 0 -16 0 0 0 0 0 0 -1c0,1 0,1 0,1l16 0c0,-3 -1,-15 -11,-24zm-52 46l0 0c1,1 2,1 4,2l0 0c1,0 2,1 3,1 1,0 2,0 2,1l20 4c12,3 18,6 20,10 0,1 0,2 0,3l0 0c0,1 0,1 0,2 0,4 -1,8 -4,10 3,-2 4,-6 4,-10 0,-4 -1,-7 -4,-9 -3,-2 -8,-4 -16,-6l-20 -4c-4,-1 -8,-3 -11,-5 1,1 1,1 2,1zm-17 24l0 0c0,2 1,5 1,7 1,2 2,4 3,7l1 0c0,1 0,1 1,2 2,2 4,5 7,7l0 0c1,0 1,1 2,1l0 0c1,1 3,1 4,2l0 0c1,0 2,1 2,1l0 0c2,0 3,1 5,1l0 0 2 1 0 0 1 0 0 0 2 0 0 0 1 0 0 0c3,1 7,1 10,1l0 0 1 0c5,0 9,0 13,-1 -4,1 -8,1 -13,1 -20,0 -31,-6 -36,-13 -6,-8 -7,-16 -7,-23l0 0 0 0 16 0 0 0 0 0c0,4 1,10 5,14 3,3 8,6 16,7 -18,-2 -20,-13 -21,-21l-16 0c0,2 0,4 0,6zm83 1l0 0 0 -1 0 -1 0 0 0 0c1,-1 1,-2 1,-3 0,-1 -1,-3 -1,-4 0,1 1,3 1,4 0,11 -5,19 -11,25 -5,3 -11,6 -17,8 15,-4 26,-14 27,-28zm-15 -27l-1 0 0 -1c-2,0 -3,-1 -5,-2l-2 0 0 0 -2 -1 0 0c-1,0 -2,0 -3,0l-17 -5 -3 -1c-1,0 -2,0 -3,0 -3,-1 -6,-2 -8,-3 3,1 8,3 14,4l17 5c11,2 18,5 22,10 3,2 4,5 5,8 0,-2 -1,-4 -3,-6 -1,-1 -2,-3 -4,-4 -2,-1 -4,-3 -7,-4zm-40 -34l0 0c0,-1 1,-1 1,-1l0 0c4,-1 8,-2 11,-2l0 0 0 0c-4,0 -11,1 -15,4 -3,2 -5,4 -5,8 1,-5 4,-8 8,-9zm36 13c-1,-3 -2,-7 -4,-10 -3,-3 -9,-5 -18,-6 1,0 3,0 4,1 1,0 3,0 4,0 11,3 13,10 14,15zm-44 -4c0,1 -1,1 -1,2 0,-1 1,-1 1,-2zm-1 2l0 1c0,3 1,6 4,7 -3,-1 -4,-4 -4,-7l0 -1zm4 9c0,0 0,0 1,0l0 1c0,-1 -1,-1 -1,-1zm59 28c1,1 1,2 1,4 0,-1 0,-2 0,-3 0,0 -1,-1 -1,-1zm-45 27c2,0 4,0 6,0 7,0 13,-1 17,-4 1,-1 1,-1 2,-2 -4,4 -11,6 -19,6 -2,0 -4,0 -6,0zm-22 -40c-2,-1 -4,-2 -6,-4 -2,-2 -4,-4 -5,-7 1,2 3,5 5,7 2,2 4,3 6,4zm98 -50l17 0 0 0 0 0 0 102 0 0 0 0 -17 0 0 0 0 0 0 -102 0 0 0 0zm17 -38l0 20 0 0 0 0 -17 0 0 0 0 0 0 -20 0 0 0 0 17 0 0 0 0 0zm98 43l0 0c-1,-1 -2,-2 -4,-2l0 -1c-3,-1 -5,-2 -9,-3l0 0c-1,0 -3,-1 -5,-1l0 0 -1 0 -1 0 -1 0 0 0 -1 0 -1 0 -1 0 -1 -1c0,0 -1,0 -2,0 -1,0 -1,0 -2,1l0 0c-14,0 -26,5 -32,16l-1 1c0,0 -1,1 -1,2l0 0c-1,2 -1,4 -2,5l0 1c0,0 0,1 0,1l0 0c0,1 0,2 0,3l0 1c0,0 0,1 0,2l0 0c0,1 0,2 0,2 0,2 0,4 1,6 -1,-2 -1,-5 -1,-8 0,-10 4,-18 10,-24 7,-6 18,-9 28,-9 13,0 22,4 28,9 10,8 11,20 11,23l0 0 0 0 -16 0 0 0 0 0 -1 -1c1,1 1,1 1,1l16 0c0,-3 -1,-15 -12,-24zm-51 46l0 0c1,1 2,1 4,2l0 0c1,0 2,1 3,1 0,0 1,0 2,1l20 4c11,3 17,6 19,10 1,1 1,2 1,3l0 0c0,1 0,1 0,2 0,4 -1,8 -4,10 3,-2 4,-6 4,-10 0,-4 -1,-7 -4,-9 -4,-2 -9,-4 -16,-6l-20 -4c-4,-1 -8,-3 -11,-5 1,1 1,1 2,1zm-17 24l0 0c0,2 1,5 1,7 1,2 2,4 3,7l1 0c0,1 0,1 1,2 1,2 4,5 7,7l0 0c1,0 1,1 2,1l0 0c1,1 2,1 4,2l0 0c1,0 1,1 2,1l0 0c2,0 3,1 5,1l0 0 1 1 1 0 1 0 0 0 1 0 1 0 1 0 0 0c3,1 7,1 10,1l0 0 1 0c4,0 9,0 12,-1 -3,1 -8,1 -12,1 -20,0 -31,-6 -37,-13 -5,-8 -6,-16 -7,-23l0 0 0 0 17 0 0 0 0 0c0,4 1,10 5,14 3,3 8,6 16,7 -19,-2 -21,-13 -21,-21l-17 0c0,2 1,4 1,6zm83 1l0 0 0 -1 0 -1 0 0 0 0c0,-1 0,-2 0,-3 0,-1 0,-3 0,-4 0,1 0,3 0,4 0,11 -4,19 -11,25 -4,3 -10,6 -17,8 16,-4 26,-14 28,-28zm-15 -27l-1 0 0 -1c-2,0 -3,-1 -5,-2l-2 0 0 0 -2 -1 0 0c-1,0 -2,0 -3,0l-17 -5 -3 -1c-1,0 -2,0 -3,0 -3,-1 -6,-2 -8,-3 3,1 8,3 14,4l17 5c10,2 18,5 22,10 2,2 4,5 5,8 -1,-2 -2,-4 -3,-6 -1,-1 -2,-3 -4,-4 -2,-1 -4,-3 -7,-4zm-40 -34l0 0c0,-1 1,-1 1,-1l0 0c4,-1 8,-2 10,-2l1 0 -1 0c-3,0 -10,1 -15,4 -2,2 -4,4 -4,8 1,-5 4,-8 8,-9zm35 13c0,-3 -1,-7 -3,-10 -4,-3 -9,-5 -18,-6 1,0 3,0 4,1 1,0 3,0 4,0 11,3 13,10 13,15zm-43 -4c-1,1 -1,1 -1,2 0,-1 0,-1 1,-2zm-1 2l0 1c0,3 1,6 3,7 -2,-1 -3,-4 -3,-7l0 -1zm4 9c0,0 0,0 1,0l0 1c0,-1 -1,-1 -1,-1zm59 28c1,1 1,2 1,4 0,-1 0,-2 0,-3 -1,0 -1,-1 -1,-1zm-45 27c2,0 4,0 6,0 7,0 13,-1 17,-4 1,-1 1,-1 2,-2 -5,4 -12,6 -19,6 -2,0 -4,0 -6,0zm-22 -40c-2,-1 -4,-2 -6,-4 -2,-2 -4,-4 -5,-7 1,2 3,5 5,7 1,2 4,3 6,4zm237 42l0 0c1,4 2,8 2,10l23 0 0 -3 0 0 0 0 0 0 0 0 0 0 0 0 0 3 0 0 0 0 -23 0 0 0 0 0c-1,-3 -1,-8 -2,-14 -1,-8 -1,-18 -1,-21 0,-6 -1,-12 -4,-17 -3,-3 -7,-6 -15,-7 11,1 16,7 18,13 0,2 0,3 1,5 0,2 0,4 0,6 0,4 0,15 1,25zm22 5l0 -1c-1,0 -1,0 -1,-1l0 0 -1 0 0 0 1 0 0 0c1,1 2,2 3,3 0,0 -1,-1 -2,-1zm-5 -40l0 0 0 0 0 -2 0 -1 0 0 0 -1 0 0c-1,-1 -1,-2 -1,-3l0 -1 0 0c0,0 0,-1 -1,-1 -3,-10 -9,-12 -14,-15 2,-1 5,-3 8,-5l0 0c1,-1 2,-2 3,-3l0 0c0,-1 1,-1 1,-2l0 0c0,0 1,-1 1,-1 3,-4 4,-8 5,-14 0,0 1,-1 1,-2 0,-1 0,-2 0,-3l0 0 0 -2 0 0 0 -1 0 0c0,-1 0,-2 0,-2l0 0 0 -1 0 -1 0 0 0 -1 0 -1 0 0c0,-1 -1,-1 -1,-2l0 0 0 -2 0 0 0 0 0 -1 0 -1 -1 0c0,-2 -1,-4 -2,-6l0 0c-1,-2 -1,-3 -2,-4l0 0c-3,-3 -5,-6 -9,-8l0 0c-7,-5 -16,-7 -26,-7l0 0c-2,0 -3,-1 -5,-1l-64 0 0 140 18 0 0 -60 46 0c1,0 2,0 3,0 -1,0 -2,0 -3,0l-46 0 0 60 0 0 0 0 -18 0 0 0 0 0 0 -140 0 0 0 0 64 0c13,0 26,3 34,10 7,6 12,15 12,28 0,10 -3,17 -6,22 -4,6 -9,9 -13,11 4,2 8,4 11,8 3,3 5,9 5,19l1 25c0,1 1,2 1,3 0,-1 -1,-2 -1,-3l-1 -25c0,-1 0,-2 0,-3zm2 32c0,2 0,3 1,4 -1,-1 -1,-2 -1,-4zm1 4l0 1 0 0c0,0 0,-1 0,-1zm0 1c0,0 0,0 0,1 0,-1 0,-1 0,-1zm-41 -52c-1,0 -2,0 -2,0 0,0 1,0 2,0zm-2 -16l0 0c-2,0 -3,0 -5,0l-44 0 0 -47 47 0c1,0 2,0 3,0 8,0 18,2 21,14 -1,-5 -4,-9 -7,-11 -6,-3 -12,-3 -17,-3l-47 0 0 47 44 0c7,0 14,-1 19,-4 -4,2 -9,3 -14,4zm15 -5c2,-1 3,-2 4,-4 -1,2 -2,3 -4,4zm4 -4c2,-2 3,-5 4,-8 -1,3 -2,6 -4,8zm4 -9c0,-1 0,-3 1,-5 -1,2 -1,3 -1,4 0,1 0,1 0,1zm1 -5l0 -1c0,-1 0,-2 -1,-2 1,0 1,1 1,2l0 1zm-1 -6c0,-1 0,-2 0,-3 0,1 0,2 0,3zm66 73l0 0c0,-3 -1,-6 -1,-10 0,9 3,17 7,22 2,2 4,3 7,5 -6,-4 -11,-9 -13,-17zm73 -16l0 0c0,-4 0,-7 -1,-10l0 0c0,-2 0,-3 0,-5l0 0c-1,-2 -1,-4 -1,-6l-1 -1c0,-1 0,-2 -1,-3l0 0c-1,-3 -2,-6 -3,-9l0 0 -1 -1 0 -1c-2,-3 -4,-6 -6,-8l0 -1c-3,-2 -6,-5 -9,-6l0 0 -1 -1 0 0c-1,-1 -2,-1 -3,-1l0 -1c-2,0 -4,-1 -6,-1l0 0 -1 0 0 -1c-1,0 -2,0 -3,0l0 0c0,0 -1,0 -2,0l0 0c-1,0 -2,0 -3,0l0 0c0,-1 -1,-1 -2,-1l0 0 -1 0 -1 0 0 1 -1 0 -1 0 -1 0 -1 0 0 0 -1 0 -1 0 0 0c-2,0 -3,0 -4,1 -1,0 -2,0 -3,0l0 0c-3,1 -5,2 -7,3l0 0c-4,2 -8,5 -11,8l0 0c-2,2 -4,4 -5,6l-1 1c-1,2 -3,5 -4,8l0 0c-1,3 -2,6 -3,9l0 0c0,1 -1,2 -1,3l0 1c-1,5 -2,10 -2,16l0 2 0 0 1 1 0 1c0,8 2,16 5,22l0 0c6,13 17,22 32,24l0 0 1 1 0 0c2,0 5,0 7,0 5,0 8,0 12,-1 -4,1 -7,1 -12,1 -14,0 -25,-5 -33,-14 -8,-9 -13,-22 -13,-37 0,-17 5,-31 14,-42 8,-9 19,-15 35,-15 15,0 25,6 33,16 7,10 11,25 11,44l0 0 0 0 -74 0 0 0 0 0 74 0 0 -3zm-28 31c6,-4 9,-10 9,-14 -1,8 -10,19 -26,19 -6,0 -11,-1 -15,-3 4,2 9,3 15,3 7,0 13,-2 17,-5zm10 -15l0 0 0 0 0 0 17 0 0 0 0 0c-1,3 -2,7 -5,13 -3,5 -7,11 -13,15 -3,1 -5,3 -9,4 4,-1 6,-3 9,-4 5,-3 8,-8 11,-12 1,-1 2,-2 2,-3m-22 20l-1 0c0,0 -1,0 -2,0 1,0 2,0 3,0zm-3 0c-1,1 -3,1 -4,1 1,0 3,0 4,-1zm-43 -46c0,1 0,2 0,3 0,-1 0,-2 0,-3zm8 -35c-5,5 -8,13 -8,21l56 0c0,-1 0,-3 0,-4 0,1 0,3 0,4l-56 0c0,-16 12,-30 28,-30 9,0 15,2 19,7 -4,-5 -10,-7 -19,-7 -8,0 -15,3 -20,9zm48 17c0,-2 -1,-5 -1,-7 0,2 1,5 1,7zm-1 -7c-2,-4 -4,-8 -7,-12l0 0c3,3 5,7 7,12zm70 -47l0 0 1 0 0 -1c0,0 0,-1 0,-1l0 -1c0,-1 1,-2 1,-3 1,-1 2,-2 4,-3l1 0 0 0 1 0c1,0 2,0 2,0l1 0 1 0 1 0 0 0 0 0 0 0 0 0 1 0 0 0c-2,0 -3,0 -4,0 -3,0 -6,1 -7,3 -2,2 -3,5 -3,9l0 12 17 0 0 0 0 0 0 15 0 0 0 0 -17 0 0 87 0 0 0 0 -17 0 0 0 0 0 0 -87 -14 0 0 0 0 0 0 -15 0 0 0 0 14 0 0 -17c0,-8 3,-13 7,-17 4,-4 11,-5 20,-5l1 0 -1 0c-9,0 -15,1 -20,5l0 0c-4,4 -7,9 -7,17l0 17 -14 0 0 15 14 0 0 87 17 0 0 -87 17 0 0 -15 -17 0 0 -12c0,-1 0,-2 0,-3zm16 -24l1 0 0 0 0 0 0 0 0 15 0 0 0 0c-1,0 -2,0 -3,0m79 22l0 0 0 0 -1 0 1 0c1,0 1,0 2,0 -1,0 -1,0 -2,0zm-23 25c-5,5 -8,12 -8,20 1,-14 10,-26 24,-27 -6,0 -12,3 -16,7zm-8 20l0 0 0 59 0 0 0 0 -17 0 0 0 0 0 0 -102 0 0 0 0 16 0 0 0 0 0 0 17 1 0 0 0 0 0 -1 0 0 -17 -16 0 0 102 17 0 0 -59 0 0zm0 -26c1,-1 1,-2 1,-2l0 1 -1 1zm2 -4c3,-4 6,-7 10,-10 2,-2 5,-3 7,-4 -6,2 -12,7 -17,14zm17 -14c3,-1 5,-1 7,-1 -2,0 -4,0 -7,1zm7 -1c1,-1 2,-1 2,-1l1 0 -1 0c0,0 -1,0 -2,1zm7 0l0 0 0 0 0 0 0 18 0 0 0 0 -7 0c0,0 -1,0 -1,0 0,0 1,0 1,0l7 0 0 -18 0 0zm34 72l0 0c-1,-3 -2,-6 -2,-10 1,9 3,17 8,22 1,2 4,3 6,5 -6,-4 -10,-9 -12,-17zm72 -16l0 0c0,-4 0,-7 0,-10l-1 0c0,-2 0,-3 0,-5l0 0c0,-2 -1,-4 -1,-6l0 -1c-1,-1 -1,-2 -1,-3l0 0c-1,-3 -2,-6 -4,-9l0 0 -1 -1 0 -1c-1,-3 -3,-6 -6,-8l0 -1c-3,-2 -6,-5 -9,-6l0 0 -1 -1 0 0c-1,-1 -2,-1 -3,-1l0 -1c-2,0 -4,-1 -5,-1l-1 0 0 0 -1 -1c-1,0 -2,0 -2,0l0 0c-1,0 -2,0 -2,0l-1 0c-1,0 -2,0 -3,0l0 0c0,-1 -1,-1 -2,-1l0 0 -1 0 0 0 -1 1 -1 0 -1 0 -1 0 0 0 -1 0 0 0 -2 0 0 0c-1,0 -3,0 -4,1 -1,0 -2,0 -2,0l-1 0c-2,1 -5,2 -7,3l0 0c-4,2 -8,5 -11,8l0 0c-2,2 -4,4 -5,6l0 1c-2,2 -4,5 -5,8l0 0c-1,3 -2,6 -3,9l0 0c0,1 -1,2 -1,3l0 1c-1,5 -1,10 -1,16l0 2 0 0 0 1 0 1c0,8 2,16 5,22l0 0c6,13 17,22 32,24l0 0 1 1 0 0c3,0 5,0 7,0 5,0 9,0 12,-1 -3,1 -7,1 -12,1 -14,0 -25,-5 -33,-14 -8,-9 -12,-22 -12,-37 0,-17 4,-31 13,-42 8,-9 20,-15 35,-15 15,0 26,6 33,16 7,10 11,25 11,44l0 0 0 0 -74 0 0 0 0 0 74 0 0 -3zm-27 31c5,-4 8,-10 9,-14 -2,8 -11,19 -27,19 -5,0 -11,-1 -15,-3 4,2 10,3 15,3 8,0 13,-2 18,-5zm9 -15l0 0 0 0 0 0 17 0 0 0 0 0c0,3 -2,7 -5,13 -2,5 -7,11 -13,15 -2,1 -5,3 -8,4 3,-1 6,-3 8,-4 5,-3 9,-8 11,-12 1,-1 2,-2 2,-3m-22 20l-1 0c0,0 -1,0 -2,0 1,0 2,0 3,0zm-3 0c-1,1 -3,1 -4,1 1,0 3,0 4,-1zm-43 -46c0,1 0,2 0,3 0,-1 0,-2 0,-3zm8 -35c-5,5 -8,13 -8,21l57 0c-1,-1 -1,-3 -1,-4 0,1 0,3 1,4l-57 0c0,-16 12,-30 28,-30 9,0 15,2 20,7 -5,-5 -11,-7 -20,-7 -8,0 -15,3 -20,9zm48 17c0,-2 -1,-5 -1,-7 0,2 1,5 1,7zm-1 -7c-2,-4 -4,-8 -7,-12l0 0c3,3 5,7 7,12zm112 -27l0 0c-1,-1 -3,-2 -4,-2l-1 -1c-2,-1 -5,-2 -8,-3l0 0c-2,0 -4,-1 -5,-1l-1 0 -1 0 0 0 -1 0 -1 0 -1 0 -1 0 0 0 -1 -1c-1,0 -2,0 -2,0 -1,0 -2,0 -3,1l0 0c-13,0 -26,5 -32,16l0 1c-1,0 -1,1 -1,2l0 0c-1,2 -2,4 -2,5l0 1c0,0 0,1 0,1l0 0c0,1 -1,2 -1,3l0 1c0,0 0,1 0,2l0 0c0,1 0,2 0,2 1,2 1,4 2,6 -1,-2 -2,-5 -2,-8 0,-10 4,-18 11,-24 7,-6 17,-9 28,-9 13,0 22,4 27,9 11,8 12,20 12,23l0 0 0 0 -17 0 0 0 0 0 0 -1c0,1 0,1 0,1l17 0c0,-3 -1,-15 -12,-24zm-52 46l0 0c2,1 3,1 4,2l0 0c1,0 2,1 3,1 1,0 2,0 3,1l20 4c11,3 17,6 19,10 0,1 0,2 1,3l0 0c0,1 0,1 0,2 0,4 -2,8 -5,10 3,-2 5,-6 5,-10 0,-4 -2,-7 -5,-9 -3,-2 -8,-4 -15,-6l-20 -4c-4,-1 -8,-3 -11,-5 0,1 1,1 1,1zm-17 24l0 0c1,2 1,5 2,7 1,2 1,4 3,7l0 0c1,1 1,1 1,2 2,2 4,5 8,7l0 0c0,0 1,1 1,1l0 0c2,1 3,1 4,2l0 0c1,0 2,1 3,1l0 0c1,0 3,1 5,1l0 0 1 1 0 0 1 0 1 0 1 0 0 0 1 0 1 0c3,1 6,1 10,1l0 0 1 0c4,0 8,0 12,-1 -4,1 -8,1 -12,1 -20,0 -31,-6 -37,-13 -6,-8 -7,-16 -7,-23l0 0 0 0 16 0 0 0 0 0c1,4 2,10 5,14 3,3 8,6 17,7 -19,-2 -21,-13 -22,-21l-16 0c0,2 0,4 0,6zm84 1l0 0 0 -1 0 -1 0 0 0 0c0,-1 0,-2 0,-3 0,-1 0,-3 0,-4 0,1 0,3 0,4 0,11 -4,19 -11,25 -5,3 -10,6 -17,8 15,-4 26,-14 28,-28zm-15 -27l-1 0 -1 -1c-1,0 -3,-1 -5,-2l-1 0 -1 0 -1 -1 0 0c-1,0 -2,0 -4,0l-17 -5 -3 -1c-1,0 -2,0 -3,0 -3,-1 -5,-2 -7,-3 3,1 7,3 13,4l17 5c11,2 18,5 23,10 2,2 4,5 5,8 -1,-2 -2,-4 -3,-6 -1,-1 -3,-3 -4,-4 -2,-1 -4,-3 -7,-4zm-41 -34l0 0c1,-1 1,-1 2,-1l0 0c4,-1 8,-2 10,-2l1 0 -1 0c-3,0 -10,1 -15,4 -2,2 -4,4 -5,8 1,-5 5,-8 8,-9zm36 13c0,-3 -1,-7 -4,-10 -3,-3 -8,-5 -18,-6 2,0 3,0 4,1 2,0 3,0 4,0 11,3 14,10 14,15zm-44 -4c0,1 0,1 0,2 0,-1 0,-1 0,-2zm0 2l0 1c0,3 1,6 3,7 -2,-1 -3,-4 -3,-7l0 -1zm3 9c1,0 1,0 1,0l1 1c-1,-1 -1,-1 -2,-1zm60 28c0,1 0,2 1,4 0,-1 -1,-2 -1,-3 0,0 0,-1 0,-1zm-45 27c2,0 3,0 6,0 6,0 12,-1 17,-4 0,-1 1,-1 1,-2 -4,4 -11,6 -18,6 -3,0 -4,0 -6,0zm-22 -40c-3,-1 -5,-2 -6,-4 -2,-2 -4,-4 -5,-7 1,2 2,5 4,7 2,2 4,3 7,4zm180 -19l0 0 0 -1 0 -1 0 -2 0 0 0 -1 0 0 0 -1 0 0c-1,-4 -2,-8 -3,-11l-1 0c-1,-3 -4,-6 -7,-9l0 0c-7,-6 -16,-8 -24,-8l-1 0 0 0c-1,0 -1,1 -2,1 -1,0 -3,0 -4,0 -9,2 -15,6 -19,11 2,-2 4,-4 6,-6 5,-3 11,-6 20,-6 9,0 19,3 26,10 5,5 9,13 9,26l0 69 0 0 0 0 -17 0 0 0 0 0 0 -66c0,-7 -1,-13 -4,-17 -3,-4 -7,-6 -14,-6 1,0 2,0 3,0l2 0c7,2 11,7 12,14 1,3 1,6 1,9l0 66 17 0 0 -69 0 -2zm-37 -18l0 0 -1 0 1 0 0 0zm-1 0c-1,0 -2,0 -4,0 2,0 3,0 4,0zm-4 0c-6,1 -12,4 -16,9 -4,5 -7,12 -7,22 1,-21 11,-29 23,-31zm-24 31c0,1 0,2 0,3l0 55 0 0 0 0 -17 0 0 0 0 0 0 -140 0 0 0 0 17 0 0 0 0 0 0 52 1 0c1,-1 2,-3 3,-4 -1,1 -2,3 -3,4l-1 0 0 -52 -17 0 0 140 17 0 0 -55c0,-1 0,-2 0,-3zm116 26l0 0c-1,-3 -1,-6 -1,-10 0,9 3,17 7,22 2,2 4,3 7,5 -6,-4 -11,-9 -13,-17zm73 -16l0 0c0,-4 0,-7 -1,-10l0 0c0,-2 0,-3 0,-5l-1 0c0,-2 0,-4 -1,-6l0 -1c0,-1 0,-2 -1,-3l0 0c-1,-3 -2,-6 -3,-9l0 0 -1 -1 0 -1c-2,-3 -4,-6 -6,-8l0 -1c-3,-2 -6,-5 -9,-6l0 0 -1 -1 0 0c-1,-1 -2,-1 -3,-1l0 -1c-2,0 -4,-1 -6,-1l0 0 -1 0 0 -1c-1,0 -2,0 -3,0l0 0c-1,0 -1,0 -2,0l0 0c-1,0 -2,0 -3,0l0 0c-1,-1 -1,-1 -2,-1l0 0 -1 0 -1 0 -1 1 0 0 -1 0 -1 0 -1 0 0 0 -1 0 -1 0 -1 0c-1,0 -2,0 -3,1 -1,0 -2,0 -3,0l0 0c-3,1 -5,2 -7,3l0 0c-5,2 -8,5 -11,8l0 0c-2,2 -4,4 -6,6l0 1c-2,2 -3,5 -4,8l0 0c-2,3 -2,6 -3,9l0 0c-1,1 -1,2 -1,3l0 1c-1,5 -2,10 -2,16l0 2 0 0 0 1 0 1c1,8 3,16 6,22l0 0c6,13 17,22 32,24l0 0 1 1 0 0c2,0 4,0 7,0 4,0 8,0 11,-1 -3,1 -7,1 -11,1 -14,0 -25,-5 -33,-14 -8,-9 -13,-22 -13,-37 0,-17 4,-31 13,-42 8,-9 20,-15 36,-15 14,0 25,6 32,16 8,10 12,25 12,44l0 0 0 0 -74 0 0 0 0 0 74 0 0 -3zm-28 31c5,-4 9,-10 9,-14 -1,8 -10,19 -26,19 -6,0 -11,-1 -15,-3 4,2 9,3 15,3 7,0 13,-2 17,-5zm9 -15l0 0 0 0 0 0 17 0 0 0 0 0c0,3 -1,7 -4,13 -3,5 -7,11 -14,15 -2,1 -4,3 -8,4 4,-1 6,-3 8,-4 5,-3 9,-8 12,-12 1,-1 1,-2 2,-3m-23 20l0 0c-1,0 -1,0 -2,0 1,0 2,0 2,0zm-2 0c-1,1 -3,1 -5,1 2,0 4,0 5,-1zm-43 -46c0,1 0,2 0,3 0,-1 0,-2 0,-3zm8 -35c-5,5 -8,13 -8,21l56 0c0,-1 0,-3 0,-4 0,1 0,3 0,4l-56 0c0,-16 12,-30 28,-30 9,0 15,2 19,7 -4,-5 -10,-7 -19,-7 -8,0 -15,3 -20,9zm48 17c-1,-2 -1,-5 -2,-7 1,2 1,5 2,7zm-2 -7c-1,-4 -3,-8 -6,-12l-1 0c4,3 6,7 7,12zm100 -34l0 0 0 0 -1 0 1 0c1,0 1,0 2,0 -1,0 -1,0 -2,0zm-23 25c-5,5 -7,12 -8,20 1,-14 10,-26 25,-27 -7,0 -13,3 -17,7zm-8 20l0 0 0 59 0 0 0 0 -17 0 0 0 0 0 0 -102 0 0 0 0 16 0 0 0 0 0 0 17 1 0 0 0 0 0 -1 0 0 -17 -16 0 0 102 17 0 0 -59 0 0zm0 -26c1,-1 1,-2 1,-2l0 1 -1 1zm3 -4c2,-4 5,-7 9,-10 2,-2 5,-3 8,-4 -7,2 -13,7 -17,14zm17 -14c2,-1 4,-1 6,-1 -2,0 -4,0 -6,1zm6 -1c1,-1 2,-1 2,-1l1 0 -1 0c0,0 -1,0 -2,1zm7 0l0 0 0 0 0 0 0 18 0 0 0 0 -7 0c0,0 -1,0 -1,0 0,0 1,0 1,0l7 0 0 -18 0 0z"/>
  </g>
 </g>
</svg>
