<?xml version="1.0" encoding="UTF-8"?>
<!DOCTYPE svg PUBLIC "-//W3C//DTD SVG 1.1//EN" "http://www.w3.org/Graphics/SVG/1.1/DTD/svg11.dtd">
<!-- Creator: CorelDRAW X8 -->
<svg xmlns="http://www.w3.org/2000/svg" xml:space="preserve" width="11in" height="11in" version="1.1" style="shape-rendering:geometricPrecision; text-rendering:geometricPrecision; image-rendering:optimizeQuality; fill-rule:evenodd; clip-rule:evenodd"
viewBox="0 0 11000 11000"
 xmlns:xlink="http://www.w3.org/1999/xlink">
 <defs>
  <style type="text/css">
   <![CDATA[
    .fil0 {fill:#7F8C8D}
   ]]>
  </style>
   <clipPath id="id0">
    <rect x="5180" y="5073" width="640" height="853"/>
   </clipPath>
 </defs>
 <g id="Layer_x0020_1">
  <metadata id="CorelCorpID_0Corel-Layer"/>
  <g id="_2256759051024">
   <g>
    <polygon class="fil0" points="6473,8150 6480,8156 6480,8144 6473,8150 6459,8138 6460,8150 "/>
    <polygon class="fil0" points="6470,8159 6480,8155 6480,8156 6473,8150 6460,8150 6464,8153 "/>
    <path class="fil0" d="M6493 8156c-6,-9 5,-10 -13,0l0 0 0 -1 13 1z"/>
    <polygon class="fil0" points="6480,8156 6480,8144 6480,8156 "/>
   </g>
   <g>
    <path class="fil0" d="M6513 8169c-11,6 16,8 -17,5 -20,-1 -4,6 -9,-5l-7 0 -7 0 -13 -13 0 -18 -178 -102c-84,-53 -240,-132 -337,-190l-338 -190c-11,-6 -10,-5 -22,-11 -21,-10 -16,-11 -36,-22 -18,-10 -26,-13 -42,-23 -15,-9 -20,-11 -38,-21l-199 -113c-21,-11 -19,-7 -39,-20l-358 -202c-16,-8 -22,-10 -38,-21l-915 -510c2,-66 78,-53 53,-150 -28,-7 -62,-10 -93,-13 -52,-5 -35,-20 -87,-25 -148,-15 -82,-22 -135,-30 -23,-3 -33,4 -45,-7l-6 18c-5,2 9,7 -25,6 -21,0 -1,4 -9,-6l-6 -6 -7 -19c-36,-17 -40,-21 -73,-6 0,44 2,42 24,65l122 172c9,0 6,0 15,2 2,0 5,4 6,2 2,-2 4,2 6,3 21,5 6,1 20,6l0 31 15 36c13,20 14,18 29,36 36,43 36,47 76,47 57,-100 59,-120 140,-69 16,10 24,13 42,23l446 251c18,11 27,17 45,26 19,10 26,16 42,24l313 175c12,8 7,6 20,12 9,5 11,4 22,11 12,7 8,6 20,13l1666 937c27,16 34,6 37,35l67 0c0,-22 -5,-20 7,-26 0,-14 -5,-12 6,-12l7 -6 0 -3094c0,-50 -16,-163 20,-181l0 -44c12,-6 7,-7 20,-13 9,-20 14,-19 21,-48 8,-27 1,-31 26,-51l0 -44c12,-6 7,-7 20,-13 20,-47 27,-80 53,-112l0 -25c21,-12 -6,14 7,-7 17,-47 33,-35 33,-106 -43,-19 -117,-12 -180,-12 -14,25 10,18 -40,18 -12,-19 -33,-9 -60,-18l-40 0c-55,0 -99,-6 -140,12 0,81 15,53 41,143 7,25 11,23 21,43 7,17 7,30 14,49 8,20 16,27 22,42 7,17 8,34 14,49 9,21 14,19 22,42 7,19 4,29 15,49 31,61 31,67 31,158l0 2982c0,134 9,132 -51,98 -7,-4 -35,-17 -36,-17z"/>
    <path class="fil0" d="M6613 2444c-10,-2 -3,-8 -13,0l0 2075c27,9 48,-1 60,18 50,0 26,7 40,-18 -22,0 -23,14 -21,-50l1 -2025c-11,-7 -20,-14 -33,-19 -2,4 -3,14 -7,19l-27 0z"/>
    <path class="fil0" d="M6613 2444l27 0c4,-5 5,-15 7,-19 -34,0 -13,-2 -20,6 -27,0 -3,-2 -14,13z"/>
    <path class="fil0" d="M3660 6719c14,19 11,4 13,25 -10,16 -10,7 7,12l0 -31c-14,-5 1,-1 -20,-6 -2,-1 -4,-5 -6,-3 -1,2 -4,-2 -6,-2 -9,-2 -6,-2 -15,-2l0 7 27 0z"/>
    <path class="fil0" d="M3567 6500l6 6c8,10 -12,6 9,6 34,1 20,-4 25,-6l6 -18 -6 0c0,14 5,12 -7,12 -4,2 -1,2 -17,6 -2,0 -6,0 -10,0l0 -6 -6 0 0 -12 -7 -7 7 19z"/>
    <path class="fil0" d="M3653 6737l14 1c-11,10 -9,6 6,6 -2,-21 1,-6 -13,-25l-27 0 14 0c4,4 5,15 6,18z"/>
    <polygon class="fil0" points="6487,8169 6507,8169 6507,8156 6493,8156 6480,8155 6480,8169 "/>
    <polygon class="fil0" points="3600,6500 3600,6488 3573,6488 3573,6500 "/>
    <path class="fil0" d="M6767 4838l6 -13 0 -25c22,-12 -6,14 7,-6 5,-15 -7,-13 7,-13 -13,6 -8,7 -20,13l0 44z"/>
    <path class="fil0" d="M6700 4994l7 -13 0 -25c21,-12 -6,14 6,-6 5,-15 -7,-12 7,-13 -13,6 -8,7 -20,13l0 44z"/>
    <path class="fil0" d="M3573 6500l0 6c4,0 8,0 10,0 16,-4 13,-4 17,-6 12,0 7,2 7,-12l-7 0 0 12 -27 0 0 -12 -6 0 0 12 6 0z"/>
    <path class="fil0" d="M6667 8287c-12,6 -7,4 -7,26l7 -19 0 -7 13 -12 0 -6 -7 6c-11,0 -6,-2 -6,12z"/>
    <path class="fil0" d="M6513 8169l-6 0 -20 0c5,11 -11,4 9,5 33,3 6,1 17,-5z"/>
    <polygon class="fil0" points="6480,8169 6480,8155 6470,8159 6473,8169 "/>
    <polygon class="fil0" points="6473,8169 6470,8159 6464,8153 6460,8156 "/>
    <polygon class="fil0" points="6667,8287 6667,8294 6673,8288 6673,8287 6680,8275 "/>
    <polygon class="fil0" points="6513,8169 6507,8156 6507,8169 "/>
    <path class="fil0" d="M6773 4825c0,-25 -1,-15 7,-31 -13,20 15,-6 -7,6l0 25z"/>
    <path class="fil0" d="M6707 4981c0,-25 -1,-15 6,-31 -12,20 15,-6 -6,6l0 25z"/>
    <path class="fil0" d="M6840 4669c0,-25 -1,-16 7,-32 -13,21 14,-5 -7,7l0 25z"/>
    <polygon class="fil0" points="6460,8156 6464,8153 6470,8159 6464,8153 6460,8150 6459,8138 6460,8138 "/>
    <polygon class="fil0" points="3667,6738 3653,6737 "/>
    <polygon class="fil0" points="6673,8287 6673,8288 "/>
   </g>
  </g>
  <g style="clip-path:url(#id0)">
   <image id="overlead.png" x="5180" y="5073" width="640" height="853" xlink:href="nta_Images\nta_ImgID1.png"/>
  </g>
 </g>
</svg>
