<?xml version="1.0" encoding="UTF-8"?>
<!DOCTYPE svg PUBLIC "-//W3C//DTD SVG 1.1//EN" "http://www.w3.org/Graphics/SVG/1.1/DTD/svg11.dtd">
<!-- Creator: CorelDRAW X8 -->
<svg xmlns="http://www.w3.org/2000/svg" xml:space="preserve" width="11in" height="11in" version="1.1" style="shape-rendering:geometricPrecision; text-rendering:geometricPrecision; image-rendering:optimizeQuality; fill-rule:evenodd; clip-rule:evenodd"
viewBox="0 0 11000 11000"
 xmlns:xlink="http://www.w3.org/1999/xlink">
 <defs>
  <style type="text/css">
   <![CDATA[
    .fil0 {fill:#7F8C8D}
   ]]>
  </style>
 </defs>
 <g id="Layer_x0020_1">
  <metadata id="CorelCorpID_0Corel-Layer"/>
  <g id="_2256762043760">
   <g>
    <path class="fil0" d="M5500 1875c19,82 28,92 62,156 -178,95 -332,213 -518,326 -386,235 -1237,856 -1544,1018l0 5906c177,-41 2724,-1727 3010,-1896 170,-100 328,-249 459,-260 22,91 -4,45 62,94 98,-146 193,-239 282,-406 -135,2 -108,-7 -188,62 -149,-49 -5,-14 -53,-40 -27,-15 -31,-10 -47,2 -25,20 68,-11 -49,45 -74,35 -31,22 -132,24 19,82 28,92 62,156l-1243 788c-142,95 -275,177 -419,269l-1257 805c-155,95 -276,185 -424,263l0 -5718 1999 1343c-35,134 -115,123 77,171 109,28 254,43 330,80l35 -124c-9,-4 -18,-9 -19,-4 0,0 -69,10 -142,-88 -41,-54 -84,-131 -124,-191l-120 99c-155,-104 -1929,-1266 -2005,-1380 122,-33 380,-238 501,-311 181,-108 331,-212 511,-333 173,-115 323,-215 488,-325 118,-78 404,-302 531,-312 25,94 0,68 94,94 32,-122 137,-243 228,-318 53,-45 40,55 53,-89 -176,15 -328,90 -500,94zm-1813 1562c60,12 112,-39 20,-19 -2,0 -129,-1 -20,19z"/>
    <path class="fil0" d="M5500 3625c125,-66 347,-152 500,-188 -14,-159 3,-21 -214,-96 -102,-35 -143,-79 -286,-91l-7 253c9,50 7,71 7,122z"/>
    <polygon class="fil0" points="5937,2656 6000,2656 6000,2563 5937,2563 "/>
    <path class="fil0" d="M5937 4219l63 0 0 -94c-52,36 -60,7 -63,94z"/>
    <path class="fil0" d="M5937 5594l63 0 0 -94c-52,36 -60,7 -63,94z"/>
    <path class="fil0" d="M5937 5406l63 0 0 -93c-52,35 -60,6 -63,93z"/>
    <path class="fil0" d="M5937 4031l63 0 0 -93c-52,35 -60,6 -63,93z"/>
    <path class="fil0" d="M5937 2063l63 0 0 -94c-52,36 -60,6 -63,94z"/>
    <path class="fil0" d="M5937 2250l63 0 0 -94c-52,36 -60,7 -63,94z"/>
    <path class="fil0" d="M5937 2844l63 0 0 -94c-52,36 -60,7 -63,94z"/>
    <path class="fil0" d="M5937 3625l63 0 0 -94c-52,36 -60,7 -63,94z"/>
    <path class="fil0" d="M5937 4812l63 0 0 -93c-52,36 -60,6 -63,93z"/>
    <path class="fil0" d="M6000 3844l0 -94 -63 0c21,86 -12,49 63,94z"/>
    <path class="fil0" d="M6000 3062l0 -93 -63 0c21,85 -12,48 63,93z"/>
    <path class="fil0" d="M6000 3250l0 -94 -63 0c21,86 -12,49 63,94z"/>
    <path class="fil0" d="M6000 5219l0 -94 -63 0c21,86 -12,49 63,94z"/>
    <path class="fil0" d="M6000 4437l0 -93 -63 0c21,85 -12,48 63,93z"/>
    <path class="fil0" d="M6000 4625l0 -94 -63 0c21,86 -12,49 63,94z"/>
    <path class="fil0" d="M6000 5813l0 -94 -63 0c21,85 -12,48 63,94z"/>
    <path class="fil0" d="M6000 2469l0 -94 -63 0c21,86 -12,49 63,94z"/>
    <path class="fil0" d="M6031 6875c92,-22 45,4 94,-62l-94 0 0 62z"/>
    <path class="fil0" d="M6625 6875c91,-22 45,4 94,-62l-94 0 0 62z"/>
    <path class="fil0" d="M6500 6875l0 -62 -94 0c50,70 6,36 94,62z"/>
    <polygon class="fil0" points="5813,6844 5937,6844 5937,6813 5813,6813 "/>
    <polygon class="fil0" points="4437,3437 4562,3437 4562,3406 4437,3406 "/>
    <polygon class="fil0" points="5219,3437 5344,3437 5344,3406 5219,3406 "/>
    <path class="fil0" d="M6312 6813l-93 0c70,97 23,97 93,0z"/>
    <path class="fil0" d="M6906 6813l-93 0c70,97 23,97 93,0z"/>
    <polygon class="fil0" points="3687,6844 3781,6844 3781,6813 3687,6813 "/>
    <polygon class="fil0" points="3875,6844 3969,6844 3969,6813 3875,6813 "/>
    <polygon class="fil0" points="4062,6844 4156,6844 4156,6813 4062,6813 "/>
    <polygon class="fil0" points="4250,6844 4344,6844 4344,6813 4250,6813 "/>
    <polygon class="fil0" points="4469,6844 4562,6844 4562,6813 4469,6813 "/>
    <polygon class="fil0" points="4656,6844 4750,6844 4750,6813 4656,6813 "/>
    <polygon class="fil0" points="4844,6844 4938,6844 4938,6813 4844,6813 "/>
    <polygon class="fil0" points="5250,6844 5344,6844 5344,6813 5250,6813 "/>
    <polygon class="fil0" points="5438,6844 5531,6844 5531,6813 5438,6813 "/>
    <polygon class="fil0" points="5625,6844 5719,6844 5719,6813 5625,6813 "/>
    <polygon class="fil0" points="5031,6844 5125,6844 5125,6813 5031,6813 "/>
    <polygon class="fil0" points="3875,3437 3969,3437 3969,3406 3875,3406 "/>
    <polygon class="fil0" points="4062,3437 4156,3437 4156,3406 4062,3406 "/>
    <polygon class="fil0" points="4250,3437 4344,3437 4344,3406 4250,3406 "/>
    <polygon class="fil0" points="4656,3437 4750,3437 4750,3406 4656,3406 "/>
    <polygon class="fil0" points="5031,3437 5125,3437 5125,3406 5031,3406 "/>
    <polygon class="fil0" points="4844,3437 4938,3437 4938,3406 4844,3406 "/>
   </g>
  </g>
 </g>
</svg>
