<?xml version="1.0" encoding="UTF-8"?>
<!DOCTYPE svg PUBLIC "-//W3C//DTD SVG 1.1//EN" "http://www.w3.org/Graphics/SVG/1.1/DTD/svg11.dtd">
<!-- Creator: CorelDRAW X8 -->
<svg xmlns="http://www.w3.org/2000/svg" xml:space="preserve" width="11in" height="11in" version="1.1" style="shape-rendering:geometricPrecision; text-rendering:geometricPrecision; image-rendering:optimizeQuality; fill-rule:evenodd; clip-rule:evenodd"
viewBox="0 0 11000 11000"
 xmlns:xlink="http://www.w3.org/1999/xlink">
 <defs>
  <style type="text/css">
   <![CDATA[
    .fil0 {fill:#7F8C8D}
   ]]>
  </style>
 </defs>
 <g id="Layer_x0020_1">
  <metadata id="CorelCorpID_0Corel-Layer"/>
  <g id="_2256291403312">
   <g>
    <path class="fil0" d="M6107 4956c27,5 10,0 26,7 0,32 5,-2 -13,13l0 7 14 -6 3 -24 -7 -7 -30 -5 7 15z"/>
    <path class="fil0" d="M3607 3492c7,1 26,2 26,6l2 0 2 -10 -7 -6c-9,-2 -30,-11 -30,3l7 7z"/>
    <path class="fil0" d="M4273 3882c41,0 7,7 27,7l0 0 3 -9 -7 -7c-8,-1 -29,-11 -29,3l6 6z"/>
    <path class="fil0" d="M5193 2294l34 -7 -1 -6 4 -3 -23 -4c-2,1 -3,3 -4,4l-10 16z"/>
    <path class="fil0" d="M4440 3980l20 0 3 -3 4 9 0 0 0 0 2 -9 -6 0 0 -6c-8,-2 -30,-11 -30,2l7 7z"/>
    <path class="fil0" d="M3437 3436l3 -3 0 -26 14 -6c-1,-1 -7,-21 -18,1 -7,13 -1,22 1,34z"/>
    <path class="fil0" d="M4107 3785c7,1 26,2 26,6l1 0 2 -9 -6 -7 -30 3 7 7z"/>
    <path class="fil0" d="M3764 3127l-4 13c2,-1 10,-4 11,-5 3,-1 18,-5 19,-5l3 4 7 -8 -10 4 -3 -6 -20 0 -3 3z"/>
    <path class="fil0" d="M5773 4761l17 -4 6 11c2,-13 5,-11 -6,-11l-2 -6c-20,-8 -18,-1 -22,4l7 6z"/>
    <path class="fil0" d="M4940 4273l17 -4 7 6 3 4 0 7 3 -15 -6 4 -7 -6 -3 -6c-8,-2 -21,-10 -21,3l7 7z"/>
    <path class="fil0" d="M4773 4175l17 -4 7 7 3 4 0 0 4 -8 -7 4 -7 -7 -3 -6c-9,-2 -21,-10 -21,4l7 6z"/>
    <path class="fil0" d="M5273 4468l17 -4 7 7 3 4 0 0 -3 -4 -7 -7c-7,-24 -23,-3 -24,-2l7 6z"/>
    <path class="fil0" d="M4627 4084l6 0 -6 0 0 -16 -20 0c5,14 -9,5 20,16z"/>
    <path class="fil0" d="M5440 4566l17 -4 7 7 3 3 0 0 3 -7 -6 4 -7 -7 -3 -6c-8,-2 -21,-10 -21,3l7 7z"/>
    <path class="fil0" d="M5960 4865l7 0 -7 0 0 -15 -20 -1c6,14 -9,5 20,16z"/>
    <path class="fil0" d="M5107 4370l17 -3 7 6 2 4 0 0 -2 -4 -7 -6c-6,-16 -11,-10 -25,-6l0 3 8 6z"/>
    <path class="fil0" d="M3940 3687l17 -4 7 7 3 3 0 0 -3 -3 -7 -7c-6,-20 -14,-9 -24,-3l7 7z"/>
    <polygon class="fil0" points="3530,6976 3535,6979 3540,6955 3533,6947 3530,6947 "/>
    <polygon class="fil0" points="5363,2192 5358,2203 5373,2196 5380,2196 5390,2190 5391,2185 "/>
    <path class="fil0" d="M3760 3140l-1 7 14 -7 7 0 13 -6 -3 -4c-1,0 -16,4 -19,5 -1,1 -9,4 -11,5z"/>
    <polygon class="fil0" points="5607,4663 5624,4660 5631,4666 5633,4670 5633,4670 5637,4663 5631,4666 5624,4660 5621,4654 5600,4654 5600,4657 "/>
    <polygon class="fil0" points="3773,3589 3790,3585 3797,3592 3800,3596 3801,3596 3797,3592 3790,3585 3787,3580 3766,3579 3766,3583 "/>
    <path class="fil0" d="M6120 4976c18,-15 13,19 13,-13 -16,-7 1,-2 -26,-7l20 6c-15,1 -1,-1 -7,14z"/>
    <path class="fil0" d="M6096 1692l4 -10c-18,0 -13,-4 -13,13l9 -3z"/>
    <polygon class="fil0" points="4967,4279 4964,4275 4957,4269 4940,4273 "/>
    <polygon class="fil0" points="5467,4572 5464,4569 5457,4562 5440,4566 "/>
    <polygon class="fil0" points="4800,4182 4797,4178 4790,4171 4773,4175 "/>
    <polygon class="fil0" points="5633,4670 5631,4666 5624,4660 5607,4663 "/>
    <polygon class="fil0" points="3967,3693 3964,3690 3957,3683 3940,3687 "/>
    <polygon class="fil0" points="3800,3596 3797,3592 3790,3585 3773,3589 "/>
    <polygon class="fil0" points="5300,4475 5297,4471 5290,4464 5273,4468 "/>
    <polygon class="fil0" points="5193,2294 5192,2300 5207,2294 5213,2294 5227,2287 "/>
    <polygon class="fil0" points="5133,4377 5131,4373 5124,4367 5107,4370 "/>
    <polygon class="fil0" points="5797,4768 5796,4768 5790,4757 5773,4761 "/>
    <path class="fil0" d="M6100 1682l-4 10 -9 3c-19,-11 -8,-9 -14,0l23 -3c1,-2 3,-5 4,-4 1,1 3,-3 4,-3 1,-1 4,-3 5,-4l-4 -6 -5 7z"/>
    <path class="fil0" d="M4633 4084l1 7 3 -15c-8,5 -6,6 -6,-3l-4 -5 0 16 6 0z"/>
    <path class="fil0" d="M4500 2626c-18,0 -13,-5 -13,13l13 -13z"/>
    <path class="fil0" d="M4487 2639c-19,-12 -9,-8 -14,0l20 -1 7 -12 0 0 -13 13z"/>
    <path class="fil0" d="M5967 4865l0 0 3 -8c-7,5 -6,7 -6,-3l-4 -4 0 15 7 0z"/>
    <path class="fil0" d="M3543 6998l4 -3c-4,-5 0,-6 -7,-7l-9 0 5 4 7 6z"/>
    <polygon class="fil0" points="4460,3986 4467,3986 4467,3986 4460,3986 4460,3980 4440,3980 "/>
    <polygon class="fil0" points="3535,6979 3540,6981 3540,6955 "/>
    <polygon class="fil0" points="3540,6988 3540,6981 3535,6979 3531,6988 "/>
    <path class="fil0" d="M3636 3358l-4 3c9,-5 8,-2 15,-13l-8 4 -3 6z"/>
    <polygon class="fil0" points="4467,3986 4463,3977 4460,3980 4460,3986 "/>
    <path class="fil0" d="M4300 3889c-20,0 14,-7 -27,-7l27 7z"/>
    <path class="fil0" d="M4133 3791c0,-4 -19,-5 -26,-6l26 6z"/>
    <path class="fil0" d="M3633 3498c0,-4 -19,-5 -26,-6l26 6z"/>
    <polygon class="fil0" points="3780,3140 3773,3140 "/>
    <polygon class="fil0" points="5380,2196 5373,2196 "/>
    <polygon class="fil0" points="5213,2294 5207,2294 "/>
   </g>
   <g>
    <path class="fil0" d="M6120 1675c-2,32 -16,32 -16,32 0,-1 -3,1 -4,1l-27 0 -13 0 -362 206c-17,9 -24,16 -41,26 -20,12 -26,13 -45,27l-183 108c-10,5 -14,6 -22,11l-57 34c-11,14 -5,-7 -3,11l-7 20c-4,1 -2,2 -19,6 -5,0 -16,0 -21,0 -21,-1 -112,59 -113,59 -12,11 -6,-1 -7,13 -1,15 2,-3 -1,14 -2,10 -8,14 -18,16l-34 2 -106 53c-13,11 -7,-1 -8,12 0,9 0,25 -13,29l-40 4c-19,-1 -33,8 -56,23 -14,9 -15,10 -29,18l-22 17c0,11 0,11 -1,21 -1,2 -2,7 -3,6 0,0 0,7 -15,11l-41 2c-21,0 -106,52 -106,52 -12,11 -6,-1 -7,13 -2,30 -7,37 -31,32 -13,-3 -9,9 -9,-13 -21,9 -112,57 -120,72 0,40 0,45 -47,45l0 -6 -13 0c-15,0 0,-3 -20,6 -5,2 -16,8 -22,11l-668 395c-11,14 -5,-7 -3,11l-4 20c-8,2 2,2 -22,6 -6,0 -14,0 -21,0 -19,-1 6,-4 -13,2 -23,7 -62,37 -84,47 -13,7 -25,5 -23,23l-3 20c-8,1 1,2 -23,5 -6,1 -14,1 -21,1 -15,0 0,-3 -20,6 -60,26 -152,79 -153,149 -6,228 0,520 0,750 0,185 7,2584 -3,2626 -8,31 -13,25 -23,49 -8,17 -8,31 -16,50 -10,23 -15,19 -23,43 -8,22 -5,29 -16,49l-82 193c-11,33 0,40 -30,43l0 78c38,0 75,0 113,0 79,0 60,-8 100,13l0 39c-5,4 -16,5 -20,7l0 2109c32,20 30,23 74,13 17,-36 6,-438 6,-514l0 -1608c-9,-22 -11,-17 -13,-46 9,-5 8,-4 13,-13 31,0 48,-4 73,6l48 -10c12,-7 6,-3 12,-9 45,3 13,-1 40,13l22 -18c-9,-32 -15,-22 -24,-51l-47 -137c-17,-30 -10,-13 -17,-15l-7 -7 -7 -6 -6 -66c-17,-23 -13,-25 -20,-52 -7,-28 -9,-26 -20,-46 -16,-30 -12,-76 -40,-90 -13,-7 -9,-2 -14,-20 -2,-5 -2,4 -6,-19 -1,-7 0,-19 0,-26 13,-8 2,-2 13,-7l0 -3209c-13,-23 -12,-7 -14,-46 -1,-21 1,-27 8,-39 38,0 43,-2 53,26 0,16 -20,-2 13,20 24,16 68,31 87,52 8,-3 22,-9 35,-8 24,3 20,2 25,21l0 13c4,13 -18,-5 15,17 12,7 20,9 31,16l28 17c23,12 13,0 32,21 16,-6 14,8 14,-6 4,0 11,0 14,0 14,3 15,5 19,6 21,5 6,1 20,7l0 26c8,15 30,20 48,32l29 16c21,10 16,7 36,23l7 -6c27,1 37,2 40,26 7,21 82,48 120,78l7 -6 26 0 14 13 0 13c5,16 -9,-6 5,9l115 62 29 4 7 7c15,3 10,0 10,15 6,17 -9,-5 6,9l114 63 30 4 6 6c16,4 11,1 11,16 4,13 -18,-5 16,17 10,7 20,10 30,16 19,10 44,20 61,39l13 0 33 0 14 13 0 13 0 0c4,13 -18,-5 15,17 11,6 21,10 31,15 19,11 44,21 60,39 8,-3 23,-8 35,-7 24,3 21,1 25,20l0 13 7 7c7,12 59,38 77,48 5,2 8,4 14,7 20,9 -1,1 22,10l34 0 13 13 0 6c10,4 7,-7 7,13 8,15 25,19 44,29 21,12 38,17 56,36 15,-6 13,8 13,-6 4,0 12,0 14,0 15,4 15,5 19,6l7 7 7 6c12,0 6,2 6,20 10,18 68,43 91,55 20,10 -1,1 23,10 2,-2 43,-7 46,26 4,12 -21,-3 30,23 8,4 11,6 17,10 25,16 34,22 67,32 1,-1 25,0 27,0 24,3 21,0 26,20 13,0 7,1 7,19 12,22 5,7 18,14 10,6 14,7 26,15 20,13 38,17 56,36 42,0 62,-7 66,33 15,27 -1,-4 49,31l65 34c1,-2 -8,-3 8,0l25 7 7 6c9,3 6,-7 6,13 4,10 -17,-2 16,16 25,14 72,35 91,56l13 0 34 0 13 13 0 13c13,25 23,15 48,31 27,18 30,22 65,34 1,-1 34,-5 52,7 18,11 5,48 2,51l-34 7c-10,1 0,-10 -18,15 -43,60 -35,21 -35,83 28,18 5,15 46,20 23,2 42,3 66,7 29,4 29,13 52,20 23,8 45,4 69,11l6 -20c5,1 13,1 15,1 14,3 15,5 19,6l7 7c10,3 7,-8 7,13 15,29 90,17 130,29 18,5 37,25 62,20 32,-6 16,-31 14,-56 18,-9 20,-12 47,-13l0 -71c-39,-4 -8,-13 -60,-13 -9,16 -12,29 -20,45l-24 -22c-1,-1 -2,-2 -3,-4 -24,-30 -52,-84 -66,-85l-27 0c-9,-23 -7,-28 -7,-58 -20,-18 -12,-14 -24,-35 -11,-18 -13,-17 -26,-33 -48,-58 -43,-90 -86,-79 -35,9 -18,19 -39,47 -19,26 -7,-3 -38,54 -64,-5 -116,-71 -147,-65 -30,20 -38,-4 -40,-32 -22,-16 -15,-8 -35,-18 -19,-10 -12,-8 -28,-19 -22,-14 -38,-13 -50,-35 -13,12 2,7 -20,13 -5,1 -17,1 -20,-2 -12,-6 -12,-18 -13,-37 -23,-16 -15,-8 -36,-18 -19,-10 -15,-11 -31,-21 -19,-11 -47,-22 -60,-39 -17,15 24,13 -27,13 -14,-26 -6,2 -13,-33 -22,-15 -15,-7 -35,-18 -19,-9 -12,-8 -28,-18 -19,-12 -45,-20 -57,-35 -13,11 3,7 -19,12 -4,1 -12,1 -15,0 -11,-6 -11,-20 -13,-38 -22,-16 -15,-8 -35,-18 -19,-10 -16,-11 -32,-21 -17,-11 -50,-22 -59,-39 -18,15 24,13 -27,13 -14,-26 -7,2 -13,-33l-127 -65c-2,1 -5,4 -6,4 -50,13 27,-5 -14,2 -14,-26 -12,2 -20,-39l-127 -65c-1,1 -3,1 -3,3 0,0 -33,23 -37,-35l-71 -41c-54,-31 -46,-36 -69,-31l-13 0c-4,-5 -5,-16 -7,-19 -23,-18 -12,-11 -37,-23 -23,-11 -14,-8 -32,-20 -20,-13 -54,-24 -64,-42 -17,16 24,13 -27,13 -14,-26 -6,2 -13,-33l-105 -60c-26,-16 -13,-16 -35,-11l-13 0c-4,-5 -6,-16 -7,-20 -20,-15 -12,-10 -33,-20 -20,-10 -14,-7 -33,-20 -19,-13 -48,-22 -61,-38 -13,12 4,7 -19,13 -4,1 -11,0 -14,-1 -12,-6 -12,-20 -13,-38 -23,-15 -15,-8 -36,-18 -18,-9 -12,-8 -27,-18 -20,-13 -45,-20 -57,-35 -13,15 7,7 -18,12 -15,3 -4,2 -12,-3 -12,-8 -14,-22 -17,-35l-105 -61c-26,-16 -13,-16 -35,-11l-13 0c-4,-5 -6,-16 -7,-20l-124 -74c-17,-8 -4,-8 -23,-4l-13 0c-4,-5 -5,-16 -7,-19 -15,-12 -113,-71 -133,-72l-12 5c-9,2 -6,1 -15,2 -6,-16 -5,-10 -6,-33 -40,-29 -54,-24 -77,-42 -17,-14 -11,-3 -17,-23l47 0 7 -7 6 -6 7 -7 7 0 0 -6c-5,-29 -4,-33 -40,-33 -6,17 1,17 -19,20 -24,3 -10,-1 -15,-13 -39,0 -17,16 -40,32 -17,16 25,13 -26,13 -14,-26 -7,3 -14,-32l0 -20c0,-24 12,-18 27,-13 11,-20 17,-18 40,-26l20 -13 13 -23c5,-12 2,-6 7,-16l21 4c1,0 4,2 6,3l6 6c18,-25 32,-24 58,-41l69 -37 5 -33c7,1 18,0 23,1 31,4 9,-1 19,6 19,-25 16,-16 42,-31l91 -54c19,-9 27,-16 45,-27l400 -235c9,-5 13,-6 21,-11l121 -72 5 -26 41 0c12,-15 36,-22 53,-32 14,-9 14,-12 28,-19 19,-11 17,-5 39,-20 1,-16 1,-18 7,-26l33 6c22,-27 28,-21 56,-37 31,-17 23,-21 64,-34l0 -26 7 0 0 -13c8,0 20,-1 28,0 12,1 14,3 19,6 18,-20 33,-22 56,-36 25,-16 34,-21 64,-36 0,-17 0,-23 6,-32 6,0 16,-1 21,0 30,4 10,0 19,6 15,-18 6,-11 25,-21 10,-6 7,-2 14,-6l59 -34c20,-10 -1,-1 22,-10l7 -33 33 0c9,6 7,-7 7,7 17,-22 88,-59 120,-72l0 -13c4,-17 -2,-10 7,-19 4,0 11,-1 14,0 23,4 14,4 19,6l7 0c18,-24 106,-70 137,-87 98,-51 315,-194 405,-237 18,-8 -7,2 18,-8 1,-14 0,-11 6,-19l27 0c13,-17 41,-28 60,-40 16,-9 12,-11 31,-21 27,-13 17,-5 42,-24l7 -13 20 0c32,0 29,10 43,29 23,32 18,23 30,62l40 0c8,9 -9,6 7,7 26,-4 26,-21 39,-40l114 -156 0 -26c10,-5 9,-4 14,-13l20 0c25,-48 49,-81 83,-120 74,-83 -101,-50 -123,-42 -36,14 -10,15 -60,19 -146,12 -57,23 -195,38 -54,6 -145,27 -101,81l33 46c26,33 12,17 16,56z"/>
    <path class="fil0" d="M6193 3479l5 -33c6,0 14,0 16,0 14,4 15,5 19,7l7 6 7 0c22,-3 6,-12 86,-33 25,-6 22,-13 44,-22 18,-8 34,-7 51,-15 21,-9 16,-13 40,-20 18,-6 38,-5 53,-13 46,-25 47,-50 79,-53l0 -78c-33,-1 -38,-14 -67,0 -14,28 6,55 -32,52 -28,-2 -17,-21 -54,-26 -2,3 -3,14 -7,19 -26,0 -24,6 -33,-6l-7 -7c-1,-2 -3,-4 -3,-5 -1,-2 -2,-5 -2,-7 -2,-5 -2,-8 -2,-14 -54,-26 -48,-4 -88,-30l-118 -48c-18,-5 -31,-5 -47,-13 0,0 -57,-42 -87,-13 -16,16 -6,247 -6,306 -1,34 -3,109 50,83 76,-38 57,-18 96,-37z"/>
    <path class="fil0" d="M6600 4735l0 -78c-43,-6 -67,-20 -76,23 -2,6 -5,77 35,73 41,-5 -1,-13 41,-18z"/>
    <path class="fil0" d="M6527 4058c0,52 -9,78 33,78 26,0 1,-10 40,-13l0 -78c-21,-2 -73,-30 -73,13z"/>
    <path class="fil0" d="M6527 2626c0,52 -9,78 33,78 26,0 1,-10 40,-13l0 -78c-21,-2 -73,-30 -73,13z"/>
    <path class="fil0" d="M6547 2906l53 -8 0 -77c-49,-5 7,-5 -37,-17 -54,-14 -47,107 -16,102z"/>
    <path class="fil0" d="M6527 5490c0,52 -9,78 33,78 26,0 1,-9 40,-13l0 -78c-26,-2 -73,-28 -73,13z"/>
    <path class="fil0" d="M6527 4878c0,111 7,71 73,65l0 -78c-12,-1 -73,-35 -73,13z"/>
    <path class="fil0" d="M6527 3446c0,111 7,71 73,65l0 -78c-12,-1 -73,-36 -73,13z"/>
    <path class="fil0" d="M6527 2014c0,108 4,71 73,65l0 -78c-12,-1 -73,-36 -73,13z"/>
    <path class="fil0" d="M6553 1884l7 0c26,0 1,-10 40,-13l0 -78 -53 -8c-27,-3 -38,99 6,99z"/>
    <path class="fil0" d="M6540 3720c32,15 21,-4 60,-7l0 -72c-28,-2 -78,-53 -77,40 0,19 2,28 17,39z"/>
    <path class="fil0" d="M6547 4338l53 -8 0 -77c-39,-3 -14,-13 -40,-13l-7 0c-44,0 -33,102 -6,98z"/>
    <path class="fil0" d="M6547 5770l53 -7 0 -77c-39,-4 -14,-13 -40,-13l-7 0c-44,0 -33,102 -6,97z"/>
    <path class="fil0" d="M6600 5347l0 -72c-22,-1 -81,-34 -77,38 1,20 4,42 22,50 32,14 12,-11 55,-16z"/>
    <path class="fil0" d="M6600 2281l0 -72c-35,-4 -8,-2 -24,-10 -13,-7 -8,-12 -27,-7 -31,7 -37,80 -9,95 19,10 33,-4 60,-6z"/>
    <path class="fil0" d="M6547 3928c3,2 -1,8 23,-2 24,-10 -6,-8 30,-11l0 -72c-15,-1 -89,-42 -76,48 5,31 9,32 23,37z"/>
    <path class="fil0" d="M5427 3322c0,53 100,57 100,-6 0,-37 -100,-54 -100,6z"/>
    <path class="fil0" d="M6553 2496c39,0 4,-10 47,-13l0 -72c-33,-3 -60,-31 -74,12 -7,18 -5,73 27,73z"/>
    <path class="fil0" d="M6533 3016c-13,57 -13,35 0,92 36,0 38,-6 67,-7l0 -78c-29,-1 -19,-3 -33,-6 -22,-5 -1,-4 -34,-1z"/>
    <path class="fil0" d="M6533 4540c61,5 18,-6 67,-7l0 -78c-29,0 -31,-6 -67,-6 -13,56 -13,35 0,91z"/>
    <path class="fil0" d="M5633 3316c0,17 4,18 7,32 75,17 93,11 93,-39 0,-39 -100,-34 -100,7z"/>
    <path class="fil0" d="M4800 3355c56,13 100,19 100,-33 0,-31 -47,-30 -63,-28 -43,5 -37,18 -37,61z"/>
    <path class="fil0" d="M5220 3322c0,18 3,18 7,33 59,13 86,14 86,-39 0,-41 -93,-41 -93,6z"/>
    <path class="fil0" d="M3960 3329c0,17 3,18 7,32 25,6 71,15 94,-5 15,-13 8,-19 6,-40 -18,-4 -107,-26 -107,13z"/>
    <path class="fil0" d="M4167 3335c0,40 106,47 106,7 0,-29 -3,-39 -46,-39 -27,0 -60,7 -60,32z"/>
    <path class="fil0" d="M5840 3309c15,61 100,65 100,0 0,-35 -67,-34 -91,-10 -1,1 -2,2 -3,3l-6 7z"/>
    <path class="fil0" d="M4380 3335c0,34 100,58 100,-6 0,-46 -100,-37 -100,6z"/>
    <path class="fil0" d="M4613 3303c0,29 -4,31 -6,52 1,2 -15,7 20,11 49,6 66,-10 66,-50 -12,-8 -59,-36 -80,-13z"/>
    <path class="fil0" d="M3753 3342c20,43 77,27 107,13l0 -33c-31,-16 -27,-13 -73,-13 -1,15 2,-2 -2,15l-11 14c-1,1 -5,2 -6,3 -5,1 -8,1 -15,1z"/>
    <path class="fil0" d="M5060 3361l0 -71c-55,8 -68,35 -40,65 8,10 15,6 40,6z"/>
    <path class="fil0" d="M6527 1649c0,49 61,14 73,13l0 -26c-12,-1 -73,-35 -73,13z"/>
    <path class="fil0" d="M5060 3361c27,0 17,3 40,-6l0 -59c-15,-4 -20,-6 -40,-6l0 71z"/>
    <path class="fil0" d="M3360 7294c4,-2 15,-3 20,-7l0 -39c-40,-21 -21,-13 -100,-13 -38,0 -75,0 -113,0 0,16 -2,-1 7,6 50,0 151,-10 186,7l0 46z"/>
    <path class="fil0" d="M3513 7241c-25,-10 -42,-6 -73,-6 -5,9 -4,8 -13,13 2,29 4,24 13,46l0 -20c0,-48 18,-33 73,-33l0 0 47 0c22,-12 -6,15 7,-6 23,1 17,1 33,6 0,-13 -2,-1 13,-6 -27,-14 5,-10 -40,-13 -6,6 0,2 -12,9l-48 10z"/>
    <path class="fil0" d="M3440 3466l0 -20 -3 -10c-9,-30 -9,-53 36,-35 1,13 -2,1 14,6 -10,-28 -15,-26 -53,-26 -7,12 -9,18 -8,39 2,39 1,23 14,46z"/>
    <path class="fil0" d="M6100 4943l30 3 7 7c14,12 8,-9 10,17 1,35 -3,9 -6,22l-21 3c-11,-11 -7,-8 -7,7l34 -7c3,-3 16,-40 -2,-51 -18,-12 -51,-8 -52,-7 -11,11 -8,6 7,6z"/>
    <path class="fil0" d="M5880 4722c-19,-6 -42,-12 -53,-26 1,19 1,31 13,37 3,3 15,3 20,2 22,-6 7,-1 20,-13z"/>
    <path class="fil0" d="M5540 4527c-19,-10 -37,-14 -47,-26 2,18 2,32 13,38 3,1 11,1 15,0 22,-5 6,-1 19,-12z"/>
    <path class="fil0" d="M4373 3843c-19,-9 -36,-13 -46,-26 1,18 1,32 13,38 3,1 10,2 14,1 23,-6 6,-1 19,-13z"/>
    <path class="fil0" d="M6033 4826c-12,-18 4,-6 -20,-20 -12,-7 -11,-1 -20,-12 2,28 10,52 40,32z"/>
    <path class="fil0" d="M3700 3101c7,0 15,0 21,0 24,-4 14,-4 22,-6l4 -20c-34,0 -13,-2 -20,7l-15 3c-25,3 -1,1 -12,16z"/>
    <path class="fil0" d="M3533 3199c7,0 15,0 21,-1 24,-3 15,-4 23,-5l3 -20c-33,0 -13,-2 -20,6l-14 4c-26,3 -2,0 -13,16z"/>
    <path class="fil0" d="M5033 4240c-12,-18 4,-6 -20,-20 -12,-7 -11,-1 -20,-12 4,58 37,35 37,35 0,-2 2,-2 3,-3z"/>
    <path class="fil0" d="M4207 3746c-19,-10 -37,-14 -47,-26 3,13 5,27 17,35 8,5 -3,6 12,3 25,-5 5,3 18,-12z"/>
    <path class="fil0" d="M4473 2652l0 -13c-17,0 -13,-4 -13,13l13 0 0 6c47,0 47,-5 47,-45 -15,0 -18,-5 -7,6 -1,15 2,-3 -1,14 -2,14 -10,15 -24,18 -3,1 -11,1 -15,1z"/>
    <path class="fil0" d="M5300 2157c5,0 16,0 21,0 17,-4 15,-5 19,-6l7 -20c-34,0 -13,-2 -20,7l-15 3c-25,3 -1,1 -12,16z"/>
    <path class="fil0" d="M4840 2431c-1,3 -2,14 -7,19l-26 0c-18,-11 -8,-10 -14,7l41 -2c15,-4 15,-11 15,-11 1,1 2,-4 3,-6 1,-10 1,-10 1,-21 -15,0 -13,-4 -13,7l0 7z"/>
    <path class="fil0" d="M4607 3355c2,-21 6,-23 6,-52 -22,15 -34,34 -6,52z"/>
    <path class="fil0" d="M5433 4553c4,0 11,0 14,0 18,3 15,4 20,6l6 7 7 0 0 13c-11,11 -9,6 7,6 0,-18 6,-19 -7,-19 -5,-20 -2,-17 -26,-20 -2,0 -26,-1 -27,0 -12,11 -9,7 6,7z"/>
    <path class="fil0" d="M4473 2639l0 0 0 13c4,0 12,0 15,-1 14,-3 22,-4 24,-18 3,-17 0,1 1,-14 -15,0 -13,-4 -13,7l-7 12 -20 1z"/>
    <path class="fil0" d="M5200 4338c-12,-19 3,-6 -20,-20 -12,-7 -11,-1 -20,-13 8,41 6,13 20,39 41,-7 -36,11 14,-2 1,0 4,-3 6,-4z"/>
    <path class="fil0" d="M6427 4995c0,-15 4,-17 -7,-6 -21,-8 -20,-18 -20,-46l-7 -6c0,30 -2,35 7,58l27 0z"/>
    <path class="fil0" d="M3700 3459c-7,-16 11,-13 -13,-13l-20 -13c1,23 0,17 6,33 9,-1 6,0 15,-2l12 -5z"/>
    <path class="fil0" d="M5593 4657l7 -3 21 0 16 9 -4 7c14,23 -1,6 20,13 -4,-40 -24,-33 -66,-33l6 7z"/>
    <path class="fil0" d="M5367 4423c-17,-6 -31,-8 -40,-20 6,35 -1,7 13,33 51,0 9,2 27,-13z"/>
    <path class="fil0" d="M5700 4618c-16,-5 -31,-8 -40,-20 7,35 -1,7 13,33 51,0 10,2 27,-13z"/>
    <path class="fil0" d="M4700 4032c-16,-5 -31,-8 -40,-20 7,35 -1,7 13,33 51,0 10,3 27,-13z"/>
    <path class="fil0" d="M6100 4941l30 5 7 7 -3 24 -14 6 0 12 21 -3c3,-13 7,13 6,-22 -2,-26 4,-5 -10,-17l-7 -7 -30 -3 0 -2z"/>
    <path class="fil0" d="M3753 3576l14 7 0 -7 33 0 0 7 7 6 6 7 0 6c-11,11 -8,7 7,7l0 -26c-14,-6 1,-2 -20,-7 -4,-1 -5,-3 -19,-6 -3,0 -10,0 -14,0 0,14 2,0 -14,6z"/>
    <path class="fil0" d="M3607 3309c-2,0 -22,0 -25,1 -22,5 -4,-7 -9,6 5,12 -9,16 15,13 20,-3 13,-3 19,-20z"/>
    <path class="fil0" d="M6400 3257l7 7c6,0 8,0 14,-1 1,-1 4,-2 5,-2 1,0 5,-3 7,-4 -11,-14 18,-13 -33,-13l0 -6 0 19z"/>
    <path class="fil0" d="M3533 3348c-14,-4 -15,-5 -33,-6l-7 -13c7,35 0,6 14,32 51,0 9,3 26,-13z"/>
    <path class="fil0" d="M4967 2352l33 0c4,-5 5,-15 7,-19 -24,4 -4,-5 -23,3 -19,9 -6,-1 -17,16z"/>
    <path class="fil0" d="M5133 2255c-11,-11 -6,-9 -6,6l34 -2c10,-2 16,-6 18,-16 3,-17 0,1 1,-14l-7 0 -6 19c-5,2 -5,3 -19,6 -3,1 -11,1 -15,1z"/>
    <path class="fil0" d="M6100 1708l-27 0 0 -13c-17,0 -13,-4 -13,13l13 0 27 0c1,0 4,-2 4,-1 0,0 14,0 16,-32l-15 0 4 6 -9 27z"/>
    <path class="fil0" d="M4860 2483l-7 0 0 26 7 -7 0 -19c9,-8 7,9 7,-7 3,0 11,0 14,0 14,4 15,5 19,7l0 0 7 -7c-5,-3 -7,-5 -19,-6 -8,-1 -20,0 -28,0l0 13z"/>
    <path class="fil0" d="M4753 4162l14 0 26 4c2,1 5,2 7,3l7 6 6 0c-4,-19 -1,-17 -25,-20 -12,-1 -27,4 -35,7z"/>
    <path class="fil0" d="M3580 3257c24,0 16,-13 27,-32l20 0 0 6 6 0 -6 -6c-2,-1 -5,-3 -6,-3l-21 -4c-5,10 -2,4 -7,16l-13 23z"/>
    <path class="fil0" d="M5133 2255c4,0 12,0 15,-1 14,-3 14,-4 19,-6l6 -19 -26 13c-27,0 -3,-3 -14,13z"/>
    <path class="fil0" d="M3433 6727c5,18 1,13 14,20l0 -7 0 -6 -7 -7 -7 0 0 -39c22,-12 -5,15 7,-6l0 -7c-11,5 0,-1 -13,7 0,7 -1,19 0,26 4,23 4,14 6,19z"/>
    <path class="fil0" d="M3587 3479l13 0 30 3 7 6 10 4c-5,-19 -1,-18 -25,-21 -13,-1 -27,5 -35,8z"/>
    <path class="fil0" d="M6096 1692l-23 3 0 0 0 13 27 0 9 -27c-1,1 -4,3 -5,4 -1,0 -3,4 -4,3 -1,-1 -3,2 -4,4z"/>
    <path class="fil0" d="M6400 3257l7 7c9,12 7,6 33,6 4,-5 5,-16 7,-19l-14 6c-2,1 -6,4 -7,4 -1,0 -4,1 -5,2 -6,1 -8,1 -14,1l-7 -7 0 -19 -7 -7c0,6 0,9 2,14 0,2 1,5 2,7 0,1 2,3 3,5z"/>
    <path class="fil0" d="M4640 2548l27 0c4,-5 5,-16 6,-20 -33,0 -13,-2 -20,7 -26,0 -2,-3 -13,13z"/>
    <path class="fil0" d="M4807 2450l26 0c5,-5 6,-16 7,-19 -33,0 -13,-2 -20,6 -27,0 -3,-2 -13,13z"/>
    <path class="fil0" d="M4527 2697c10,-12 27,-16 46,-26l-41 0 -5 26z"/>
    <path class="fil0" d="M3753 3335c29,0 23,-2 27,-26 -26,11 -16,-3 -27,26z"/>
    <path class="fil0" d="M5027 2404l6 -6 6 -20 28 0 6 0c-9,-6 11,-2 -19,-6 -5,-1 -15,0 -21,0 -6,9 -6,15 -6,32z"/>
    <path class="fil0" d="M5099 4361c14,-4 19,-10 25,6l7 6 2 4c0,11 -2,7 14,7l0 -14 -7 -6 -7 -7 -33 0 0 7 -1 -3z"/>
    <path class="fil0" d="M4640 2548l0 -7c0,22 -4,10 9,13 24,5 29,-2 31,-32 -15,0 -18,-5 -7,6 -1,4 -2,15 -6,20l-27 0z"/>
    <path class="fil0" d="M4967 2352c-12,-11 -7,-8 -7,7l40 -4c13,-4 13,-20 13,-29 -15,0 -18,-4 -6,7 -2,4 -3,14 -7,19l-33 0z"/>
    <path class="fil0" d="M5967 4852l-3 2 9 5 -3 -2 -3 8c-1,12 -2,7 13,7l0 -13 -7 0 -6 -7 0 -6 -34 0 0 6 34 0z"/>
    <path class="fil0" d="M5087 4357l13 7 0 -7 33 0 7 7 7 6 0 14c-12,11 -9,6 6,6 0,-18 6,-20 -6,-20l-7 -6 -7 -7c-4,-1 -4,-2 -19,-6 -2,0 -10,0 -14,0 0,14 2,0 -13,6z"/>
    <path class="fil0" d="M6293 5158l7 0c5,-11 -1,0 7,-13l26 0 7 7 0 6c-11,11 -9,7 7,7 0,-21 3,-10 -7,-13l-7 -7c-4,-1 -5,-3 -19,-6 -2,0 -10,0 -15,-1l-6 20z"/>
    <polygon class="fil0" points="4633,4071 4631,4073 4640,4078 4637,4076 4634,4091 4647,4091 4647,4078 4640,4078 4633,4071 4633,4065 4600,4065 4600,4071 "/>
    <path class="fil0" d="M4693 2600c9,-11 24,-17 40,-20l-33 -6c-6,8 -6,10 -7,26z"/>
    <path class="fil0" d="M6300 5158l7 0c15,-8 5,-8 26,0l7 0 0 -6 -7 -7 -26 0c-8,13 -2,2 -7,13z"/>
    <path class="fil0" d="M6433 1636c9,-18 16,-30 34,-39l-20 0c-5,9 -4,8 -14,13l0 26z"/>
    <path class="fil0" d="M5266 4462c1,-1 17,-22 24,2l7 7 3 4c0,11 -2,6 13,6 -3,-33 -44,-28 -46,-26l-1 7z"/>
    <path class="fil0" d="M6193 3479l7 -7 6 -20 27 1 0 6 7 0 0 0 7 0 -7 0 -7 -6c-4,-2 -5,-3 -19,-7 -2,0 -10,0 -16,0l-5 33z"/>
    <path class="fil0" d="M3933 3680l0 0c10,-6 18,-17 24,3l7 7 3 3c0,12 -2,7 13,7 -3,-24 -13,-25 -40,-26l-7 6z"/>
    <path class="fil0" d="M6420 4989c-5,-15 7,-13 -7,-13 -5,-13 0,-1 -6,-20l-7 -13c0,28 -1,38 20,46z"/>
    <path class="fil0" d="M4100 3778l0 0 30 -3 6 7 -2 9c-1,11 -3,7 13,7l0 -13 -11 -3 -6 -7 3 -3 -26 0 -7 6z"/>
    <polygon class="fil0" points="5100,3355 5107,3348 5107,3309 5100,3296 "/>
    <path class="fil0" d="M4860 2483l0 19 7 -6c4,-12 -1,-1 6,-13l27 0 0 0 0 0 0 0c-4,-2 -5,-3 -19,-7 -3,0 -11,0 -14,0 0,16 2,-1 -7,7z"/>
    <path class="fil0" d="M3433 6727l7 0 7 7 0 6 0 -6 0 0 -7 -7 0 -32 0 -13c-12,21 15,-6 -7,6l0 39z"/>
    <path class="fil0" d="M3753 3335l0 7c7,0 10,0 15,-1 1,-1 5,-2 6,-3l11 -14c4,-17 1,0 2,-15l-7 0c-4,24 2,26 -27,26z"/>
    <polygon class="fil0" points="5033,2398 5040,2391 5047,2391 5067,2378 5039,2378 "/>
    <path class="fil0" d="M3797 3592l4 4c-1,11 -3,6 12,6l0 -6 -6 -7 -7 -6 -13 -3 3 5 7 7z"/>
    <path class="fil0" d="M6200 3472l7 -6c21,-13 -6,14 6,-7l20 0 0 0 7 0 0 0 -7 0 0 -6 -27 -1 -6 20z"/>
    <path class="fil0" d="M4933 4266c0,-13 13,-5 21,-3l13 3 6 7 -3 -2 -3 15 13 0 0 -7 0 -6 -7 0 -6 -7 0 -6 -34 0 0 6z"/>
    <path class="fil0" d="M6247 1832l13 0 20 0c-16,-1 1,2 -7,-7l-40 0 14 7z"/>
    <path class="fil0" d="M5360 2196l3 -4 4 -9 26 0 7 0 0 7c5,-9 -8,-7 7,-7l-7 0c-5,-2 4,-2 -19,-6 -3,-1 -10,0 -14,0 -9,9 -3,2 -7,19z"/>
    <path class="fil0" d="M3580 3257l-20 13c1,0 2,-2 3,-1 3,8 4,-3 6,-4 32,-18 19,-4 38,-27l0 -7 20 0 0 0 6 0 -6 0 0 -6 -20 0c-11,19 -3,32 -27,32z"/>
    <path class="fil0" d="M5433 4559c0,-13 13,-5 21,-3l13 3 6 7 -3 -1 -3 7c0,12 -2,7 13,7l0 -13 -7 0 -6 -7c-5,-2 -2,-3 -20,-6 -3,0 -10,0 -14,0l0 6z"/>
    <path class="fil0" d="M4853 4136c-7,-16 12,-13 -13,-13 -23,-26 25,12 -7,-6 2,3 3,14 7,19l13 0z"/>
    <path class="fil0" d="M4020 3648c-7,-16 11,-13 -13,-13 -23,-27 25,11 -7,-7 1,4 3,15 7,20l13 0z"/>
    <path class="fil0" d="M4520 3941c-7,-16 11,-13 -13,-13 -23,-27 25,11 -7,-7 1,4 3,15 7,20l13 0z"/>
    <path class="fil0" d="M3853 3550c-6,-16 12,-13 -13,-13 -23,-26 25,12 -7,-6 2,3 3,14 7,19l13 0z"/>
    <path class="fil0" d="M4433 3973c0,-13 22,-4 30,-2l0 6 6 0 -2 9c0,12 -2,7 13,7 0,-15 5,-12 -11,-16l-6 -6 -30 -4 0 6z"/>
    <path class="fil0" d="M3560 7241l40 0c-16,-5 -10,-5 -33,-6 -13,21 15,-6 -7,6z"/>
    <path class="fil0" d="M4267 3876c0,-14 21,-4 29,-3l7 7 -3 9c0,11 -2,6 13,6 0,-15 5,-12 -10,-15l-7 -7 -29 -4 0 7z"/>
    <polygon class="fil0" points="5363,2192 5391,2185 5390,2190 5400,2190 5391,2185 5393,2183 5367,2183 "/>
    <path class="fil0" d="M4766 4169c0,-14 12,-6 21,-4l13 4 7 6 -3 -1 -4 8c0,11 -2,6 13,6l0 0 0 -13 -6 0 -7 -6c-2,-1 -5,-2 -7,-3l-26 -4 -1 7z"/>
    <path class="fil0" d="M5967 1851l7 -13c10,-3 15,-3 26,-6l-27 0c-6,8 -5,5 -6,19z"/>
    <path class="fil0" d="M3600 3485c0,-14 21,-5 30,-3l7 6 -2 10c-2,12 -3,7 12,7l0 -13 -10 -4 -7 -6 -30 -3 0 6z"/>
    <path class="fil0" d="M5796 4768l1 0 10 0 0 -7 -7 -6 -12 -4 2 6c11,0 8,-2 6,11z"/>
    <polygon class="fil0" points="3766,3579 3787,3580 3800,3583 3807,3589 3813,3596 3807,3589 3800,3583 3800,3576 3767,3576 3767,3583 "/>
    <path class="fil0" d="M5766 4755c4,-5 2,-12 22,-4l12 4 7 6 0 7c-12,11 -9,6 6,6 0,-20 3,-10 -6,-13l-7 -6 -25 -7c-16,-3 -7,-2 -8,0l-1 7z"/>
    <path class="fil0" d="M3493 3309c1,-14 15,-11 27,-13 -15,-5 -27,-11 -27,13z"/>
    <path class="fil0" d="M3760 3153l-1 -6 1 -7 4 -13 3 -3 20 0 13 2 7 1c-10,-7 12,-2 -19,-6 -5,-1 -16,0 -23,-1l-5 33z"/>
    <polygon class="fil0" points="3540,7007 3547,7007 3543,6998 3536,6992 3533,6994 3533,7001 "/>
    <path class="fil0" d="M6133 1747c22,0 -6,2 9,-5 14,-7 -4,-1 18,-8l-20 0 -7 13z"/>
    <path class="fil0" d="M4980 4286c-11,11 -9,6 7,6 0,-20 3,-9 -7,-13l0 7 0 0z"/>
    <path class="fil0" d="M3440 6727l7 7 0 0c0,-33 2,-13 -7,-20l0 -19 0 32z"/>
    <polygon class="fil0" points="5464,4569 5470,4565 5473,4566 5467,4559 5454,4556 5457,4562 "/>
    <polygon class="fil0" points="4797,4178 4804,4174 4807,4175 4800,4169 4787,4165 4790,4171 "/>
    <polygon class="fil0" points="4964,4275 4970,4271 4973,4273 4967,4266 4954,4263 4957,4269 "/>
    <path class="fil0" d="M4867 2496c6,-11 0,-4 13,-7 11,-12 -5,-2 20,-6l0 0 -27 0c-7,12 -2,1 -6,13z"/>
    <path class="fil0" d="M3437 3436l3 10 0 -13 -3 3c-2,-12 -8,-21 -1,-34 11,-22 17,-2 18,-1l19 0c-45,-18 -45,5 -36,35z"/>
    <polygon class="fil0" points="3533,7001 3540,7007 3547,7014 3547,7007 3547,7007 3540,7007 3533,7001 3533,6994 3530,6976 3530,6947 3533,6942 3527,6935 "/>
    <path class="fil0" d="M6307 5158l26 0c-21,-8 -11,-8 -26,0z"/>
    <path class="fil0" d="M5193 2307l-1 -7 1 -6 10 -16c1,-1 2,-3 4,-4l23 4 -4 3 14 0 -10 -3 3 -4 -33 0 -7 33z"/>
    <path class="fil0" d="M6207 3466l26 -7 0 0 -20 0c-12,21 15,-6 -6,7z"/>
    <polygon class="fil0" points="4136,3782 4147,3785 4133,3772 4130,3775 "/>
    <polygon class="fil0" points="4973,4273 4980,4273 4967,4260 4967,4266 "/>
    <polygon class="fil0" points="5973,4859 5980,4859 5967,4846 5967,4852 "/>
    <polygon class="fil0" points="4640,4078 4647,4078 4633,4065 4633,4071 "/>
    <polygon class="fil0" points="5631,4666 5637,4663 5621,4654 5624,4660 "/>
    <polygon class="fil0" points="3633,3355 3633,3361 3627,3361 3627,3368 3633,3361 3633,3361 3636,3358 3639,3352 3647,3348 3647,3348 3647,3348 3640,3348 "/>
    <path class="fil0" d="M3607 3238c13,-6 1,-1 20,-7l0 0 -20 0 0 7z"/>
    <polygon class="fil0" points="3533,6994 3536,6992 3543,6998 3547,7007 3547,7007 3547,6995 3543,6998 3536,6992 3531,6988 3535,6979 3530,6976 "/>
    <path class="fil0" d="M4820 4195l-7 -7 0 0c-11,11 -8,7 7,7z"/>
    <path class="fil0" d="M4607 4068l20 0 4 5c0,9 -2,8 6,3l3 2 -9 -5 2 -2 -33 0 7 -3z"/>
    <path class="fil0" d="M5940 4849l20 1 4 4c0,10 -1,8 6,3l3 2 -9 -5 3 -2 -34 0 7 -3z"/>
    <polygon class="fil0" points="3627,3361 3620,3368 3627,3368 3627,3361 3633,3361 3633,3355 3640,3348 3633,3355 "/>
    <polygon class="fil0" points="5933,4852 5933,4846 5920,4846 "/>
    <polygon class="fil0" points="4600,4071 4600,4065 4587,4065 "/>
    <path class="fil0" d="M5240 2281l0 0c0,-14 2,-1 -7,-7l-3 4 10 3z"/>
    <polygon class="fil0" points="5400,2190 5400,2183 5393,2183 5391,2185 "/>
    <polygon class="fil0" points="3800,3126 3787,3124 3790,3130 "/>
    <path class="fil0" d="M3440 7274c0,-47 23,-33 73,-33l0 0c-55,0 -73,-15 -73,33z"/>
    <polygon class="fil0" points="5600,4657 5600,4654 5593,4657 "/>
    <polygon class="fil0" points="3533,6947 3533,6942 3530,6947 "/>
    <path class="fil0" d="M6413 4976l-6 -20c6,19 1,7 6,20z"/>
    <polygon class="fil0" points="5360,2209 5358,2203 5363,2192 5360,2196 "/>
    <polygon class="fil0" points="3633,3361 3633,3361 3632,3361 3636,3358 3639,3352 3636,3358 "/>
    <polygon class="fil0" points="5099,4364 5099,4361 5100,4364 "/>
    <polygon class="fil0" points="3766,3583 3766,3579 3767,3583 "/>
    <polygon class="fil0" points="4647,4091 4647,4091 4634,4091 "/>
    <polygon class="fil0" points="4980,4286 4980,4286 4967,4286 "/>
    <polygon class="fil0" points="3647,3348 3647,3342 3647,3348 "/>
    <polygon class="fil0" points="3940,3674 3933,3680 "/>
    <polygon class="fil0" points="4107,3772 4100,3778 "/>
    <polygon class="fil0" points="5047,2391 5040,2391 "/>
    <polygon class="fil0" points="5107,3348 5107,3309 "/>
    <polygon class="fil0" points="3767,3124 3764,3127 "/>
    <polygon class="fil0" points="6260,1832 6247,1832 "/>
   </g>
  </g>
 </g>
</svg>
