<?xml version="1.0" encoding="UTF-8"?>
<!DOCTYPE svg PUBLIC "-//W3C//DTD SVG 1.1//EN" "http://www.w3.org/Graphics/SVG/1.1/DTD/svg11.dtd">
<!-- Creator: CorelDRAW X8 -->
<svg xmlns="http://www.w3.org/2000/svg" xml:space="preserve" width="11in" height="11in" version="1.1" style="shape-rendering:geometricPrecision; text-rendering:geometricPrecision; image-rendering:optimizeQuality; fill-rule:evenodd; clip-rule:evenodd"
viewBox="0 0 11000 11000"
 xmlns:xlink="http://www.w3.org/1999/xlink">
 <defs>
  <style type="text/css">
   <![CDATA[
    .fil0 {fill:#7F8C8D}
   ]]>
  </style>
 </defs>
 <g id="Layer_x0020_1">
  <metadata id="CorelCorpID_0Corel-Layer"/>
  <g id="_2256754088256">
   <g>
    <polygon class="fil0" points="4097,8719 4094,8744 4107,8738 4122,8725 4122,8715 4106,8711 "/>
    <path class="fil0" d="M5193 2425c23,-9 4,0 17,-8 2,-1 12,-7 14,-8l3 4 6 -8 -9 4 -3 -6c-23,-2 -26,-2 -28,22z"/>
    <path class="fil0" d="M4773 4225c7,1 27,3 27,6l1 0 2 -9 -6 -6c-16,-4 -18,-9 -30,3l6 6z"/>
    <path class="fil0" d="M6113 4969l10 -4 7 7 0 25 -10 3 0 1 10 -4 7 -2 -1 -27 -6 4 -7 -7 -3 -5c-28,-12 -18,5 -20,9l13 0z"/>
    <path class="fil0" d="M6120 5000l10 -3 0 -25 -7 -7 -10 4 0 0c-1,7 -18,6 7,6l0 25z"/>
    <path class="fil0" d="M4569 8346l0 7 -5 -4 -3 20 12 -6 -4 -10c2,-1 8,-2 9,-2 9,-2 -12,0 9,-1l13 -12 -28 2c5,8 7,6 -3,6z"/>
    <path class="fil0" d="M4273 3944l20 0 3 -3 4 9 -4 -9c-9,-7 -14,-19 -29,-3l6 6z"/>
    <path class="fil0" d="M3770 3221l0 7 -6 -3 -4 13 13 -7 -3 -3c2,-1 7,-2 8,-2 1,0 4,-1 5,-1 3,0 5,0 10,0l0 -9 -20 0c5,7 6,5 -3,5z"/>
    <path class="fil0" d="M4331 8531l-4 25 13 -6 0 -6 -4 -10c16,5 11,6 11,-10l-11 10 -5 -3z"/>
    <path class="fil0" d="M5940 4881l17 -3 7 6 3 4 -1 0 4 -4 -6 0 0 -6 -7 0 0 -6c-24,-9 -19,-4 -25,3l8 6z"/>
    <path class="fil0" d="M4440 4037l17 -3 7 6 3 4 0 0 3 -8 -6 4 -7 -6 -2 -6c-25,-11 -20,0 -23,3l8 6z"/>
    <polygon class="fil0" points="4607,4131 4624,4127 4631,4134 4633,4138 4633,4138 4637,4130 4631,4134 4631,4127 4624,4127 4624,4121 4607,4118 4600,4125 "/>
    <path class="fil0" d="M3953 3762l12 -4 2 5 1 0 3 -5 -6 0 0 -6 -25 -5c6,13 -5,5 13,15z"/>
    <path class="fil0" d="M5287 4512l11 -4 2 5 1 0 3 -5 -6 0 0 -6 -25 -5c6,13 -5,5 14,15z"/>
    <path class="fil0" d="M4940 4319l17 -4 7 6 3 4 0 0 3 -7 -6 3 -7 -6 -2 -6c-9,-2 -22,-10 -22,4l7 6z"/>
    <path class="fil0" d="M4336 8534l4 10c10,-8 2,-4 20,-7l0 -13 -13 0c0,16 5,15 -11,10z"/>
    <path class="fil0" d="M5107 4412l17 -4 7 7 2 4 0 0 4 -7 -6 3 -7 -7 -3 -5c-8,-2 -21,-10 -21,3l7 6z"/>
    <path class="fil0" d="M5773 4787l17 -3 7 6 3 4 0 0 3 -7 -6 3 -7 -6 -3 -6 -20 -2c-5,10 -15,-1 6,11z"/>
    <path class="fil0" d="M4797 8161l-5 14 15 0 -5 -10c17,6 11,7 11,-11l-11 11 -5 -4z"/>
    <polygon class="fil0" points="3773,3662 3797,3659 3801,3669 3803,3659 3797,3659 3797,3653 3767,3656 "/>
    <polygon class="fil0" points="5607,4694 5624,4690 5631,4696 5633,4700 5633,4700 5637,4693 5631,4696 5624,4690 5621,4685 5600,4685 5600,4688 "/>
    <polygon class="fil0" points="5440,4600 5457,4596 5464,4603 5467,4606 5467,4606 5464,4603 5457,4596 5454,4591 5433,4591 5433,4594 "/>
    <polygon class="fil0" points="4107,3850 4124,3846 4131,3852 4133,3856 4134,3862 4137,3849 4131,3852 4124,3846 4121,3841 4100,3844 "/>
    <path class="fil0" d="M6097 1841l3 -10c-18,0 -13,-4 -13,13l10 -3z"/>
    <path class="fil0" d="M5380 2310l-16 15c21,0 16,5 16,-15z"/>
    <path class="fil0" d="M3587 9057l11 3c-4,-11 -6,-9 6,-6l-2 -10c-11,6 -9,4 -15,13z"/>
    <polygon class="fil0" points="3801,3675 3801,3669 3797,3659 3773,3662 3787,3663 "/>
    <polygon class="fil0" points="4633,4138 4631,4134 4624,4127 4607,4131 "/>
    <polygon class="fil0" points="4467,4044 4464,4040 4457,4034 4440,4037 "/>
    <polygon class="fil0" points="4967,4325 4964,4321 4957,4315 4940,4319 "/>
    <path class="fil0" d="M5364 2325l-1 0c16,-2 16,-2 30,-6l0 -9 -13 0c0,20 5,15 -16,15z"/>
    <polygon class="fil0" points="5133,4419 5131,4415 5124,4408 5107,4412 "/>
    <polygon class="fil0" points="4133,3856 4131,3852 4124,3846 4107,3850 "/>
    <path class="fil0" d="M5953 7151c15,-4 5,3 17,-6l-3 -7c-10,5 -8,4 -14,13z"/>
    <polygon class="fil0" points="5633,4700 5631,4696 5624,4690 5607,4694 "/>
    <polygon class="fil0" points="3625,3564 3631,3571 3633,3575 3634,3575 3637,3571 3631,3571 3625,3564 3622,3559 3613,3556 3613,3569 "/>
    <polygon class="fil0" points="5800,4794 5797,4790 5790,4784 5773,4787 "/>
    <polygon class="fil0" points="5467,4606 5464,4603 5457,4596 5440,4600 "/>
    <polygon class="fil0" points="5967,4888 5964,4884 5957,4878 5940,4881 "/>
    <path class="fil0" d="M4500 2738c-18,0 -13,-5 -13,12l13 -12z"/>
    <polygon class="fil0" points="3613,3569 3613,3556 3600,3563 "/>
    <polygon class="fil0" points="3633,3575 3631,3571 3625,3564 3613,3569 3613,3569 "/>
    <path class="fil0" d="M3770 3228l3 3 7 0 0 0 13 -6c-5,0 -7,0 -10,0 -1,0 -4,1 -5,1 -1,0 -6,1 -8,2z"/>
    <path class="fil0" d="M4487 2750c-20,-11 -9,-8 -14,0l21 0 6 -12 0 0 -13 12z"/>
    <path class="fil0" d="M4569 8353l4 10c5,-9 4,-8 14,-13 -21,1 0,-1 -9,1 -1,0 -7,1 -9,2z"/>
    <path class="fil0" d="M5193 2425l-1 0 21 -6 0 0 14 -6 -3 -4c-2,1 -12,7 -14,8 -13,8 6,-1 -17,8z"/>
    <path class="fil0" d="M6100 1831l-3 10 -10 3c-19,-11 -8,-8 -14,0l24 -3c8,-19 -3,-3 12,-11l-4 -5 -5 6z"/>
    <polygon class="fil0" points="4293,3950 4300,3950 4293,3950 4293,3944 4273,3944 "/>
    <path class="fil0" d="M4802 8165l5 10c6,-11 6,-9 13,-22l-7 1c0,18 6,17 -11,11z"/>
    <polygon class="fil0" points="4367,8524 4360,8524 4360,8537 "/>
    <polygon class="fil0" points="4300,3950 4301,3956 4300,3950 4296,3941 4293,3944 4293,3950 "/>
    <path class="fil0" d="M3636 3440l-3 4c9,-5 8,-3 14,-13l-7 3 -4 6z"/>
    <path class="fil0" d="M4107 8738c6,-11 4,-9 15,-13l-15 13z"/>
    <polygon class="fil0" points="3967,3763 3965,3758 3953,3762 "/>
    <path class="fil0" d="M4800 4231c0,-3 -20,-5 -27,-6l27 6z"/>
    <polygon class="fil0" points="5400,2311 5393,2310 5393,2319 "/>
    <polygon class="fil0" points="5300,4513 5298,4508 5287,4512 "/>
    <path class="fil0" d="M4340 8544l0 6c0,-11 10,-10 20,-13 -18,3 -10,-1 -20,7z"/>
    <polygon class="fil0" points="6113,4969 6113,4969 6100,4969 "/>
    <polygon class="fil0" points="6573,3625 6560,3631 "/>
    <polygon class="fil0" points="5213,2419 5213,2419 "/>
    <polygon class="fil0" points="3780,3231 3780,3231 "/>
   </g>
   <g>
    <path class="fil0" d="M6120 1825c0,8 0,5 -1,14 -1,1 -2,6 -3,6 0,-1 -2,3 -3,5l-6 6c-5,2 -5,3 -20,6 -2,1 -10,0 -14,0l0 -6 -13 0 -362 198c-18,10 -29,18 -45,27l-45 26c-11,7 -12,6 -22,11l-71 39c-22,14 -167,91 -175,106l-7 18c-4,2 -4,3 -19,6 -2,1 -10,0 -14,0 -13,0 -1,-3 -17,3 -19,8 -102,54 -110,66l-6 19c-5,2 -5,3 -19,6 -3,0 -11,0 -15,0 -19,1 7,-4 -12,3l-100 54c-13,10 -7,-1 -8,12 0,8 0,24 -13,27l-40 4c-5,0 -5,-4 -31,8 -13,6 -19,11 -29,17 -35,22 -52,21 -53,38 -3,29 -7,35 -31,30 -14,-2 -9,9 -9,-11 -22,8 -4,1 -17,8l-86 46c-31,14 -24,14 -24,21l0 12c-6,17 1,15 -19,19 -18,4 -21,3 -21,-13 -21,8 -112,54 -120,69 0,38 0,44 -47,44l0 -7 -13 0c-15,1 0,-2 -20,6 -5,2 -16,8 -22,11l-668 379c-11,14 -5,-6 -3,11l-7 18c-4,2 -2,3 -19,6 -5,1 -16,1 -21,1 -19,-1 6,-5 -13,1 -23,8 -62,36 -84,46 -13,6 -25,4 -23,22l-7 18c-3,2 -2,3 -19,6 -5,1 -15,0 -21,0l-96 48c-31,16 -23,12 -24,21 -4,23 2,25 -26,25l-20 0 0 5925 26 -6c0,-33 14,-25 47,-25 14,-17 26,-30 42,-42 17,-13 30,-24 48,-37 18,-13 27,-21 43,-33 35,-26 20,-25 54,-38l0 -31c9,-5 8,-4 13,-13 9,1 6,-1 14,1l13 5 114 -92c26,-20 48,-46 79,-57 0,-26 -3,-28 7,-44l26 2c1,1 5,3 7,4l68 -55c34,-26 89,-81 125,-95 0,-25 -2,-28 7,-44 4,0 12,0 14,1 15,3 15,4 19,5l0 0 194 -156c0,-22 -5,-19 6,-25l34 -6 0 0 193 -156 0 -19 6 -19c4,0 12,0 15,1 14,3 15,4 19,5l0 0c29,-30 64,-50 95,-79 16,-15 30,-24 47,-38 16,-13 31,-24 51,-39 0,-33 5,-31 40,-31 21,-25 66,-53 85,-70l149 -117 6 -20 20 1c21,-26 25,-26 48,-43 48,-36 83,-73 152,-120l0 -25c10,-4 9,-4 14,-12l26 6c23,-27 25,-23 49,-42 18,-15 25,-25 45,-39l100 -75 4 -38 42 0 26 -25c34,-26 133,-112 161,-125 0,-43 1,-37 47,-37 15,-20 24,-28 42,-41 33,-24 118,-97 144,-109 0,-33 5,-32 40,-32 149,-182 113,66 209,46 28,-6 30,-23 44,-40l108 -136c19,-24 10,-30 39,-51l0 -25c10,-4 9,-4 14,-12l20 0c13,-24 34,-69 60,-75 0,130 19,73 73,69l0 -75c-28,-3 -22,-8 -47,-13 2,-19 52,-77 -36,-71 -38,3 -36,0 -54,23 -33,42 -46,36 -116,36 6,-27 12,-18 13,-50 -45,-21 -141,-17 -88,44 15,19 3,-12 15,18 -26,16 -19,16 -60,19 -23,2 -48,3 -73,7 -28,3 -32,15 -57,21 -34,9 -38,1 -70,16 0,49 14,37 53,106l-74 62c-5,4 -8,4 -14,11 -10,13 -5,2 -5,14 0,4 0,11 -1,14 -3,13 -4,13 -6,17l-20 7 -20 0 -173 131c-15,10 -53,34 -54,50 -1,22 0,16 -6,31 -19,7 -15,6 -40,6 -26,1 -69,51 -97,72l-84 65c-10,12 -6,1 -6,14 -2,21 -1,16 -7,31 -18,6 -15,5 -40,6 -26,1 -69,51 -97,71l-83 66c-11,11 -6,0 -6,13 0,6 0,9 -2,14 -6,17 -17,17 -38,17 -20,1 6,-6 -12,3 -7,4 -8,6 -14,11 -26,22 -167,129 -168,143 -4,23 0,10 -6,24 -16,7 0,2 -27,7 -24,-5 -7,-9 -29,10l-171 146 0 19c0,19 -28,18 -47,18 -16,1 -2,-5 -21,11l-165 140c-2,21 -1,16 -7,31 -19,6 -15,5 -40,6 -24,1 -12,7 -46,32 -26,20 -125,96 -134,112 0,5 0,8 -1,13 -1,2 -2,5 -3,6 0,2 -2,4 -3,6 0,10 -6,15 -25,18 -7,1 -15,0 -21,0 -16,1 -3,-5 -22,11l-122 98c-12,9 -15,12 -25,21l-18 21 0 18c0,11 -6,16 -26,19 -6,0 -14,0 -21,0 -22,3 -29,20 -45,33 -11,9 -12,8 -22,16l-113 95c0,5 1,8 -1,13 0,2 -2,5 -2,6 -1,2 -2,4 -3,6 0,10 -7,15 -26,18 -6,1 -14,0 -21,0 -27,12 -176,137 -180,144 0,6 0,9 -1,14 -1,2 -2,4 -2,6 -1,1 -2,3 -4,5 0,18 -26,19 -40,19 -12,0 -1,-3 -16,4 -32,15 -73,74 -110,84 -16,-65 -7,-583 -7,-694l0 -4925c-20,-9 -13,-16 -14,-44 0,-18 1,-28 7,-38 25,0 47,-6 47,19l7 7c0,18 -2,9 59,44 29,16 17,2 54,30l33 -6 7 6c11,1 7,-2 7,13l0 6c8,24 88,44 113,75l40 -6 13 12 0 13 0 0c0,0 -9,3 20,19l78 40c2,1 9,4 11,5l11 5c25,0 47,-6 47,18 10,4 7,-7 7,13 6,11 59,38 76,46 22,10 16,7 37,23l7 -7 26 0 14 13 0 6c10,3 6,-7 6,13 9,15 82,49 108,60 1,0 4,1 6,2 27,0 26,-1 46,6l0 19 0 0c6,16 -9,-5 6,9l114 60 34 0 13 12 0 13c7,21 69,36 120,75l7 -13 20 7 6 6 7 6c10,3 7,-7 7,13 4,13 -18,-5 15,16 11,7 21,10 31,15 19,10 44,20 60,37 4,-1 19,-6 23,-6 27,-1 20,4 24,6l7 7 6 6c13,0 7,1 7,19 7,11 59,36 77,46 5,2 8,4 14,6 20,10 -1,1 22,10l34 0 13 13 0 12c5,15 54,37 80,50 8,4 8,4 18,9 20,9 -1,1 22,10 3,0 11,0 14,0 18,3 14,4 19,6l7 6c10,4 7,-7 7,13 4,12 -18,-3 16,16 24,13 71,32 90,53 31,0 60,-9 60,18 10,4 7,-7 7,13 12,21 5,6 18,14 11,5 18,9 30,16 26,16 37,18 65,39 8,-14 47,-12 47,12 10,3 7,-7 7,13 12,21 5,6 18,13 10,5 14,7 26,14 20,13 38,17 56,35 30,0 36,-2 60,6l0 19c6,20 20,13 51,33 23,15 43,26 69,37l33 -1 13 12 0 13c4,9 -17,-2 16,16 25,12 72,33 91,53 6,-3 16,-6 23,-6 12,0 13,3 17,6l7 6 6 6 7 6 7 7c-4,19 13,13 44,33 32,20 37,16 56,35 3,-1 18,-6 22,-6 27,-1 20,4 24,6l7 7 7 6c8,4 6,-8 7,13 0,26 -9,31 -41,31 -10,0 0,-10 -18,14 -43,58 -35,20 -35,80 28,17 5,14 46,19 23,2 42,3 66,6 29,4 29,13 52,20 23,7 45,4 69,11l7 -19c10,0 11,0 21,2l12 4 7 6c10,4 7,-7 7,13 16,29 96,16 135,29 20,8 30,25 62,19 43,-7 12,-25 56,-29l0 -69c-37,-3 -13,-10 -40,-11 -21,0 -17,9 -47,11 -8,-32 -31,-40 -63,-91 -6,-8 -12,-21 -23,-22l-20 0c-6,-12 -2,1 -7,-18 -2,-4 -3,-2 -6,-18 -1,-5 -1,-15 -1,-20 -20,-16 -12,-13 -24,-33 -11,-18 -13,-16 -26,-32 -48,-56 -43,-86 -86,-76 -35,9 -18,19 -39,46 -19,24 -7,-3 -38,52 -38,-3 -73,-29 -109,-49 -19,-10 -17,-13 -31,-20 -17,13 25,12 -33,12 -15,-25 -11,4 -14,-37l-108 -61c-16,-11 -22,-13 -38,-20l-109 -61c-19,-10 -17,-14 -31,-21 -17,13 24,13 -34,13 -14,-26 -10,4 -13,-38l-71 -39c-15,-8 -20,-10 -34,-19 -26,-15 -13,-15 -35,-11l-13 0c-7,-10 -1,-2 -7,-18 -23,-17 -12,-10 -37,-22l-158 -89c-46,-23 -74,-51 -98,-46 -40,0 -44,0 -47,-37 -22,-15 -15,-7 -35,-17 -19,-9 -16,-11 -32,-20 -18,-11 -50,-22 -60,-38 -16,13 25,12 -33,12 -6,-14 -5,-9 -7,-31l-179 -100c-16,-9 -21,-9 -39,-20 -22,-15 -58,-30 -68,-42 -17,13 25,12 -34,12 -14,-25 -10,4 -13,-37 -22,-15 -15,-8 -35,-17 -19,-9 -12,-8 -28,-18 -19,-12 -45,-19 -57,-34 -17,13 25,12 -33,12 -15,-25 -11,4 -14,-37 -22,-15 -15,-7 -35,-17 -19,-9 -16,-11 -32,-20 -17,-11 -50,-22 -59,-38 -19,15 25,12 -27,12 -14,-24 -6,3 -13,-31l-106 -58c-25,-15 -13,-15 -34,-11l-14 0c-6,-10 0,-2 -6,-18l-124 -72c-17,-7 -4,-7 -23,-3l-13 0c-7,-11 -1,-3 -7,-19 -20,-15 -12,-10 -33,-20 -20,-9 -14,-6 -33,-18 -18,-13 -48,-21 -61,-37 -16,13 25,12 -33,12 -14,-25 -10,4 -13,-37 -23,-15 -15,-7 -36,-17 -18,-9 -11,-8 -27,-18 -19,-12 -48,-17 -57,-34 -17,13 25,13 -34,13 -6,-15 -5,-10 -6,-31 -40,-29 -54,-24 -77,-41 -17,-13 -11,-2 -17,-22l47 0 7 -6 6 -7 11 -18c1,-4 2,-4 3,-6 -18,-9 -8,-6 -14,-19l-26 0c-11,20 9,12 -19,18 -22,6 -12,-2 -15,-12 -28,0 -28,11 -33,31 -33,-2 -57,-7 -47,-37l7 -13 20 0c11,-20 17,-18 40,-25l7 -6c0,-10 -2,-6 13,-6 7,-10 22,-30 27,-38l20 6 6 7c18,-24 32,-24 58,-40l69 -35 7 -32c6,0 14,0 21,1 23,3 14,4 19,6l0 0c19,-24 16,-16 42,-30l91 -52c19,-9 27,-15 45,-26l400 -225c9,-5 13,-7 21,-11l121 -69c0,-15 0,-16 6,-25 24,1 19,1 34,7 9,-17 42,-28 59,-38 16,-10 13,-11 32,-20 26,-13 16,-5 42,-24l7 -12 20 0 93 -56c12,-7 23,-11 40,-19 0,-17 -6,-19 7,-19l33 -6 7 6c6,-23 2,-13 21,-23 14,-8 17,-7 31,-16 26,-15 36,-21 68,-36l0 -13c4,-16 -2,-9 6,-18l47 0c12,-21 10,-6 49,-30l64 -33 7 -31 33 0c9,5 7,-7 7,6 17,-21 88,-56 120,-68l7 -32 33 6 7 1c9,-16 102,-66 129,-80 28,-14 45,-26 71,-39l332 -188c2,-1 8,-4 10,-5 18,-8 -7,2 18,-7 1,-14 0,-11 6,-19l27 0c12,-14 36,-25 55,-36 19,-9 17,-12 32,-20 19,-10 17,-4 40,-19 0,-15 0,-17 6,-25 25,0 23,0 40,6 17,3 7,0 16,10 9,9 10,13 17,22 21,27 16,22 27,56 24,1 21,4 40,6 33,-1 28,-13 43,-35 10,-14 10,-10 19,-26l98 -126 0 -32c14,-6 18,-12 40,-12 12,-34 48,-78 74,-106 1,-1 2,-2 3,-3 1,-1 3,-3 4,-4 0,0 28,-22 6,-43 -27,-13 -107,-3 -133,6 -36,13 -10,15 -60,19 -146,11 -57,21 -195,36 -54,6 -145,26 -101,78l33 44c26,31 12,16 16,54z"/>
    <path class="fil0" d="M6193 3556c0,-16 1,-22 7,-31 43,0 23,1 47,13 20,-3 27,-18 53,-26 11,-3 25,-4 38,-7 14,-5 16,-8 35,-17l7 -13c20,5 6,1 20,6l89 -35c49,-8 40,1 85,-14 19,-6 -10,-4 26,-7l0 -75c-22,-2 -27,-9 -41,-9 -26,0 -15,11 -36,19 -42,15 -37,-17 -76,-22 -2,3 -3,14 -7,18 -26,0 -24,5 -33,-6l-7 -6c-1,-2 -3,-4 -3,-6 -1,-1 -2,-4 -2,-6 -2,-5 -2,-8 -2,-13 -54,-26 -48,-5 -88,-30l-118 -45c-18,-5 -31,-5 -47,-13 0,0 -57,-40 -87,-12 -16,15 -6,237 -6,294 -1,33 -3,104 50,79 76,-36 57,-17 96,-36z"/>
    <path class="fil0" d="M6600 2644l0 -75c-16,-1 -96,-50 -73,56 11,52 36,22 73,19z"/>
    <path class="fil0" d="M6600 4019l0 -75c-16,-1 -96,-50 -73,56 11,52 36,22 73,19z"/>
    <path class="fil0" d="M6540 9344l33 0c2,-23 2,-23 27,-25l0 -69c-33,-3 -60,-30 -74,12 -5,14 -4,24 -1,39 9,33 12,12 15,43z"/>
    <path class="fil0" d="M6527 8081c0,50 -9,75 33,75 26,0 1,-9 40,-12l0 -75c-21,-2 -73,-29 -73,12z"/>
    <path class="fil0" d="M6527 1988c0,49 -9,75 33,75 26,0 1,-10 40,-13l0 -75c-21,-2 -73,-29 -73,13z"/>
    <path class="fil0" d="M6527 4150c0,113 17,67 73,63l0 -75c-12,-1 -73,-35 -73,12z"/>
    <path class="fil0" d="M6547 8350l53 -7 0 -74c-49,-5 7,-5 -37,-16 -18,-5 -28,3 -34,18 -4,11 -7,42 -6,46 2,12 13,35 24,33z"/>
    <path class="fil0" d="M6527 5331c0,114 23,67 73,63l0 -75c-12,-1 -73,-34 -73,12z"/>
    <path class="fil0" d="M6553 5994l7 0c26,0 1,-10 40,-13l0 -75 -53 -7c-34,-4 -35,95 6,95z"/>
    <path class="fil0" d="M6527 5538c0,100 34,53 73,50l0 -75c-26,-2 -73,-38 -73,25z"/>
    <path class="fil0" d="M6527 8869c0,106 7,67 73,62l0 -75c-12,-1 -73,-34 -73,13z"/>
    <path class="fil0" d="M6527 2775c0,106 7,68 73,63l0 -75c-12,-1 -73,-35 -73,12z"/>
    <path class="fil0" d="M6527 7494c0,104 4,68 73,62l0 -75c-12,-1 -73,-34 -73,13z"/>
    <path class="fil0" d="M6527 6706c0,67 -8,48 19,70l7 5c25,-5 19,-10 47,-12l0 -75c-17,-2 -73,-32 -73,12z"/>
    <path class="fil0" d="M6553 8744l7 0c26,0 1,-10 40,-13l0 -75 -53 -7c-27,-3 -38,95 6,95z"/>
    <path class="fil0" d="M6600 3231l0 -75c-19,-1 -103,-33 -73,62 15,43 37,16 73,13z"/>
    <path class="fil0" d="M6547 4619c28,0 20,-10 53,-13l0 -75c-25,-2 -19,-6 -53,-6 -41,0 -21,94 0,94z"/>
    <path class="fil0" d="M6527 4750l6 63c36,0 41,-5 67,-7l0 -81c-26,-2 -31,-6 -67,-6 -3,14 -6,14 -6,31z"/>
    <path class="fil0" d="M6527 6125l6 63c36,0 41,-5 67,-7l0 -81c-26,-2 -31,-6 -67,-6 -3,14 -6,14 -6,31z"/>
    <path class="fil0" d="M6547 7756c34,0 28,-4 53,-6l0 -75c-31,-2 -56,-27 -71,9 -9,22 -12,72 18,72z"/>
    <path class="fil0" d="M6547 2256l53 -7 0 -74c-39,-3 -14,-12 -40,-12l-7 0c-44,0 -33,97 -6,93z"/>
    <path class="fil0" d="M6533 5006c27,-2 34,-6 67,-6l0 -69 -30 -16c-61,-16 -50,58 -37,91z"/>
    <path class="fil0" d="M6540 9131c32,15 21,-3 60,-6l0 -69c-35,-2 -13,-7 -38,-14 -34,-10 -39,33 -39,52 0,18 2,27 17,37z"/>
    <path class="fil0" d="M5427 3406c0,51 100,54 100,-6 0,-36 -100,-51 -100,6z"/>
    <path class="fil0" d="M6553 4419c39,0 4,-9 47,-13l0 -68c-43,-4 -8,-13 -47,-13 -40,0 -42,94 0,94z"/>
    <path class="fil0" d="M6553 5794c39,0 4,-9 47,-13l0 -68c-43,-4 -8,-13 -47,-13 -40,0 -42,94 0,94z"/>
    <path class="fil0" d="M6553 6581c39,0 4,-9 47,-12l0 -69c-43,-3 -8,-12 -47,-12 -42,0 -40,93 0,93z"/>
    <path class="fil0" d="M6553 3044c39,0 4,-9 47,-13l0 -68c-43,-4 -8,-13 -47,-13 -40,0 -42,94 0,94z"/>
    <path class="fil0" d="M6560 6381c21,-12 -6,14 7,-6l33 0 0 -69c-7,-4 -1,-1 -13,-7l-47 -11c-18,32 -41,90 20,93z"/>
    <path class="fil0" d="M6553 7956c39,0 4,-9 47,-12l0 -69c-33,-3 -60,-30 -74,12 -7,17 -5,69 27,69z"/>
    <path class="fil0" d="M5633 3400c0,17 4,17 7,31 75,17 93,10 93,-37 0,-38 -100,-33 -100,6z"/>
    <path class="fil0" d="M6553 8544c39,0 4,-9 47,-13l0 -68c-36,-3 -57,-30 -73,13 -8,22 -6,68 26,68z"/>
    <path class="fil0" d="M6600 2444l0 -69c-43,-3 -8,-12 -47,-12 -32,0 -34,46 -26,67 16,44 37,17 73,14z"/>
    <path class="fil0" d="M6553 7169c39,0 4,-9 47,-13l0 -68c-36,-3 -57,-30 -73,13 -8,22 -6,68 26,68z"/>
    <path class="fil0" d="M6600 3819l0 -69c-43,-3 -8,-12 -47,-12 -32,0 -34,46 -26,67 16,44 37,17 73,14z"/>
    <path class="fil0" d="M4800 3438c56,12 100,17 100,-32 0,-30 -47,-29 -63,-27 -43,5 -37,18 -37,59z"/>
    <path class="fil0" d="M5220 3406c0,17 3,17 7,32 59,12 86,13 86,-38 0,-39 -93,-39 -93,6z"/>
    <path class="fil0" d="M6600 7294l-27 0 0 -7c-18,0 -13,5 -13,-12 -22,3 -14,2 -33,6 -4,139 21,79 73,75l0 -62z"/>
    <path class="fil0" d="M6527 1800l6 63c51,11 21,-3 67,-7l0 -68c-26,-2 -73,-28 -73,12z"/>
    <path class="fil0" d="M4793 6831c0,44 107,42 107,7 0,-28 -7,-38 -60,-38 -22,0 -47,11 -47,31z"/>
    <path class="fil0" d="M5627 6819c4,46 29,44 66,44 32,0 41,-14 47,-38 -34,-37 -75,-30 -113,-6z"/>
    <path class="fil0" d="M3960 6831c0,15 2,8 7,25 53,12 100,18 100,-43 -11,-3 -107,-37 -107,18z"/>
    <path class="fil0" d="M3960 3413c0,16 3,17 7,31 25,5 71,14 94,-6 15,-12 8,-17 6,-38 -18,-4 -107,-25 -107,13z"/>
    <path class="fil0" d="M4167 3419c0,38 106,45 106,6 0,-27 -3,-37 -46,-37 -27,0 -60,6 -60,31z"/>
    <path class="fil0" d="M5000 6831c0,40 107,44 107,7 0,-68 -107,-35 -107,-7z"/>
    <path class="fil0" d="M4167 6813c0,61 47,55 100,43 20,-80 -49,-55 -100,-43z"/>
    <path class="fil0" d="M5840 3394c15,58 100,62 100,0 0,-34 -67,-33 -91,-11 -1,1 -2,3 -3,4l-6 7z"/>
    <path class="fil0" d="M4587 6831c0,46 106,41 106,0 0,-40 -106,-43 -106,0z"/>
    <path class="fil0" d="M4380 3419c0,32 100,55 100,-6 0,-44 -100,-36 -100,6z"/>
    <path class="fil0" d="M5833 6838c24,25 107,50 107,-13 0,-34 -91,-42 -107,13z"/>
    <path class="fil0" d="M4373 6825c15,60 107,39 107,13 0,-50 -72,-50 -107,-13z"/>
    <path class="fil0" d="M3753 6831c0,34 68,49 107,7 -14,-58 -107,-46 -107,-7z"/>
    <path class="fil0" d="M3633 6856l14 -37c-82,-55 -147,21 -77,40 24,7 42,5 63,-3z"/>
    <path class="fil0" d="M5427 6844c15,0 13,-5 13,6l7 6c-3,14 -9,5 20,7 52,4 60,-17 60,-50 -48,-11 -51,-25 -100,0l0 31z"/>
    <path class="fil0" d="M6047 6825c15,62 106,39 106,6 0,-26 -63,-53 -106,-6z"/>
    <path class="fil0" d="M5213 6831c0,33 100,57 100,-6 0,-36 -100,-33 -100,6z"/>
    <path class="fil0" d="M4613 3388l0 31c-4,3 -19,6 -20,6 0,24 34,26 57,22 40,-5 43,-7 43,-47 -12,-8 -59,-34 -80,-12z"/>
    <path class="fil0" d="M3753 3425c20,42 77,26 107,13l0 -32c-31,-15 -27,-12 -73,-12 -1,14 2,-3 -2,13l-11 15c-1,0 -5,1 -6,2 -5,1 -8,1 -15,1z"/>
    <path class="fil0" d="M5060 3444l0 -69c-46,7 -69,27 -44,59 1,1 3,3 4,4 8,9 15,6 40,6z"/>
    <path class="fil0" d="M6527 3587c-11,6 -4,1 -7,13l6 13c13,20 -7,-1 14,18l13 0c1,-1 3,-4 3,-3l5 -5c9,-8 27,-4 39,-4l0 -38c-34,0 -48,2 -73,6z"/>
    <path class="fil0" d="M6527 3587c25,-4 39,-6 73,-6l-17 -34c-20,-11 -2,-5 -18,-9 -25,-4 -24,3 -38,12l0 37z"/>
    <path class="fil0" d="M5060 3444c27,0 17,2 40,-6l0 -57c-15,-4 -20,-6 -40,-6l0 69z"/>
    <path class="fil0" d="M3440 3544l0 -7c-5,-12 -1,1 -7,-18l0 -32c4,-16 -1,-9 7,-18l27 6 6 6 7 0 0 0c-11,11 -9,7 7,7l-7 -7c0,-25 -22,-19 -47,-19 -6,10 -7,20 -7,38 1,28 -6,35 14,44z"/>
    <path class="fil0" d="M5667 7387c25,0 21,1 40,-6 6,-15 5,-9 6,-31l-12 5c-42,23 -28,14 -34,32z"/>
    <path class="fil0" d="M5433 7575c25,-1 22,0 40,-6 6,-15 5,-10 7,-31l-12 5c-2,1 -8,5 -10,6 -29,15 -15,0 -25,26z"/>
    <path class="fil0" d="M4960 2481l40 -4c13,-3 13,-19 13,-27 -21,7 -23,11 -46,13 -4,4 -6,15 -7,18z"/>
    <path class="fil0" d="M5207 4387c-1,0 -3,-14 -7,-18 -17,-4 -31,-8 -40,-19 3,37 7,37 47,37z"/>
    <path class="fil0" d="M4500 8325c25,-1 21,0 40,-6 6,-15 5,-10 7,-31 -20,7 -8,-1 -26,13 0,0 -9,8 -10,10l-11 14z"/>
    <path class="fil0" d="M4707 4094c-19,-9 -37,-13 -47,-25 3,41 -1,12 13,37 59,0 17,1 34,-12z"/>
    <path class="fil0" d="M5707 4656c-19,-9 -37,-13 -47,-25 3,42 -1,12 13,38 58,0 17,0 34,-13z"/>
    <path class="fil0" d="M4540 4000c-19,-9 -37,-13 -47,-25 3,41 -1,12 14,37 58,0 16,1 33,-12z"/>
    <path class="fil0" d="M3873 3625c-18,-9 -36,-13 -46,-25 3,41 -1,12 13,37 58,0 17,1 33,-12z"/>
    <path class="fil0" d="M6040 4844c-19,-9 -37,-13 -47,-25 3,41 -1,12 14,37 58,0 16,1 33,-12z"/>
    <path class="fil0" d="M3707 3531c-17,-8 -27,-13 -40,-18 1,21 0,16 6,31 59,0 17,0 34,-13z"/>
    <path class="fil0" d="M4473 2762l0 -12c-17,0 -13,-4 -13,12l13 0 0 7c47,0 47,-6 47,-44 -15,0 -18,-4 -7,6 -1,15 2,-2 -1,14 -2,13 -10,14 -24,17 -3,1 -11,0 -15,0z"/>
    <path class="fil0" d="M3700 3194c5,0 16,0 21,-1 17,-3 15,-4 19,-6l7 -18c-34,0 -13,-2 -20,6l-15 3c-25,3 -1,1 -12,16z"/>
    <path class="fil0" d="M3533 3287c6,0 16,1 21,0 17,-3 16,-4 19,-6l7 -18c-33,0 -13,-2 -20,6l-14 3c-26,3 -2,1 -13,15z"/>
    <path class="fil0" d="M5027 2512l6 0 34 -6 13 -12 -47 0c-8,9 -2,2 -6,18z"/>
    <path class="fil0" d="M5207 7756c21,0 32,0 38,-17 2,-5 2,-8 2,-14 -20,8 -5,-3 -23,10 -26,20 -5,2 -17,21z"/>
    <path class="fil0" d="M5033 4275c-16,-5 -30,-7 -40,-19 2,22 1,17 7,31 58,0 17,1 33,-12z"/>
    <path class="fil0" d="M4473 2750l0 0 0 12c4,0 12,1 15,0 14,-3 22,-4 24,-17 3,-16 0,1 1,-14 -15,0 -13,-4 -13,7l-6 12 -21 0z"/>
    <path class="fil0" d="M6097 1841l-24 3 0 0 0 12 34 0 6 -6 -4 -20c-15,8 -4,-8 -12,11z"/>
    <path class="fil0" d="M3860 8938l7 -7c0,-26 5,-25 33,-25l0 -6c-2,-1 -6,-3 -7,-4l-26 -2c-10,16 -7,18 -7,44z"/>
    <path class="fil0" d="M4280 8506c31,-5 10,2 33,-12l0 -19c-15,5 -9,-2 -22,10 -16,17 -3,3 -11,21z"/>
    <path class="fil0" d="M4047 8694c31,-6 10,1 33,-13l0 -18c-15,4 -9,-2 -22,10 -17,16 -3,3 -11,21z"/>
    <path class="fil0" d="M4747 8131c31,-5 10,2 33,-12l0 -19c-15,5 -9,-2 -22,10 -17,17 -3,3 -11,21z"/>
    <path class="fil0" d="M3813 8881c32,-5 10,2 34,-12l0 -19c-15,5 -10,-2 -22,10 -17,17 -4,3 -12,21z"/>
    <polygon class="fil0" points="5527,7594 5533,7588 5539,7568 5560,7569 5573,7556 5531,7556 "/>
    <path class="fil0" d="M5760 7406l7 -6 6 -19 20 0c12,-14 3,-8 14,-12 -46,0 -47,-6 -47,37z"/>
    <path class="fil0" d="M5260 4500l38 2 6 6 9 4 0 7c-11,10 -8,6 7,6 0,-20 3,-9 -7,-13 0,-27 -29,-18 -60,-18l7 6z"/>
    <path class="fil0" d="M4980 7944c27,-5 11,0 27,-7 6,-14 2,-1 6,-24 -15,4 -9,-2 -22,10 -16,16 -3,3 -11,21z"/>
    <path class="fil0" d="M4367 3900c-16,-5 -31,-7 -40,-19 7,34 -1,7 13,31 52,0 8,3 27,-12z"/>
    <path class="fil0" d="M4593 3425c1,0 16,-3 20,-6l0 -31c-23,14 -20,2 -20,37z"/>
    <path class="fil0" d="M3627 9125l6 -6c0,-26 6,-25 34,-25l0 -7 -13 -5c-8,-2 -5,0 -14,-1 -5,9 -4,8 -13,13l0 31z"/>
    <path class="fil0" d="M4753 4212l7 7 40 -7 -3 4 10 3 -4 3 10 3 0 13c-11,10 -8,6 7,6 0,-18 6,-19 -7,-19l-6 -6 -7 -7c-4,-2 3,-7 -24,-6 -4,0 -19,5 -23,6z"/>
    <path class="fil0" d="M6433 1788l7 -7c2,-16 7,-19 20,-25 12,-14 2,-8 13,-12 -22,0 -26,6 -40,12l0 32z"/>
    <path class="fil0" d="M3607 3394c-2,0 -22,-1 -25,0 -22,5 -4,-6 -9,6 3,10 -7,18 15,12 28,-6 8,2 19,-18z"/>
    <path class="fil0" d="M6193 3556l7 -6c1,-13 1,-11 7,-19l20 6 6 7c0,-11 -2,-6 14,-6 -24,-12 -4,-13 -47,-13 -6,9 -7,15 -7,31z"/>
    <path class="fil0" d="M6400 3344l7 6c6,0 8,1 14,-1 1,0 4,-1 5,-2 1,0 5,-2 7,-3 -11,-14 18,-13 -33,-13l0 -6 0 19z"/>
    <path class="fil0" d="M5293 7781c10,-17 22,-23 40,-31l-26 -6c-5,8 -4,8 -14,12l0 25z"/>
    <path class="fil0" d="M6140 5006l-7 6 -13 0c-11,-10 -7,-8 -7,7 32,0 41,-5 41,-31 -1,-21 1,-9 -7,-13 0,4 0,10 -1,14 -4,21 -4,13 -6,17z"/>
    <path class="fil0" d="M6113 1850l-6 6 -34 0 0 -12c-17,0 -13,-4 -13,12l13 0 0 6c4,0 12,1 14,0 15,-3 15,-4 20,-6l6 -6c1,-2 3,-6 3,-5 1,0 2,-5 3,-6 1,-9 1,-6 1,-14l-15 0 4 5 4 20z"/>
    <path class="fil0" d="M4640 2662c30,-1 22,-1 40,-12l0 -12 -24 8c-16,10 -5,1 -16,16z"/>
    <path class="fil0" d="M3847 8869c-24,14 -2,7 -34,12 -17,-10 -8,-10 -13,6 7,0 15,1 21,0 19,-3 26,-8 26,-18 1,-2 2,-4 3,-6 0,-1 2,-4 2,-6 2,-5 1,-8 1,-13 -15,0 -18,-5 -6,6l0 19z"/>
    <path class="fil0" d="M4313 8494c-23,14 -2,7 -33,12 -18,-10 -8,-10 -13,6 6,0 14,1 21,0 19,-3 25,-8 25,-18 1,-2 3,-4 3,-6 1,-1 2,-4 3,-6 1,-5 1,-8 1,-13 -15,0 -18,-5 -7,6l0 19z"/>
    <path class="fil0" d="M5300 2287c4,0 12,1 14,0 15,-3 15,-4 19,-6l7 -18 -27 12c-26,0 -2,-2 -13,12z"/>
    <path class="fil0" d="M5133 2381c4,0 12,0 15,0 14,-3 14,-4 19,-6l6 -19 -26 13c-27,0 -3,-3 -14,12z"/>
    <path class="fil0" d="M3580 3344c-15,0 -13,-4 -13,6l-7 6c0,-12 -2,-2 13,-6 15,0 2,2 7,-6 37,-11 6,-2 27,-19l0 -13 20 0 0 7 6 0 -6 -7 -20 -6c-5,8 -20,28 -27,38z"/>
    <path class="fil0" d="M3604 9054c-12,-3 -10,-5 -6,6l-11 -3c-12,-2 -7,-3 -7,12 36,0 11,2 18,-9 12,3 10,5 6,-6l9 2 0 -18c-15,0 -14,-5 -11,6l2 10z"/>
    <path class="fil0" d="M5593 4687l7 -2 21 0 16 8 -4 7c0,11 -2,6 14,6l0 -19c-24,-8 -30,-6 -60,-6l6 6z"/>
    <path class="fil0" d="M6573 7287l0 7 27 0c0,-24 -14,-11 -27,-7l0 0 0 -12 -13 0c0,17 -5,12 13,12z"/>
    <path class="fil0" d="M6400 3344l7 6c9,11 7,6 33,6 4,-4 5,-15 7,-18l-14 6c-2,1 -6,3 -7,3 -1,1 -4,2 -5,2 -6,2 -8,1 -14,1l-7 -6 0 -19 -7 -6c0,5 0,8 2,13 0,2 1,5 2,6 0,2 2,4 3,6z"/>
    <path class="fil0" d="M3613 9056l-9 -2c4,11 6,9 -6,6 -7,11 18,9 -18,9 -11,-11 -7,-8 -7,6 14,0 40,-1 40,-19 2,-2 3,-4 4,-5 0,-2 1,-4 2,-6 1,-5 1,-8 1,-14 -15,0 -18,-4 -7,7l0 18z"/>
    <path class="fil0" d="M4807 2569l26 0c5,-5 6,-15 7,-19 -33,0 -13,-2 -20,6 -27,0 -3,-2 -13,13z"/>
    <path class="fil0" d="M6087 4962l13 7c2,-4 -8,-21 20,-9l13 2 7 7 -4 -1 1 27 3 11c-13,-4 -10,-6 -7,6l7 -6c2,-4 2,4 6,-17 1,-4 1,-10 1,-14l-7 -6 -7 -7c-4,-2 3,-7 -24,-6 -4,0 -19,5 -22,6z"/>
    <path class="fil0" d="M6400 4994c5,19 1,6 7,18l20 0c0,-14 4,-16 -7,-6l-20 -12 0 -31 -7 -7c0,5 0,15 1,20 3,16 4,14 6,18z"/>
    <path class="fil0" d="M4527 2806c9,-11 24,-13 40,-18 -15,-6 -10,-6 -34,-7 -6,9 -6,10 -6,25z"/>
    <path class="fil0" d="M3753 3419c29,0 23,-3 27,-25 -26,10 -16,-3 -27,25z"/>
    <path class="fil0" d="M3387 3381c28,0 22,-2 26,-25 -25,10 -16,-3 -26,25z"/>
    <path class="fil0" d="M3940 3750l25 2 6 6 9 4c0,-24 -22,-18 -47,-18 -11,10 -8,6 7,6z"/>
    <path class="fil0" d="M3393 9300l7 0 6 -19 28 0 6 -6c-33,0 -47,-8 -47,25z"/>
    <path class="fil0" d="M4807 2569l0 -6c0,20 -5,9 9,11 24,5 28,-1 31,-30 -16,0 -18,-5 -7,6 -1,4 -2,14 -7,19l-26 0z"/>
    <path class="fil0" d="M5433 4591l21 0c16,8 11,5 26,15l0 7c-11,10 -9,6 7,6 0,-20 3,-10 -7,-13 0,-24 -39,-26 -47,-12l0 -3z"/>
    <path class="fil0" d="M6127 1900c10,-12 6,-1 20,-19l26 0c-17,-6 -15,-6 -40,-6 -6,8 -6,10 -6,25z"/>
    <path class="fil0" d="M4267 3938c15,-16 20,-4 29,3l4 9 1 6 12 0 0 -19c-20,-7 -19,-6 -46,-6l0 7z"/>
    <path class="fil0" d="M5973 7156l-6 6 -7 0 0 7 20 -7c2,-4 3,-4 6,-17 1,-3 1,-10 1,-14 -16,0 -18,-4 -7,7l-7 18z"/>
    <path class="fil0" d="M3440 3487l-7 0 0 32 7 0 0 6 0 -6 0 0 0 -32c9,-7 7,10 7,-6l20 0 0 0 6 0 0 0 -6 0 0 -6 -20 0 -7 12z"/>
    <path class="fil0" d="M6433 7006c9,-17 16,-28 34,-37l-20 0c-5,8 -4,8 -14,12l0 25z"/>
    <path class="fil0" d="M6293 5169l7 0c5,-11 -1,0 7,-13l26 0 7 6 0 7c-11,10 -9,6 7,6 0,-20 3,-9 -7,-13l-7 -6 -12 -4c-10,-2 -11,-2 -21,-2l-7 19z"/>
    <path class="fil0" d="M4047 8694c-18,-11 -8,-10 -14,6 7,0 15,0 21,0 20,-3 26,-8 26,-19 -23,14 -2,7 -33,13z"/>
    <path class="fil0" d="M4747 8131c-18,-10 -8,-10 -14,6 19,0 47,1 47,-18 -23,14 -2,7 -33,12z"/>
    <path class="fil0" d="M6400 4994l20 12c-5,-14 7,-12 -7,-12 -5,-12 0,-1 -6,-19l-7 -12 0 31z"/>
    <path class="fil0" d="M6300 5169l7 0 0 -7c28,5 10,1 26,7l7 0 0 -7 -7 -6 -26 0c-8,13 -2,2 -7,13z"/>
    <path class="fil0" d="M4640 2662l0 -6c0,16 3,17 21,13 20,-4 13,-2 19,-19 -18,11 -10,11 -40,12z"/>
    <path class="fil0" d="M5993 7219l7 -6c2,-14 -3,-8 7,-13 4,-8 -9,-6 13,-6l13 -7c-35,0 -40,-1 -40,32z"/>
    <path class="fil0" d="M6553 3631l-13 0 13 0 0 0 34 -6 13 0 0 -6c-12,0 -30,-4 -39,4l-5 5c0,-1 -2,2 -3,3z"/>
    <polygon class="fil0" points="5100,3438 5107,3431 5107,3394 5100,3381 "/>
    <path class="fil0" d="M3867 8931l6 -6 14 -13 13 -6c-28,0 -33,-1 -33,25z"/>
    <path class="fil0" d="M5953 7151c-11,-2 -6,-3 -6,11l13 0 7 0c-4,-11 -6,-9 6,-6l-3 -11c-12,9 -2,2 -17,6z"/>
    <path class="fil0" d="M4600 4125l7 -6 20 0 -3 2 9 4 -2 2 9 4 -3 -1 -4 8c0,10 -2,6 14,6 0,-20 3,-10 -7,-13l-7 -6 -6 -6 -20 -7 -7 13z"/>
    <path class="fil0" d="M3753 3419l0 6c7,0 10,0 15,-1 1,-1 5,-2 6,-2l11 -15c4,-16 1,1 2,-13l-7 0c-4,22 2,25 -27,25z"/>
    <polygon class="fil0" points="4100,3844 4100,3844 4121,3841 4133,3844 4140,3850 4137,3849 4134,3862 4147,3862 4147,3856 4147,3850 4140,3850 4133,3844 4133,3837 4107,3837 "/>
    <path class="fil0" d="M4560 8350l7 0 7 -12 26 -1 0 1 0 -1 0 0c-4,-1 -5,-2 -19,-5 -3,-1 -11,-1 -15,-1l-6 19z"/>
    <path class="fil0" d="M3633 3437l-6 7 -7 6 7 0 0 -6 6 0 0 -7 14 -6 0 -25 -14 -12c6,13 -4,10 14,19 -1,2 -2,2 -3,6l-11 18z"/>
    <path class="fil0" d="M4793 8181l-1 -6 5 -14 30 -5 6 -6c-35,0 -40,-2 -40,31z"/>
    <path class="fil0" d="M4867 2600l0 13 6 -7 0 -6 20 0 14 0 -7 -6 -27 0c0,15 3,-1 -6,6z"/>
    <polygon class="fil0" points="3760,3656 3767,3656 3797,3653 3797,3659 3803,3659 3801,3669 3801,3675 3813,3675 3813,3662 3803,3659 3797,3653 3800,3650 "/>
    <path class="fil0" d="M5787 4778l13 3 7 6 -4 0 -3 7c0,10 -2,6 13,6l0 -13 -6 0 -7 -6 0 -6 -33 1 20 2z"/>
    <polygon class="fil0" points="5360,2338 5367,2331 5373,2312 5400,2312 5400,2311 5407,2313 5400,2312 5367,2306 "/>
    <path class="fil0" d="M3433 3487l7 0 7 -12 20 0 0 6 6 0 0 0 7 0 0 0 -7 0 -6 -6 -27 -6c-8,9 -3,2 -7,18z"/>
    <path class="fil0" d="M4933 4313c0,-14 13,-6 22,-4l12 3 6 7 -3 -1 -3 7c0,11 -2,6 13,6l0 -12 -7 0 -6 -7 0 -6 -34 0 0 7z"/>
    <path class="fil0" d="M4093 8750l1 -6 3 -25c6,-12 18,-7 36,-7l0 7 0 -7 0 0c-4,-1 -4,-2 -19,-5 -2,-1 -10,-1 -14,-1 -9,16 -7,19 -7,44z"/>
    <path class="fil0" d="M5920 4869l13 0 27 0 -3 3 10 3 -3 3 9 3 -3 3 10 3 0 7 7 0 -7 -7 -7 -6 -6 -6 -7 -6c-4,-3 -5,-6 -17,-6 -7,0 -17,3 -23,6z"/>
    <path class="fil0" d="M6120 5001l0 11 13 0c-3,-12 -6,-10 7,-6l-3 -11 -7 2 -10 4z"/>
    <path class="fil0" d="M4432 4031c3,-3 -2,-14 23,-3l12 3 6 6 -3 -1 -3 8c-1,11 -2,6 13,6l0 -13 -7 0 -6 -6 0 -6 -34 0 -1 6z"/>
    <path class="fil0" d="M3633 9119l7 -6 0 -13 13 0 14 -6c-28,0 -34,-1 -34,25z"/>
    <path class="fil0" d="M5464 4603l3 3c-1,11 -2,7 13,7l0 -7c-15,-10 -10,-7 -26,-15l3 5 7 7z"/>
    <path class="fil0" d="M5932 4875c6,-7 1,-12 25,-3l0 6 7 0 0 6 6 0 -4 4c1,10 -1,6 14,6l0 -7 -10 -3 3 -3 -9 -3 3 -3 -10 -3 3 -3 -27 0 -1 6z"/>
    <path class="fil0" d="M3607 3325c-21,17 10,8 -27,19 -5,8 8,6 -7,6 19,-8 20,-8 34,-25l0 0c10,-7 2,-4 20,-6l0 0 6 0 -6 0 0 -7 -20 0 0 13z"/>
    <path class="fil0" d="M5100 4406c0,-13 13,-5 21,-3l12 3 7 6 -3 0 -4 7c0,10 -2,6 14,6 0,-20 3,-9 -7,-13l-7 -6c-5,-2 -1,-3 -19,-6 -3,0 -11,0 -14,0l0 6z"/>
    <polygon class="fil0" points="3400,9300 3407,9294 3407,9287 3420,9287 3434,9281 3406,9281 "/>
    <path class="fil0" d="M4020 3719c-7,-16 11,-13 -13,-13 -23,-25 25,11 -7,-6 6,16 0,8 7,19l13 0z"/>
    <path class="fil0" d="M5520 4562c-7,-15 11,-12 -13,-12 -23,-25 25,11 -7,-6 6,16 0,8 7,18l13 0z"/>
    <path class="fil0" d="M4187 3812c-7,-15 11,-12 -14,-12 -22,-25 25,11 -6,-6 6,16 0,8 6,18l14 0z"/>
    <path class="fil0" d="M4760 4219l7 0c12,-12 14,-7 30,-3l6 6 -2 9c-1,11 -3,7 12,7l0 -13 -10 -3 4 -3 -10 -3 3 -4 -40 7z"/>
    <path class="fil0" d="M5973 7156c-12,-3 -10,-5 -6,6l6 -6 7 -18 -13 0 3 7 3 11z"/>
    <path class="fil0" d="M5960 7169l0 -7 -13 0c-12,-10 -7,-8 -7,7l20 0z"/>
    <polygon class="fil0" points="6207,3544 6233,3544 6227,3537 6207,3537 "/>
    <path class="fil0" d="M5967 1994l7 -12c10,-4 15,-4 26,-7l-27 0c-6,8 -5,5 -6,19z"/>
    <path class="fil0" d="M3760 3244l0 -6 4 -13 6 -4 3 -5 20 0 14 3 0 0 0 0 0 0c-5,-2 4,-3 -19,-6 -7,-1 -15,-1 -21,-1l-7 32z"/>
    <path class="fil0" d="M6200 3550l7 -6 0 -7 20 0 6 7 -6 -7 -20 -6c-6,8 -6,6 -7,19z"/>
    <path class="fil0" d="M6000 7213l20 -19c-22,0 -9,-2 -13,6 -10,5 -5,-1 -7,13z"/>
    <path class="fil0" d="M5447 6856l-7 -6c0,-11 2,-6 -13,-6 0,15 -3,-1 6,6 0,14 -2,0 14,6z"/>
    <path class="fil0" d="M6560 6381l40 -6 -33 0c-13,20 14,-6 -7,6z"/>
    <path class="fil0" d="M3647 3581l0 -6 -10 -4 -3 4c-1,11 -3,6 13,6z"/>
    <path class="fil0" d="M4147 3863c-12,10 -9,6 6,6 0,-20 4,-10 -6,-13l0 6 0 1z"/>
    <path class="fil0" d="M3980 3769c-11,10 -9,6 7,6 0,-20 3,-9 -7,-13l0 7z"/>
    <polygon class="fil0" points="6130,4972 6136,4968 6140,4969 6133,4962 6120,4960 6123,4965 "/>
    <polygon class="fil0" points="3631,3571 3637,3571 3640,3569 3633,3562 3622,3559 3625,3564 "/>
    <path class="fil0" d="M6307 5169l26 0c-16,-6 2,-2 -26,-7l0 7z"/>
    <polygon class="fil0" points="5797,4790 5803,4787 5807,4787 5800,4781 5787,4778 5790,4784 "/>
    <path class="fil0" d="M4700 2706c16,0 -1,2 7,-6l20 -6 -20 0 -7 12z"/>
    <polygon class="fil0" points="5131,4415 5137,4412 5140,4412 5133,4406 5121,4403 5124,4408 "/>
    <polygon class="fil0" points="3600,3562 3600,3563 3613,3556 3622,3559 3633,3562 3640,3569 3640,3562 3633,3562 3633,3556 3607,3556 "/>
    <polygon class="fil0" points="4964,4321 4970,4318 4973,4319 4967,4312 4955,4309 4957,4315 "/>
    <polygon class="fil0" points="4131,3852 4137,3849 4140,3850 4133,3844 4121,3841 4124,3846 "/>
    <polygon class="fil0" points="4464,4040 4470,4036 4473,4037 4467,4031 4455,4028 4457,4034 "/>
    <path class="fil0" d="M3940 3747l25 5 0 6 6 0 -3 5c-2,10 -3,6 12,6l0 -7 -9 -4 -6 -6 -25 -2 0 -3z"/>
    <path class="fil0" d="M4097 8719l9 -8 16 4 11 4 0 -7c-18,0 -30,-5 -36,7z"/>
    <path class="fil0" d="M5533 7588c7,-13 9,-17 27,-19l-21 -1 -6 20z"/>
    <path class="fil0" d="M5067 7963c7,-13 8,-17 26,-19l-20 -1 -6 20z"/>
    <path class="fil0" d="M5767 7400c7,-13 8,-16 26,-19l-20 0 -6 19z"/>
    <polygon class="fil0" points="4567,8350 4560,8350 4560,8369 4561,8369 4564,8349 4567,8350 4569,8346 4572,8340 4600,8338 4600,8337 4574,8338 "/>
    <path class="fil0" d="M6373 3488c0,-16 -2,0 7,-7l20 0c-14,-5 0,-1 -20,-6l-7 13z"/>
    <path class="fil0" d="M3633 6856c7,-14 13,-16 14,-37l-14 37z"/>
    <path class="fil0" d="M3440 3537l0 -12 0 -6 -7 0c6,19 2,6 7,18z"/>
    <polygon class="fil0" points="4600,4125 4600,4125 4607,4118 4624,4121 4624,4127 4631,4127 4631,4134 4637,4130 4640,4131 4631,4127 4633,4125 4624,4121 4627,4119 4607,4119 "/>
    <path class="fil0" d="M5033 2512l0 7c7,-11 16,-11 34,-13l-27 0c0,16 2,-1 -7,6z"/>
    <path class="fil0" d="M5273 4497l25 5 0 6 6 0 -3 5c-2,10 -3,6 12,6l0 -7 -9 -4 -6 -6 -38 -2 13 -3z"/>
    <polygon class="fil0" points="4140,3850 4147,3850 4133,3837 4133,3844 "/>
    <polygon class="fil0" points="5367,2331 5363,2325 5364,2325 5380,2310 5393,2310 5400,2311 5400,2312 5373,2312 "/>
    <polygon class="fil0" points="5807,4787 5813,4787 5800,4775 5800,4781 "/>
    <polygon class="fil0" points="4973,4319 4980,4319 4967,4306 4967,4312 "/>
    <polygon class="fil0" points="4473,4037 4480,4037 4467,4025 4467,4031 "/>
    <polygon class="fil0" points="5631,4696 5637,4693 5621,4685 5624,4690 "/>
    <polygon class="fil0" points="3803,3659 3813,3662 3800,3650 3797,3653 "/>
    <polygon class="fil0" points="3807,3219 3807,3219 3793,3216 3793,3225 "/>
    <path class="fil0" d="M3640 9113c5,-9 4,-8 13,-13l-13 0 0 13z"/>
    <path class="fil0" d="M4873 2606c13,-5 2,0 20,-6l-20 0 0 6z"/>
    <polygon class="fil0" points="4133,8719 4122,8715 4122,8725 "/>
    <path class="fil0" d="M6533 5006c36,0 38,-6 67,-6 -33,0 -40,4 -67,6z"/>
    <path class="fil0" d="M5193 2431l-1 -6 1 0c2,-24 5,-24 28,-22l12 3 0 -1 7 1 -7 0 0 -6 -33 0 -7 31z"/>
    <path class="fil0" d="M4867 2600c-13,0 -7,2 -7,19l7 -6 0 -13c9,-7 6,9 6,-6l27 0 7 6 -7 -6 -33 6z"/>
    <polygon class="fil0" points="3407,9294 3420,9287 3407,9287 "/>
    <polygon class="fil0" points="3633,3437 3633,3444 3627,3444 3627,3450 3633,3444 3633,3444 3636,3440 3640,3434 3647,3431 3647,3431 "/>
    <path class="fil0" d="M3764 3225l6 3 0 -7c9,0 8,2 3,-5l-3 5 -6 4z"/>
    <path class="fil0" d="M5240 2406l0 0c0,-13 2,-1 -7,-6l0 6 7 0z"/>
    <path class="fil0" d="M6273 1975c-19,-2 -16,-5 -40,-6l15 3 25 3z"/>
    <path class="fil0" d="M4567 8350l-3 -1 5 4 0 -7c10,0 8,2 3,-6l-3 6 -2 4z"/>
    <polygon class="fil0" points="4797,8161 4802,8165 4813,8154 4820,8153 4827,8156 "/>
    <path class="fil0" d="M4333 8531c-11,6 -6,3 -6,25l0 0 4 -25 2 0 7 -6 27 0 0 -1 0 1 0 0 -34 6z"/>
    <path class="fil0" d="M3440 3487l0 32 0 0 0 -31c12,-6 8,-4 27,-7l0 0 -20 0c0,16 2,-1 -7,6z"/>
    <polygon class="fil0" points="4333,8531 4331,8531 4336,8534 4347,8524 4360,8524 4367,8524 4367,8525 4340,8525 "/>
    <path class="fil0" d="M3873 8925c5,-9 5,-8 14,-13l-14 13z"/>
    <polygon class="fil0" points="5233,2405 5233,2406 5221,2403 5224,2409 "/>
    <path class="fil0" d="M3607 3325l0 0c13,-5 1,-1 20,-6l0 0c-18,2 -10,-1 -20,6z"/>
    <polygon class="fil0" points="6553,3631 6553,3631 6560,3631 6573,3625 6587,3625 6587,3625 "/>
    <path class="fil0" d="M3600 3562l7 -6 26 0 0 6 7 0 0 7 -3 2 10 4c0,-15 4,-12 -7,-13l-7 -6 -33 6z"/>
    <path class="fil0" d="M3493 3394c1,-14 15,-11 27,-13l-20 0 -7 13z"/>
    <polygon class="fil0" points="5600,4688 5600,4685 5593,4687 "/>
    <path class="fil0" d="M6440 1781c3,-17 6,-18 20,-25 -13,6 -18,9 -20,25z"/>
    <path class="fil0" d="M5033 2512l-6 0 0 13 6 -6 0 -7c9,-7 7,10 7,-6l27 0 -34 6z"/>
    <path class="fil0" d="M6413 4994l-6 -19c6,18 1,7 6,19z"/>
    <polygon class="fil0" points="3633,3444 3633,3444 3633,3444 3636,3440 3640,3434 3636,3440 "/>
    <polygon class="fil0" points="5433,4594 5433,4591 5433,4594 "/>
    <polygon class="fil0" points="6573,7287 6573,7275 6573,7287 "/>
    <polygon class="fil0" points="4313,3956 4313,3956 4301,3956 "/>
    <polygon class="fil0" points="4147,3863 4147,3862 4134,3862 "/>
    <polygon class="fil0" points="3813,3675 3813,3675 3801,3675 "/>
    <polygon class="fil0" points="6600,3625 6587,3625 6587,3625 "/>
    <polygon class="fil0" points="5107,3431 5107,3394 "/>
    <polygon class="fil0" points="4107,3837 4100,3844 "/>
   </g>
  </g>
 </g>
</svg>
